<svg width="128" height="128" viewBox="0 0 128 128" fill="none" xmlns="http://www.w3.org/2000/svg">
<path d="M99.56 82.05H29V83.01H99.56V82.05Z" fill="#1E1618"/>
<path d="M99.56 72.45H29V73.41H99.56V72.45Z" fill="#1E1618"/>
<path d="M99.56 62.85H29V63.81H99.56V62.85Z" fill="#1E1618"/>
<path d="M99.56 53.25H29V54.21H99.56V53.25Z" fill="#1E1618"/>
<path d="M99.56 43.65H29V44.61H99.56V43.65Z" fill="#1E1618"/>
<path d="M51.528 32.802C52.2 34.05 52.792 35.586 53.304 37.41C53.816 39.17 54.104 40.818 54.168 42.354C54.008 47.794 51.896 52.578 47.832 56.706L49.08 63.138L50.568 62.994C53.064 63.058 55.08 64.002 56.616 65.826C58.12 67.65 58.888 69.826 58.92 72.354C58.888 74.434 58.312 76.21 57.192 77.682C56.072 79.186 54.584 80.386 52.728 81.282L54.312 89.058L54.408 90.834C54.28 94.866 52.088 97.17 47.832 97.746C46.168 97.906 44.616 97.49 43.176 96.498C41.736 95.506 40.888 94.146 40.632 92.418C40.568 91.202 40.856 90.114 41.496 89.154C42.168 88.226 43.08 87.666 44.232 87.474C45.256 87.378 46.152 87.698 46.92 88.434C47.688 89.138 48.104 90.034 48.168 91.122C48.136 92.594 47.64 93.602 46.68 94.146C45.72 94.722 44.904 94.93 44.232 94.77C44.36 95.41 44.824 95.874 45.624 96.162L47.736 96.45C51.256 95.906 53.048 94.002 53.112 90.738C53.144 89.874 53.048 88.946 52.824 87.954L51.48 81.81L48.024 82.338C44.632 82.242 41.768 80.994 39.432 78.594C37.096 76.194 35.752 73.138 35.4 69.426C35.272 65.714 36.312 62.402 38.52 59.49C40.728 56.61 43.08 53.986 45.576 51.618C44.84 48.834 44.456 46.002 44.424 43.122C44.424 41.17 44.856 38.914 45.72 36.354C46.584 33.762 47.912 32.034 49.704 31.17C50.248 31.042 50.856 31.586 51.528 32.802ZM50.424 36.834C48.856 37.314 47.736 38.546 47.064 40.53C46.392 42.482 46.04 44.242 46.008 45.81C46.04 47.442 46.264 49.026 46.68 50.562C48.248 49.25 49.624 47.602 50.808 45.618C51.96 43.602 52.52 41.49 52.488 39.282C52.488 38.642 52.312 38.082 51.96 37.602C51.608 37.122 51.096 36.866 50.424 36.834ZM46.008 69.714C45.24 70.674 44.856 71.762 44.856 72.978C45.016 74.994 46.008 76.386 47.832 77.154L48.12 77.538L47.592 77.922C46.12 77.378 44.92 76.482 43.992 75.234C43.064 73.954 42.6 72.498 42.6 70.866C42.664 69.234 43.208 67.73 44.232 66.354C45.256 65.01 46.504 64.05 47.976 63.474L46.824 57.666C44.68 59.458 42.744 61.49 41.016 63.762C39.288 66.002 38.36 68.594 38.232 71.538C38.328 74.578 39.384 76.93 41.4 78.594C43.448 80.29 45.912 81.09 48.792 80.994L51.288 80.514L48.792 67.746C47.672 68.098 46.744 68.754 46.008 69.714ZM49.944 67.602L52.488 80.13C54.984 78.754 56.248 76.61 56.28 73.698C56.12 71.874 55.464 70.418 54.312 69.33C53.16 68.21 51.704 67.634 49.944 67.602Z" fill="#1E1618"/>
<path d="M71.592 30.162V37.362L74.136 36.69V29.25H75.336V36.45L77.16 35.97V39.858L75.336 40.29V45.81L77.16 45.33V49.314L75.336 49.794V56.898H74.136V50.082L71.592 50.706V58.146H70.392V50.994L68.52 51.426V47.49L70.392 47.01V41.538L68.52 42.018V38.13L70.392 37.65V30.162H71.592ZM71.592 41.25V46.722L74.136 46.05V40.578L71.592 41.25Z" fill="#1E1618"/>
<path d="M81.192 44.562V51.762L83.736 51.09V43.65H84.936V50.85L86.76 50.37V54.258L84.936 54.69V60.21L86.76 59.73V63.714L84.936 64.194V71.298H83.736V64.482L81.192 65.106V72.546H79.992V65.394L78.12 65.826V61.89L79.992 61.41V55.938L78.12 56.418V52.53L79.992 52.05V44.562H81.192ZM81.192 55.65V61.122L83.736 60.45V54.978L81.192 55.65Z" fill="#1E1618"/>
<path d="M90.792 25.362V32.562L93.336 31.89V24.45H94.536V31.65L96.36 31.17V35.058L94.536 35.49V41.01L96.36 40.53V44.514L94.536 44.994V52.098H93.336V45.282L90.792 45.906V53.346H89.592V46.194L87.72 46.626V42.69L89.592 42.21V36.738L87.72 37.218V33.33L89.592 32.85V25.362H90.792ZM90.792 36.45V41.922L93.336 41.25V35.778L90.792 36.45Z" fill="#1E1618"/>
</svg>
