<svg width="128" height="128" viewBox="0 0 128 128" fill="none" xmlns="http://www.w3.org/2000/svg">
<path d="M103.104 82.05H24V83.01H103.104V82.05Z" fill="#1E1618"/>
<path d="M103.104 72.45H24V73.41H103.104V72.45Z" fill="#1E1618"/>
<path d="M103.104 62.85H24V63.81H103.104V62.85Z" fill="#1E1618"/>
<path d="M103.104 53.25H24V54.21H103.104V53.25Z" fill="#1E1618"/>
<path d="M103.104 43.65H24V44.61H103.104V43.65Z" fill="#1E1618"/>
<path d="M46.528 32.802C47.2 34.05 47.792 35.586 48.304 37.41C48.816 39.17 49.104 40.818 49.168 42.354C49.008 47.794 46.896 52.578 42.832 56.706L44.08 63.138L45.568 62.994C48.064 63.058 50.08 64.002 51.616 65.826C53.12 67.65 53.888 69.826 53.92 72.354C53.888 74.434 53.312 76.21 52.192 77.682C51.072 79.186 49.584 80.386 47.728 81.282L49.312 89.058L49.408 90.834C49.28 94.866 47.088 97.17 42.832 97.746C41.168 97.906 39.616 97.49 38.176 96.498C36.736 95.506 35.888 94.146 35.632 92.418C35.568 91.202 35.856 90.114 36.496 89.154C37.168 88.226 38.08 87.666 39.232 87.474C40.256 87.378 41.152 87.698 41.92 88.434C42.688 89.138 43.104 90.034 43.168 91.122C43.136 92.594 42.64 93.602 41.68 94.146C40.72 94.722 39.904 94.93 39.232 94.77C39.36 95.41 39.824 95.874 40.624 96.162L42.736 96.45C46.256 95.906 48.048 94.002 48.112 90.738C48.144 89.874 48.048 88.946 47.824 87.954L46.48 81.81L43.024 82.338C39.632 82.242 36.768 80.994 34.432 78.594C32.096 76.194 30.752 73.138 30.4 69.426C30.272 65.714 31.312 62.402 33.52 59.49C35.728 56.61 38.08 53.986 40.576 51.618C39.84 48.834 39.456 46.002 39.424 43.122C39.424 41.17 39.856 38.914 40.72 36.354C41.584 33.762 42.912 32.034 44.704 31.17C45.248 31.042 45.856 31.586 46.528 32.802ZM45.424 36.834C43.856 37.314 42.736 38.546 42.064 40.53C41.392 42.482 41.04 44.242 41.008 45.81C41.04 47.442 41.264 49.026 41.68 50.562C43.248 49.25 44.624 47.602 45.808 45.618C46.96 43.602 47.52 41.49 47.488 39.282C47.488 38.642 47.312 38.082 46.96 37.602C46.608 37.122 46.096 36.866 45.424 36.834ZM41.008 69.714C40.24 70.674 39.856 71.762 39.856 72.978C40.016 74.994 41.008 76.386 42.832 77.154L43.12 77.538L42.592 77.922C41.12 77.378 39.92 76.482 38.992 75.234C38.064 73.954 37.6 72.498 37.6 70.866C37.664 69.234 38.208 67.73 39.232 66.354C40.256 65.01 41.504 64.05 42.976 63.474L41.824 57.666C39.68 59.458 37.744 61.49 36.016 63.762C34.288 66.002 33.36 68.594 33.232 71.538C33.328 74.578 34.384 76.93 36.4 78.594C38.448 80.29 40.912 81.09 43.792 80.994L46.288 80.514L43.792 67.746C42.672 68.098 41.744 68.754 41.008 69.714ZM44.944 67.602L47.488 80.13C49.984 78.754 51.248 76.61 51.28 73.698C51.12 71.874 50.464 70.418 49.312 69.33C48.16 68.21 46.704 67.634 44.944 67.602Z" fill="#1E1618"/>
<path d="M64.672 58.674C65.664 57.81 66.8 57.33 68.08 57.234C68.88 57.234 69.584 57.554 70.192 58.194C70.8 58.802 71.104 59.554 71.104 60.45C71.008 61.602 70.56 62.61 69.76 63.474L67.264 65.73L63.52 69.378V43.65H64.672V58.674ZM66.784 58.722C66.304 58.69 65.84 58.882 65.392 59.298C64.944 59.746 64.704 60.114 64.672 60.402V66.882L66.928 64.05C67.76 62.962 68.208 61.874 68.272 60.786C68.176 59.57 67.68 58.882 66.784 58.722Z" fill="#1E1618"/>
<path d="M74.272 44.274C75.264 43.41 76.4 42.93 77.68 42.834C78.48 42.834 79.184 43.154 79.792 43.794C80.4 44.402 80.704 45.154 80.704 46.05C80.608 47.202 80.16 48.21 79.36 49.074L76.864 51.33L73.12 54.978V29.25H74.272V44.274ZM76.384 44.322C75.904 44.29 75.44 44.482 74.992 44.898C74.544 45.346 74.304 45.714 74.272 46.002V52.482L76.528 49.65C77.36 48.562 77.808 47.474 77.872 46.386C77.776 45.17 77.28 44.482 76.384 44.322Z" fill="#1E1618"/>
<path d="M83.872 63.474C84.864 62.61 86 62.13 87.28 62.034C88.08 62.034 88.784 62.354 89.392 62.994C90 63.602 90.304 64.354 90.304 65.25C90.208 66.402 89.76 67.41 88.96 68.274L86.464 70.53L82.72 74.178V48.45H83.872V63.474ZM85.984 63.522C85.504 63.49 85.04 63.682 84.592 64.098C84.144 64.546 83.904 64.914 83.872 65.202V71.682L86.128 68.85C86.96 67.762 87.408 66.674 87.472 65.586C87.376 64.37 86.88 63.682 85.984 63.522Z" fill="#1E1618"/>
<path d="M93.472 49.074C94.464 48.21 95.6 47.73 96.88 47.634C97.68 47.634 98.384 47.954 98.992 48.594C99.6 49.202 99.904 49.954 99.904 50.85C99.808 52.002 99.36 53.01 98.56 53.874L96.064 56.13L92.32 59.778V34.05H93.472V49.074ZM95.584 49.122C95.104 49.09 94.64 49.282 94.192 49.698C93.744 50.146 93.504 50.514 93.472 50.802V57.282L95.728 54.45C96.56 53.362 97.008 52.274 97.072 51.186C96.976 49.97 96.48 49.282 95.584 49.122Z" fill="#1E1618"/>
</svg>
