<svg width="128" height="128" viewBox="0 0 128 128" fill="none" xmlns="http://www.w3.org/2000/svg">
<path d="M108.76 82.05H19V83.01H108.76V82.05Z" fill="#1E1618"/>
<path d="M108.76 72.45H19V73.41H108.76V72.45Z" fill="#1E1618"/>
<path d="M108.76 62.85H19V63.81H108.76V62.85Z" fill="#1E1618"/>
<path d="M108.76 53.25H19V54.21H108.76V53.25Z" fill="#1E1618"/>
<path d="M108.76 43.65H19V44.61H108.76V43.65Z" fill="#1E1618"/>
<path d="M41.528 32.802C42.2 34.05 42.792 35.586 43.304 37.41C43.816 39.17 44.104 40.818 44.168 42.354C44.008 47.794 41.896 52.578 37.832 56.706L39.08 63.138L40.568 62.994C43.064 63.058 45.08 64.002 46.616 65.826C48.12 67.65 48.888 69.826 48.92 72.354C48.888 74.434 48.312 76.21 47.192 77.682C46.072 79.186 44.584 80.386 42.728 81.282L44.312 89.058L44.408 90.834C44.28 94.866 42.088 97.17 37.832 97.746C36.168 97.906 34.616 97.49 33.176 96.498C31.736 95.506 30.888 94.146 30.632 92.418C30.568 91.202 30.856 90.114 31.496 89.154C32.168 88.226 33.08 87.666 34.232 87.474C35.256 87.378 36.152 87.698 36.92 88.434C37.688 89.138 38.104 90.034 38.168 91.122C38.136 92.594 37.64 93.602 36.68 94.146C35.72 94.722 34.904 94.93 34.232 94.77C34.36 95.41 34.824 95.874 35.624 96.162L37.736 96.45C41.256 95.906 43.048 94.002 43.112 90.738C43.144 89.874 43.048 88.946 42.824 87.954L41.48 81.81L38.024 82.338C34.632 82.242 31.768 80.994 29.432 78.594C27.096 76.194 25.752 73.138 25.4 69.426C25.272 65.714 26.312 62.402 28.52 59.49C30.728 56.61 33.08 53.986 35.576 51.618C34.84 48.834 34.456 46.002 34.424 43.122C34.424 41.17 34.856 38.914 35.72 36.354C36.584 33.762 37.912 32.034 39.704 31.17C40.248 31.042 40.856 31.586 41.528 32.802ZM40.424 36.834C38.856 37.314 37.736 38.546 37.064 40.53C36.392 42.482 36.04 44.242 36.008 45.81C36.04 47.442 36.264 49.026 36.68 50.562C38.248 49.25 39.624 47.602 40.808 45.618C41.96 43.602 42.52 41.49 42.488 39.282C42.488 38.642 42.312 38.082 41.96 37.602C41.608 37.122 41.096 36.866 40.424 36.834ZM36.008 69.714C35.24 70.674 34.856 71.762 34.856 72.978C35.016 74.994 36.008 76.386 37.832 77.154L38.12 77.538L37.592 77.922C36.12 77.378 34.92 76.482 33.992 75.234C33.064 73.954 32.6 72.498 32.6 70.866C32.664 69.234 33.208 67.73 34.232 66.354C35.256 65.01 36.504 64.05 37.976 63.474L36.824 57.666C34.68 59.458 32.744 61.49 31.016 63.762C29.288 66.002 28.36 68.594 28.232 71.538C28.328 74.578 29.384 76.93 31.4 78.594C33.448 80.29 35.912 81.09 38.792 80.994L41.288 80.514L38.792 67.746C37.672 68.098 36.744 68.754 36.008 69.714ZM39.944 67.602L42.488 80.13C44.984 78.754 46.248 76.61 46.28 73.698C46.12 71.874 45.464 70.418 44.312 69.33C43.16 68.21 41.704 67.634 39.944 67.602Z" fill="#1E1618"/>
<path d="M61.592 30.162V37.362L64.136 36.69V29.25H65.336V36.45L67.16 35.97V39.858L65.336 40.29V45.81L67.16 45.33V49.314L65.336 49.794V56.898H64.136V50.082L61.592 50.706V58.146H60.392V50.994L58.52 51.426V47.49L60.392 47.01V41.538L58.52 42.018V38.13L60.392 37.65V30.162H61.592ZM61.592 41.25V46.722L64.136 46.05V40.578L61.592 41.25Z" fill="#1E1618"/>
<path d="M71.192 44.562V51.762L73.736 51.09V43.65H74.936V50.85L76.76 50.37V54.258L74.936 54.69V60.21L76.76 59.73V63.714L74.936 64.194V71.298H73.736V64.482L71.192 65.106V72.546H69.992V65.394L68.12 65.826V61.89L69.992 61.41V55.938L68.12 56.418V52.53L69.992 52.05V44.562H71.192ZM71.192 55.65V61.122L73.736 60.45V54.978L71.192 55.65Z" fill="#1E1618"/>
<path d="M80.792 25.362V32.562L83.336 31.89V24.45H84.536V31.65L86.36 31.17V35.058L84.536 35.49V41.01L86.36 40.53V44.514L84.536 44.994V52.098H83.336V45.282L80.792 45.906V53.346H79.592V46.194L77.72 46.626V42.69L79.592 42.21V36.738L77.72 37.218V33.33L79.592 32.85V25.362H80.792ZM80.792 36.45V41.922L83.336 41.25V35.778L80.792 36.45Z" fill="#1E1618"/>
<path d="M90.392 39.762V46.962L92.936 46.29V38.85H94.136V46.05L95.96 45.57V49.458L94.136 49.89V55.41L95.96 54.93V58.914L94.136 59.394V66.498H92.936V59.682L90.392 60.306V67.746H89.192V60.594L87.32 61.026V57.09L89.192 56.61V51.138L87.32 51.618V47.73L89.192 47.25V39.762H90.392ZM90.392 50.85V56.322L92.936 55.65V50.178L90.392 50.85Z" fill="#1E1618"/>
<path d="M99.992 54.162V61.362L102.536 60.69V53.25H103.736V60.45L105.56 59.97V63.858L103.736 64.29V69.81L105.56 69.33V73.314L103.736 73.794V80.898H102.536V74.082L99.992 74.706V82.146H98.792V74.994L96.92 75.426V71.49L98.792 71.01V65.538L96.92 66.018V62.13L98.792 61.65V54.162H99.992ZM99.992 65.25V70.722L102.536 70.05V64.578L99.992 65.25Z" fill="#1E1618"/>
</svg>
