<svg width="111" height="74" viewBox="0 0 111 74" fill="none" xmlns="http://www.w3.org/2000/svg">
<path d="M108.96 57.6H0V58.56H108.96V57.6Z" fill="#1E1618"/>
<path d="M108.96 48H0V48.96H108.96V48Z" fill="#1E1618"/>
<path d="M108.96 38.4H0V39.36H108.96V38.4Z" fill="#1E1618"/>
<path d="M108.96 28.8H0V29.76H108.96V28.8Z" fill="#1E1618"/>
<path d="M108.96 19.2H0V20.16H108.96V19.2Z" fill="#1E1618"/>
<path d="M22.528 8.35195C23.2 9.59995 23.792 11.1359 24.304 12.9599C24.816 14.7199 25.104 16.3679 25.168 17.9039C25.008 23.3439 22.896 28.1279 18.832 32.2559L20.08 38.6879L21.568 38.5439C24.064 38.6079 26.08 39.5519 27.616 41.3759C29.12 43.1999 29.888 45.3759 29.92 47.9039C29.888 49.9839 29.312 51.7599 28.192 53.2319C27.072 54.7359 25.584 55.9359 23.728 56.8319L25.312 64.6079L25.408 66.3839C25.28 70.4159 23.088 72.7199 18.832 73.2959C17.168 73.4559 15.616 73.0399 14.176 72.0479C12.736 71.0559 11.888 69.6959 11.632 67.9679C11.568 66.7519 11.856 65.6639 12.496 64.7039C13.168 63.7759 14.08 63.2159 15.232 63.0239C16.256 62.9279 17.152 63.2479 17.92 63.9839C18.688 64.6879 19.104 65.5839 19.168 66.6719C19.136 68.1439 18.64 69.1519 17.68 69.6959C16.72 70.2719 15.904 70.4799 15.232 70.3199C15.36 70.9599 15.824 71.4239 16.624 71.7119L18.736 71.9999C22.256 71.4559 24.048 69.5519 24.112 66.2879C24.144 65.4239 24.048 64.4959 23.824 63.5039L22.48 57.3599L19.024 57.8879C15.632 57.7919 12.768 56.5439 10.432 54.1439C8.09605 51.7439 6.75205 48.6879 6.40005 44.9759C6.27205 41.2639 7.31205 37.9519 9.52005 35.0399C11.728 32.1599 14.08 29.5359 16.576 27.1679C15.84 24.3839 15.456 21.5519 15.424 18.6719C15.424 16.7199 15.856 14.4639 16.72 11.9039C17.584 9.31195 18.912 7.58395 20.704 6.71995C21.248 6.59195 21.856 7.13595 22.528 8.35195ZM21.424 12.3839C19.856 12.8639 18.736 14.0959 18.064 16.0799C17.392 18.0319 17.04 19.7919 17.008 21.3599C17.04 22.9919 17.264 24.5759 17.68 26.1119C19.248 24.7999 20.624 23.1519 21.808 21.1679C22.96 19.1519 23.52 17.0399 23.488 14.8319C23.488 14.1919 23.312 13.6319 22.96 13.1519C22.608 12.6719 22.096 12.4159 21.424 12.3839ZM17.008 45.2639C16.24 46.2239 15.856 47.3119 15.856 48.5279C16.016 50.5439 17.008 51.9359 18.832 52.7039L19.12 53.0879L18.592 53.4719C17.12 52.9279 15.92 52.0319 14.992 50.7839C14.064 49.5039 13.6 48.0479 13.6 46.4159C13.664 44.7839 14.208 43.2799 15.232 41.9039C16.256 40.5599 17.504 39.5999 18.976 39.0239L17.824 33.2159C15.68 35.0079 13.744 37.0399 12.016 39.3119C10.288 41.5519 9.36005 44.1439 9.23205 47.0879C9.32805 50.1279 10.384 52.4799 12.4 54.1439C14.448 55.8399 16.912 56.6399 19.792 56.5439L22.288 56.0639L19.792 43.2959C18.672 43.6479 17.744 44.3039 17.008 45.2639ZM20.944 43.1519L23.488 55.6799C25.984 54.3039 27.248 52.1599 27.28 49.2479C27.12 47.4239 26.464 45.9679 25.312 44.8799C24.16 43.7599 22.704 43.1839 20.944 43.1519Z" fill="#1E1618"/>
<path d="M42.5919 5.71199V12.912L45.1359 12.24V4.79999H46.3359V12L48.1599 11.52V15.408L46.3359 15.84V21.36L48.1599 20.88V24.864L46.3359 25.344V32.448H45.1359V25.632L42.5919 26.256V33.696H41.3919V26.544L39.5199 26.976V23.04L41.3919 22.56V17.088L39.5199 17.568V13.68L41.3919 13.2V5.71199H42.5919ZM42.5919 16.8V22.272L45.1359 21.6V16.128L42.5919 16.8Z" fill="#1E1618"/>
<path d="M52.1919 20.112V27.312L54.7359 26.64V19.2H55.9359V26.4L57.7599 25.92V29.808L55.9359 30.24V35.76L57.7599 35.28V39.264L55.9359 39.7439V46.8479H54.7359V40.032L52.1919 40.656V48.096H50.9919V40.944L49.1199 41.376V37.44L50.9919 36.96V31.488L49.1199 31.968V28.08L50.9919 27.6V20.112H52.1919ZM52.1919 31.2V36.672L54.7359 36V30.528L52.1919 31.2Z" fill="#1E1618"/>
<path d="M61.7918 0.912V8.112L64.3358 7.44V0H65.5358V7.2L67.3598 6.72V10.608L65.5358 11.04V16.56L67.3598 16.08V20.064L65.5358 20.544V27.648H64.3358V20.832L61.7918 21.456V28.896H60.5918V21.744L58.7198 22.176V18.24L60.5918 17.76V12.288L58.7198 12.768V8.88L60.5918 8.4V0.912H61.7918ZM61.7918 12V17.472L64.3358 16.8V11.328L61.7918 12Z" fill="#1E1618"/>
<path d="M71.3919 15.312V22.512L73.9359 21.84V14.4H75.1359V21.6L76.9599 21.12V25.008L75.1359 25.44V30.96L76.9599 30.48V34.464L75.1359 34.944V42.048H73.9359V35.232L71.3919 35.856V43.296H70.1919V36.144L68.3199 36.576V32.64L70.1919 32.16V26.688L68.3199 27.168V23.28L70.1919 22.8V15.312H71.3919ZM71.3919 26.4V31.872L73.9359 31.2V25.728L71.3919 26.4Z" fill="#1E1618"/>
<path d="M80.9919 29.712V36.912L83.5359 36.24V28.8H84.7359V36L86.5599 35.52V39.408L84.7359 39.84V45.36L86.5599 44.88V48.864L84.7359 49.344V56.448H83.5359V49.632L80.9919 50.256V57.696H79.7919V50.544L77.9199 50.976V47.04L79.7919 46.56V41.088L77.9199 41.568V37.68L79.7919 37.2V29.712H80.9919ZM80.9919 40.8V46.272L83.5359 45.6V40.128L80.9919 40.8Z" fill="#1E1618"/>
<path d="M90.5919 10.512V17.712L93.1359 17.04V9.59998H94.3359V16.8L96.1599 16.32V20.208L94.3359 20.64V26.16L96.1599 25.68V29.664L94.3359 30.144V37.248H93.1359V30.432L90.5919 31.056V38.496H89.3919V31.344L87.5199 31.776V27.84L89.3919 27.36V21.888L87.5199 22.368V18.48L89.3919 18V10.512H90.5919ZM90.5919 21.6V27.072L93.1359 26.4V20.928L90.5919 21.6Z" fill="#1E1618"/>
<path d="M100.192 24.912V32.112L102.736 31.44V24H103.936V31.2L105.76 30.72V34.608L103.936 35.04V40.56L105.76 40.08V44.064L103.936 44.544V51.648H102.736V44.832L100.192 45.456V52.896H98.9919V45.744L97.1199 46.176V42.24L98.9919 41.76V36.288L97.1199 36.768V32.88L98.9919 32.4V24.912H100.192ZM100.192 36V41.472L102.736 40.8V35.328L100.192 36Z" fill="#1E1618"/>
</svg>
