<svg width="128" height="128" viewBox="0 0 128 128" fill="none" xmlns="http://www.w3.org/2000/svg">
<path d="M89.36 82.0483H38V83.0083H89.36V82.0483Z" fill="#1E1618"/>
<path d="M89.36 72.4484H38V73.4084H89.36V72.4484Z" fill="#1E1618"/>
<path d="M89.36 62.8484H38V63.8084H89.36V62.8484Z" fill="#1E1618"/>
<path d="M89.36 53.2484H38V54.2084H89.36V53.2484Z" fill="#1E1618"/>
<path d="M89.36 43.6483H38V44.6083H89.36V43.6483Z" fill="#1E1618"/>
<path d="M60.528 32.8003C61.2 34.0483 61.792 35.5843 62.304 37.4083C62.816 39.1683 63.104 40.8163 63.168 42.3523C63.008 47.7923 60.896 52.5763 56.832 56.7043L58.08 63.1363L59.568 62.9923C62.064 63.0563 64.08 64.0003 65.616 65.8243C67.12 67.6483 67.888 69.8243 67.92 72.3523C67.888 74.4323 67.312 76.2083 66.192 77.6803C65.072 79.1843 63.584 80.3843 61.728 81.2803L63.312 89.0563L63.408 90.8323C63.28 94.8643 61.088 97.1683 56.832 97.7443C55.168 97.9043 53.616 97.4883 52.176 96.4963C50.736 95.5043 49.888 94.1443 49.632 92.4163C49.568 91.2003 49.856 90.1123 50.496 89.1523C51.168 88.2243 52.08 87.6643 53.232 87.4723C54.256 87.3763 55.152 87.6963 55.92 88.4323C56.688 89.1363 57.104 90.0323 57.168 91.1203C57.136 92.5923 56.64 93.6003 55.68 94.1443C54.72 94.7203 53.904 94.9283 53.232 94.7683C53.36 95.4083 53.824 95.8723 54.624 96.1603L56.736 96.4483C60.256 95.9043 62.048 94.0003 62.112 90.7363C62.144 89.8723 62.048 88.9443 61.824 87.9523L60.48 81.8083L57.024 82.3363C53.632 82.2403 50.768 80.9923 48.432 78.5923C46.096 76.1923 44.752 73.1363 44.4 69.4243C44.272 65.7123 45.312 62.4003 47.52 59.4883C49.728 56.6083 52.08 53.9843 54.576 51.6163C53.84 48.8323 53.456 46.0003 53.424 43.1203C53.424 41.1683 53.856 38.9123 54.72 36.3523C55.584 33.7603 56.912 32.0323 58.704 31.1683C59.248 31.0403 59.856 31.5843 60.528 32.8003ZM59.424 36.8323C57.856 37.3123 56.736 38.5443 56.064 40.5283C55.392 42.4803 55.04 44.2403 55.008 45.8083C55.04 47.4403 55.264 49.0243 55.68 50.5603C57.248 49.2483 58.624 47.6003 59.808 45.6163C60.96 43.6003 61.52 41.4883 61.488 39.2803C61.488 38.6403 61.312 38.0803 60.96 37.6003C60.608 37.1203 60.096 36.8643 59.424 36.8323ZM55.008 69.7123C54.24 70.6723 53.856 71.7603 53.856 72.9763C54.016 74.9923 55.008 76.3843 56.832 77.1523L57.12 77.5363L56.592 77.9203C55.12 77.3763 53.92 76.4803 52.992 75.2323C52.064 73.9523 51.6 72.4963 51.6 70.8643C51.664 69.2323 52.208 67.7283 53.232 66.3523C54.256 65.0083 55.504 64.0483 56.976 63.4723L55.824 57.6643C53.68 59.4563 51.744 61.4883 50.016 63.7603C48.288 66.0003 47.36 68.5923 47.232 71.5363C47.328 74.5763 48.384 76.9283 50.4 78.5923C52.448 80.2883 54.912 81.0883 57.792 80.9923L60.288 80.5123L57.792 67.7443C56.672 68.0963 55.744 68.7523 55.008 69.7123ZM58.944 67.6003L61.488 80.1283C63.984 78.7523 65.248 76.6083 65.28 73.6963C65.12 71.8723 64.464 70.4163 63.312 69.3283C62.16 68.2083 60.704 67.6323 58.944 67.6003Z" fill="#1E1618"/>
</svg>
