<svg width="52" height="67" viewBox="0 0 52 67" fill="none" xmlns="http://www.w3.org/2000/svg">
<path d="M51.36 50.8983H0V51.8583H51.36V50.8983Z" fill="#1E1618"/>
<path d="M51.36 41.2983H0V42.2583H51.36V41.2983Z" fill="#1E1618"/>
<path d="M51.36 31.6984H0V32.6584H51.36V31.6984Z" fill="#1E1618"/>
<path d="M51.36 22.0983H0V23.0583H51.36V22.0983Z" fill="#1E1618"/>
<path d="M51.36 12.4983H0V13.4583H51.36V12.4983Z" fill="#1E1618"/>
<path d="M22.528 1.65029C23.2 2.89829 23.792 4.43429 24.304 6.25829C24.816 8.01829 25.104 9.66629 25.168 11.2023C25.008 16.6423 22.896 21.4263 18.832 25.5543L20.08 31.9863L21.568 31.8423C24.064 31.9063 26.08 32.8503 27.616 34.6743C29.12 36.4983 29.888 38.6743 29.92 41.2023C29.888 43.2823 29.312 45.0583 28.192 46.5303C27.072 48.0343 25.584 49.2343 23.728 50.1303L25.312 57.9063L25.408 59.6823C25.28 63.7143 23.088 66.0183 18.832 66.5943C17.168 66.7543 15.616 66.3383 14.176 65.3463C12.736 64.3543 11.888 62.9943 11.632 61.2663C11.568 60.0503 11.856 58.9623 12.496 58.0023C13.168 57.0743 14.08 56.5143 15.232 56.3223C16.256 56.2263 17.152 56.5463 17.92 57.2823C18.688 57.9863 19.104 58.8823 19.168 59.9703C19.136 61.4423 18.64 62.4503 17.68 62.9943C16.72 63.5703 15.904 63.7783 15.232 63.6183C15.36 64.2583 15.824 64.7223 16.624 65.0103L18.736 65.2983C22.256 64.7543 24.048 62.8503 24.112 59.5863C24.144 58.7223 24.048 57.7943 23.824 56.8023L22.48 50.6583L19.024 51.1863C15.632 51.0903 12.768 49.8423 10.432 47.4423C8.09599 45.0423 6.75199 41.9863 6.39999 38.2743C6.27199 34.5623 7.31199 31.2503 9.51999 28.3383C11.728 25.4583 14.08 22.8343 16.576 20.4663C15.84 17.6823 15.456 14.8503 15.424 11.9703C15.424 10.0183 15.856 7.76229 16.72 5.20229C17.584 2.61029 18.912 0.882286 20.704 0.0182857C21.248 -0.109714 21.856 0.434286 22.528 1.65029ZM21.424 5.68229C19.856 6.16229 18.736 7.39429 18.064 9.37829C17.392 11.3303 17.04 13.0903 17.008 14.6583C17.04 16.2903 17.264 17.8743 17.68 19.4103C19.248 18.0983 20.624 16.4503 21.808 14.4663C22.96 12.4503 23.52 10.3383 23.488 8.13029C23.488 7.49029 23.312 6.93029 22.96 6.45029C22.608 5.97029 22.096 5.71429 21.424 5.68229ZM17.008 38.5623C16.24 39.5223 15.856 40.6103 15.856 41.8263C16.016 43.8423 17.008 45.2343 18.832 46.0023L19.12 46.3863L18.592 46.7703C17.12 46.2263 15.92 45.3303 14.992 44.0823C14.064 42.8023 13.6 41.3463 13.6 39.7143C13.664 38.0823 14.208 36.5783 15.232 35.2023C16.256 33.8583 17.504 32.8983 18.976 32.3223L17.824 26.5143C15.68 28.3063 13.744 30.3383 12.016 32.6103C10.288 34.8503 9.35999 37.4423 9.23199 40.3863C9.32799 43.4263 10.384 45.7783 12.4 47.4423C14.448 49.1383 16.912 49.9383 19.792 49.8423L22.288 49.3623L19.792 36.5943C18.672 36.9463 17.744 37.6023 17.008 38.5623ZM20.944 36.4503L23.488 48.9783C25.984 47.6023 27.248 45.4583 27.28 42.5463C27.12 40.7223 26.464 39.2663 25.312 38.1783C24.16 37.0583 22.704 36.4823 20.944 36.4503Z" fill="#1E1618"/>
</svg>
