<svg width="128" height="128" viewBox="0 0 128 128" fill="none" xmlns="http://www.w3.org/2000/svg">
<path d="M116.904 82.05H9V83.01H116.904V82.05Z" fill="#1E1618"/>
<path d="M116.904 72.45H9V73.41H116.904V72.45Z" fill="#1E1618"/>
<path d="M116.904 62.85H9V63.81H116.904V62.85Z" fill="#1E1618"/>
<path d="M116.904 53.25H9V54.21H116.904V53.25Z" fill="#1E1618"/>
<path d="M116.904 43.65H9V44.61H116.904V43.65Z" fill="#1E1618"/>
<path d="M31.528 32.802C32.2 34.05 32.792 35.586 33.304 37.41C33.816 39.17 34.104 40.818 34.168 42.354C34.008 47.794 31.896 52.578 27.832 56.706L29.08 63.138L30.568 62.994C33.064 63.058 35.08 64.002 36.616 65.826C38.12 67.65 38.888 69.826 38.92 72.354C38.888 74.434 38.312 76.21 37.192 77.682C36.072 79.186 34.584 80.386 32.728 81.282L34.312 89.058L34.408 90.834C34.28 94.866 32.088 97.17 27.832 97.746C26.168 97.906 24.616 97.49 23.176 96.498C21.736 95.506 20.888 94.146 20.632 92.418C20.568 91.202 20.856 90.114 21.496 89.154C22.168 88.226 23.08 87.666 24.232 87.474C25.256 87.378 26.152 87.698 26.92 88.434C27.688 89.138 28.104 90.034 28.168 91.122C28.136 92.594 27.64 93.602 26.68 94.146C25.72 94.722 24.904 94.93 24.232 94.77C24.36 95.41 24.824 95.874 25.624 96.162L27.736 96.45C31.256 95.906 33.048 94.002 33.112 90.738C33.144 89.874 33.048 88.946 32.824 87.954L31.48 81.81L28.024 82.338C24.632 82.242 21.768 80.994 19.432 78.594C17.096 76.194 15.752 73.138 15.4 69.426C15.272 65.714 16.312 62.402 18.52 59.49C20.728 56.61 23.08 53.986 25.576 51.618C24.84 48.834 24.456 46.002 24.424 43.122C24.424 41.17 24.856 38.914 25.72 36.354C26.584 33.762 27.912 32.034 29.704 31.17C30.248 31.042 30.856 31.586 31.528 32.802ZM30.424 36.834C28.856 37.314 27.736 38.546 27.064 40.53C26.392 42.482 26.04 44.242 26.008 45.81C26.04 47.442 26.264 49.026 26.68 50.562C28.248 49.25 29.624 47.602 30.808 45.618C31.96 43.602 32.52 41.49 32.488 39.282C32.488 38.642 32.312 38.082 31.96 37.602C31.608 37.122 31.096 36.866 30.424 36.834ZM26.008 69.714C25.24 70.674 24.856 71.762 24.856 72.978C25.016 74.994 26.008 76.386 27.832 77.154L28.12 77.538L27.592 77.922C26.12 77.378 24.92 76.482 23.992 75.234C23.064 73.954 22.6 72.498 22.6 70.866C22.664 69.234 23.208 67.73 24.232 66.354C25.256 65.01 26.504 64.05 27.976 63.474L26.824 57.666C24.68 59.458 22.744 61.49 21.016 63.762C19.288 66.002 18.36 68.594 18.232 71.538C18.328 74.578 19.384 76.93 21.4 78.594C23.448 80.29 25.912 81.09 28.792 80.994L31.288 80.514L28.792 67.746C27.672 68.098 26.744 68.754 26.008 69.714ZM29.944 67.602L32.488 80.13C34.984 78.754 36.248 76.61 36.28 73.698C36.12 71.874 35.464 70.418 34.312 69.33C33.16 68.21 31.704 67.634 29.944 67.602Z" fill="#1E1618"/>
<path d="M49.6719 58.674C50.6639 57.81 51.7999 57.33 53.0799 57.234C53.8799 57.234 54.5839 57.554 55.1919 58.194C55.7999 58.802 56.1039 59.554 56.1039 60.45C56.0079 61.602 55.5599 62.61 54.7599 63.474L52.2639 65.73L48.5199 69.378V43.65H49.6719V58.674ZM51.7839 58.722C51.3039 58.69 50.8399 58.882 50.3919 59.298C49.9439 59.746 49.7039 60.114 49.6719 60.402V66.882L51.9279 64.05C52.7599 62.962 53.2079 61.874 53.2719 60.786C53.1759 59.57 52.6799 58.882 51.7839 58.722Z" fill="#1E1618"/>
<path d="M59.2719 44.274C60.2639 43.41 61.3999 42.93 62.6799 42.834C63.4799 42.834 64.1839 43.154 64.7919 43.794C65.3999 44.402 65.7039 45.154 65.7039 46.05C65.6079 47.202 65.1599 48.21 64.3599 49.074L61.8639 51.33L58.1199 54.978V29.25H59.2719V44.274ZM61.3839 44.322C60.9039 44.29 60.4399 44.482 59.9919 44.898C59.5439 45.346 59.3039 45.714 59.2719 46.002V52.482L61.5279 49.65C62.3599 48.562 62.8079 47.474 62.8719 46.386C62.7759 45.17 62.2799 44.482 61.3839 44.322Z" fill="#1E1618"/>
<path d="M68.8718 63.474C69.8638 62.61 70.9998 62.13 72.2798 62.034C73.0798 62.034 73.7838 62.354 74.3918 62.994C74.9998 63.602 75.3038 64.354 75.3038 65.25C75.2078 66.402 74.7598 67.41 73.9598 68.274L71.4638 70.53L67.7198 74.178V48.45H68.8718V63.474ZM70.9838 63.522C70.5038 63.49 70.0398 63.682 69.5918 64.098C69.1438 64.546 68.9038 64.914 68.8718 65.202V71.682L71.1278 68.85C71.9598 67.762 72.4078 66.674 72.4718 65.586C72.3758 64.37 71.8798 63.682 70.9838 63.522Z" fill="#1E1618"/>
<path d="M78.4719 49.074C79.4639 48.21 80.5999 47.73 81.8799 47.634C82.6799 47.634 83.3839 47.954 83.9919 48.594C84.5999 49.202 84.9039 49.954 84.9039 50.85C84.8079 52.002 84.3599 53.01 83.5599 53.874L81.0639 56.13L77.3199 59.778V34.05H78.4719V49.074ZM80.5839 49.122C80.1039 49.09 79.6399 49.282 79.1919 49.698C78.7439 50.146 78.5039 50.514 78.4719 50.802V57.282L80.7279 54.45C81.5599 53.362 82.0079 52.274 82.0719 51.186C81.9759 49.97 81.4799 49.282 80.5839 49.122Z" fill="#1E1618"/>
<path d="M88.0719 68.274C89.0639 67.41 90.1999 66.93 91.4799 66.834C92.2799 66.834 92.9839 67.154 93.5919 67.794C94.1999 68.402 94.5039 69.154 94.5039 70.05C94.4079 71.202 93.9599 72.21 93.1599 73.074L90.6639 75.33L86.9199 78.978V53.25H88.0719V68.274ZM90.1839 68.322C89.7039 68.29 89.2399 68.482 88.7919 68.898C88.3439 69.346 88.1039 69.714 88.0719 70.002V76.482L90.3279 73.65C91.1599 72.562 91.6079 71.474 91.6719 70.386C91.5759 69.17 91.0799 68.482 90.1839 68.322Z" fill="#1E1618"/>
<path d="M97.6719 53.874C98.6639 53.01 99.7999 52.53 101.08 52.434C101.88 52.434 102.584 52.754 103.192 53.394C103.8 54.002 104.104 54.754 104.104 55.65C104.008 56.802 103.56 57.81 102.76 58.674L100.264 60.93L96.5199 64.578V38.85H97.6719V53.874ZM99.7839 53.922C99.3039 53.89 98.8399 54.082 98.3919 54.498C97.9439 54.946 97.7039 55.314 97.6719 55.602V62.082L99.9279 59.25C100.76 58.162 101.208 57.074 101.272 55.986C101.176 54.77 100.68 54.082 99.7839 53.922Z" fill="#1E1618"/>
<path d="M107.272 73.074C108.264 72.21 109.4 71.73 110.68 71.634C111.48 71.634 112.184 71.954 112.792 72.594C113.4 73.202 113.704 73.954 113.704 74.85C113.608 76.002 113.16 77.01 112.36 77.874L109.864 80.13L106.12 83.778V58.05H107.272V73.074ZM109.384 73.122C108.904 73.09 108.44 73.282 107.992 73.698C107.544 74.146 107.304 74.514 107.272 74.802V81.282L109.528 78.45C110.36 77.362 110.808 76.274 110.872 75.186C110.776 73.97 110.28 73.282 109.384 73.122Z" fill="#1E1618"/>
</svg>
