<svg width="110" height="69" viewBox="0 0 110 69" fill="none" xmlns="http://www.w3.org/2000/svg">
<path d="M107.904 52.8H0V53.76H107.904V52.8Z" fill="#1E1618"/>
<path d="M107.904 43.2H0V44.16H107.904V43.2Z" fill="#1E1618"/>
<path d="M107.904 33.6H0V34.56H107.904V33.6Z" fill="#1E1618"/>
<path d="M107.904 24H0V24.96H107.904V24Z" fill="#1E1618"/>
<path d="M107.904 14.4H0V15.36H107.904V14.4Z" fill="#1E1618"/>
<path d="M22.528 3.55202C23.2 4.80002 23.792 6.33602 24.304 8.16002C24.816 9.92002 25.104 11.568 25.168 13.104C25.008 18.544 22.896 23.328 18.832 27.456L20.08 33.888L21.568 33.744C24.064 33.808 26.08 34.752 27.616 36.576C29.12 38.4 29.888 40.576 29.92 43.104C29.888 45.184 29.312 46.96 28.192 48.432C27.072 49.936 25.584 51.136 23.728 52.032L25.312 59.808L25.408 61.584C25.28 65.616 23.088 67.92 18.832 68.496C17.168 68.656 15.616 68.24 14.176 67.248C12.736 66.256 11.888 64.896 11.632 63.168C11.568 61.952 11.856 60.864 12.496 59.904C13.168 58.976 14.08 58.416 15.232 58.224C16.256 58.128 17.152 58.448 17.92 59.184C18.688 59.888 19.104 60.784 19.168 61.872C19.136 63.344 18.64 64.352 17.68 64.896C16.72 65.472 15.904 65.68 15.232 65.52C15.36 66.16 15.824 66.624 16.624 66.912L18.736 67.2C22.256 66.656 24.048 64.752 24.112 61.488C24.144 60.624 24.048 59.696 23.824 58.704L22.48 52.56L19.024 53.088C15.632 52.992 12.768 51.744 10.432 49.344C8.09605 46.944 6.75205 43.888 6.40005 40.176C6.27205 36.464 7.31205 33.152 9.52005 30.24C11.728 27.36 14.08 24.736 16.576 22.368C15.84 19.584 15.456 16.752 15.424 13.872C15.424 11.92 15.856 9.66402 16.72 7.10402C17.584 4.51202 18.912 2.78402 20.704 1.92002C21.248 1.79202 21.856 2.33602 22.528 3.55202ZM21.424 7.58402C19.856 8.06402 18.736 9.29602 18.064 11.28C17.392 13.232 17.04 14.992 17.008 16.56C17.04 18.192 17.264 19.776 17.68 21.312C19.248 20 20.624 18.352 21.808 16.368C22.96 14.352 23.52 12.24 23.488 10.032C23.488 9.39202 23.312 8.83202 22.96 8.35202C22.608 7.87202 22.096 7.61602 21.424 7.58402ZM17.008 40.464C16.24 41.424 15.856 42.512 15.856 43.728C16.016 45.744 17.008 47.136 18.832 47.904L19.12 48.288L18.592 48.672C17.12 48.128 15.92 47.232 14.992 45.984C14.064 44.704 13.6 43.248 13.6 41.616C13.664 39.984 14.208 38.48 15.232 37.104C16.256 35.76 17.504 34.8 18.976 34.224L17.824 28.416C15.68 30.208 13.744 32.24 12.016 34.512C10.288 36.752 9.36005 39.344 9.23205 42.288C9.32805 45.328 10.384 47.68 12.4 49.344C14.448 51.04 16.912 51.84 19.792 51.744L22.288 51.264L19.792 38.496C18.672 38.848 17.744 39.504 17.008 40.464ZM20.944 38.352L23.488 50.88C25.984 49.504 27.248 47.36 27.28 44.448C27.12 42.624 26.464 41.168 25.312 40.08C24.16 38.96 22.704 38.384 20.944 38.352Z" fill="#1E1618"/>
<path d="M40.6719 29.424C41.6639 28.56 42.7999 28.08 44.0799 27.984C44.8799 27.984 45.5839 28.304 46.1919 28.944C46.7999 29.552 47.1039 30.304 47.1039 31.2C47.0079 32.352 46.5599 33.36 45.7599 34.224L43.2639 36.48L39.5199 40.128V14.4H40.6719V29.424ZM42.7839 29.472C42.3039 29.44 41.8399 29.632 41.3919 30.048C40.9439 30.496 40.7039 30.864 40.6719 31.152V37.632L42.9279 34.8C43.7599 33.712 44.2079 32.624 44.2719 31.536C44.1759 30.32 43.6799 29.632 42.7839 29.472Z" fill="#1E1618"/>
<path d="M50.2719 15.024C51.2639 14.16 52.3999 13.68 53.6799 13.584C54.4799 13.584 55.1839 13.904 55.7919 14.544C56.3999 15.152 56.7039 15.904 56.7039 16.8C56.6079 17.952 56.1599 18.96 55.3599 19.824L52.8639 22.08L49.1199 25.728V0H50.2719V15.024ZM52.3839 15.072C51.9039 15.04 51.4399 15.232 50.9919 15.648C50.5439 16.096 50.3039 16.464 50.2719 16.752V23.232L52.5279 20.4C53.3599 19.312 53.8079 18.224 53.8719 17.136C53.7759 15.92 53.2799 15.232 52.3839 15.072Z" fill="#1E1618"/>
<path d="M59.8718 34.224C60.8638 33.36 61.9998 32.88 63.2798 32.784C64.0798 32.784 64.7838 33.104 65.3918 33.744C65.9998 34.352 66.3038 35.104 66.3038 36C66.2078 37.152 65.7598 38.16 64.9598 39.024L62.4638 41.28L58.7198 44.928V19.2H59.8718V34.224ZM61.9838 34.272C61.5038 34.24 61.0398 34.432 60.5918 34.848C60.1438 35.296 59.9038 35.664 59.8718 35.952V42.432L62.1278 39.6C62.9598 38.512 63.4078 37.424 63.4718 36.336C63.3758 35.12 62.8798 34.432 61.9838 34.272Z" fill="#1E1618"/>
<path d="M69.4719 19.824C70.4639 18.96 71.5999 18.48 72.8799 18.384C73.6799 18.384 74.3839 18.704 74.9919 19.344C75.5999 19.952 75.9039 20.704 75.9039 21.6C75.8079 22.752 75.3599 23.76 74.5599 24.624L72.0639 26.88L68.3199 30.528V4.79999H69.4719V19.824ZM71.5839 19.872C71.1039 19.84 70.6399 20.032 70.1919 20.448C69.7439 20.896 69.5039 21.264 69.4719 21.552V28.032L71.7279 25.2C72.5599 24.112 73.0079 23.024 73.0719 21.936C72.9759 20.72 72.4799 20.032 71.5839 19.872Z" fill="#1E1618"/>
<path d="M79.0719 39.024C80.0639 38.16 81.1999 37.68 82.4799 37.584C83.2799 37.584 83.9839 37.904 84.5919 38.544C85.1999 39.152 85.5039 39.904 85.5039 40.8C85.4079 41.952 84.9599 42.96 84.1599 43.824L81.6639 46.08L77.9199 49.728V24H79.0719V39.024ZM81.1839 39.072C80.7039 39.04 80.2399 39.232 79.7919 39.648C79.3439 40.096 79.1039 40.464 79.0719 40.752V47.232L81.3279 44.4C82.1599 43.312 82.6079 42.224 82.6719 41.136C82.5759 39.92 82.0799 39.232 81.1839 39.072Z" fill="#1E1618"/>
<path d="M88.6719 24.624C89.6639 23.76 90.7999 23.28 92.0799 23.184C92.8799 23.184 93.5839 23.504 94.1919 24.144C94.7999 24.752 95.1039 25.504 95.1039 26.4C95.0079 27.552 94.5599 28.56 93.7599 29.424L91.2639 31.68L87.5199 35.328V9.59998H88.6719V24.624ZM90.7839 24.672C90.3039 24.64 89.8399 24.832 89.3919 25.248C88.9439 25.696 88.7039 26.064 88.6719 26.352V32.832L90.9279 30C91.7599 28.912 92.2079 27.824 92.2719 26.736C92.1759 25.52 91.6799 24.832 90.7839 24.672Z" fill="#1E1618"/>
<path d="M98.2719 43.824C99.2639 42.96 100.4 42.48 101.68 42.384C102.48 42.384 103.184 42.704 103.792 43.344C104.4 43.952 104.704 44.704 104.704 45.6C104.608 46.752 104.16 47.76 103.36 48.624L100.864 50.88L97.1199 54.528V28.8H98.2719V43.824ZM100.384 43.872C99.9039 43.84 99.4399 44.032 98.9919 44.448C98.5439 44.896 98.3039 45.264 98.2719 45.552V52.032L100.528 49.2C101.36 48.112 101.808 47.024 101.872 45.936C101.776 44.72 101.28 44.032 100.384 43.872Z" fill="#1E1618"/>
</svg>
