<svg width="128" height="128" viewBox="0 0 128 128" fill="none" xmlns="http://www.w3.org/2000/svg">
<path d="M117.96 82.05H9V83.01H117.96V82.05Z" fill="#1E1618"/>
<path d="M117.96 72.45H9V73.41H117.96V72.45Z" fill="#1E1618"/>
<path d="M117.96 62.85H9V63.81H117.96V62.85Z" fill="#1E1618"/>
<path d="M117.96 53.25H9V54.21H117.96V53.25Z" fill="#1E1618"/>
<path d="M117.96 43.65H9V44.61H117.96V43.65Z" fill="#1E1618"/>
<path d="M31.528 32.802C32.2 34.05 32.792 35.586 33.304 37.41C33.816 39.17 34.104 40.818 34.168 42.354C34.008 47.794 31.896 52.578 27.832 56.706L29.08 63.138L30.568 62.994C33.064 63.058 35.08 64.002 36.616 65.826C38.12 67.65 38.888 69.826 38.92 72.354C38.888 74.434 38.312 76.21 37.192 77.682C36.072 79.186 34.584 80.386 32.728 81.282L34.312 89.058L34.408 90.834C34.28 94.866 32.088 97.17 27.832 97.746C26.168 97.906 24.616 97.49 23.176 96.498C21.736 95.506 20.888 94.146 20.632 92.418C20.568 91.202 20.856 90.114 21.496 89.154C22.168 88.226 23.08 87.666 24.232 87.474C25.256 87.378 26.152 87.698 26.92 88.434C27.688 89.138 28.104 90.034 28.168 91.122C28.136 92.594 27.64 93.602 26.68 94.146C25.72 94.722 24.904 94.93 24.232 94.77C24.36 95.41 24.824 95.874 25.624 96.162L27.736 96.45C31.256 95.906 33.048 94.002 33.112 90.738C33.144 89.874 33.048 88.946 32.824 87.954L31.48 81.81L28.024 82.338C24.632 82.242 21.768 80.994 19.432 78.594C17.096 76.194 15.752 73.138 15.4 69.426C15.272 65.714 16.312 62.402 18.52 59.49C20.728 56.61 23.08 53.986 25.576 51.618C24.84 48.834 24.456 46.002 24.424 43.122C24.424 41.17 24.856 38.914 25.72 36.354C26.584 33.762 27.912 32.034 29.704 31.17C30.248 31.042 30.856 31.586 31.528 32.802ZM30.424 36.834C28.856 37.314 27.736 38.546 27.064 40.53C26.392 42.482 26.04 44.242 26.008 45.81C26.04 47.442 26.264 49.026 26.68 50.562C28.248 49.25 29.624 47.602 30.808 45.618C31.96 43.602 32.52 41.49 32.488 39.282C32.488 38.642 32.312 38.082 31.96 37.602C31.608 37.122 31.096 36.866 30.424 36.834ZM26.008 69.714C25.24 70.674 24.856 71.762 24.856 72.978C25.016 74.994 26.008 76.386 27.832 77.154L28.12 77.538L27.592 77.922C26.12 77.378 24.92 76.482 23.992 75.234C23.064 73.954 22.6 72.498 22.6 70.866C22.664 69.234 23.208 67.73 24.232 66.354C25.256 65.01 26.504 64.05 27.976 63.474L26.824 57.666C24.68 59.458 22.744 61.49 21.016 63.762C19.288 66.002 18.36 68.594 18.232 71.538C18.328 74.578 19.384 76.93 21.4 78.594C23.448 80.29 25.912 81.09 28.792 80.994L31.288 80.514L28.792 67.746C27.672 68.098 26.744 68.754 26.008 69.714ZM29.944 67.602L32.488 80.13C34.984 78.754 36.248 76.61 36.28 73.698C36.12 71.874 35.464 70.418 34.312 69.33C33.16 68.21 31.704 67.634 29.944 67.602Z" fill="#1E1618"/>
<path d="M51.5919 30.162V37.362L54.1359 36.69V29.25H55.3359V36.45L57.1599 35.97V39.858L55.3359 40.29V45.81L57.1599 45.33V49.314L55.3359 49.794V56.898H54.1359V50.082L51.5919 50.706V58.146H50.3919V50.994L48.5199 51.426V47.49L50.3919 47.01V41.538L48.5199 42.018V38.13L50.3919 37.65V30.162H51.5919ZM51.5919 41.25V46.722L54.1359 46.05V40.578L51.5919 41.25Z" fill="#1E1618"/>
<path d="M61.1919 44.562V51.762L63.7359 51.09V43.65H64.9359V50.85L66.7599 50.37V54.258L64.9359 54.69V60.21L66.7599 59.73V63.714L64.9359 64.194V71.298H63.7359V64.482L61.1919 65.106V72.546H59.9919V65.394L58.1199 65.826V61.89L59.9919 61.41V55.938L58.1199 56.418V52.53L59.9919 52.05V44.562H61.1919ZM61.1919 55.65V61.122L63.7359 60.45V54.978L61.1919 55.65Z" fill="#1E1618"/>
<path d="M70.7918 25.362V32.562L73.3358 31.89V24.45H74.5358V31.65L76.3598 31.17V35.058L74.5358 35.49V41.01L76.3598 40.53V44.514L74.5358 44.994V52.098H73.3358V45.282L70.7918 45.906V53.346H69.5918V46.194L67.7198 46.626V42.69L69.5918 42.21V36.738L67.7198 37.218V33.33L69.5918 32.85V25.362H70.7918ZM70.7918 36.45V41.922L73.3358 41.25V35.778L70.7918 36.45Z" fill="#1E1618"/>
<path d="M80.3919 39.762V46.962L82.9359 46.29V38.85H84.1359V46.05L85.9599 45.57V49.458L84.1359 49.89V55.41L85.9599 54.93V58.914L84.1359 59.394V66.498H82.9359V59.682L80.3919 60.306V67.746H79.1919V60.594L77.3199 61.026V57.09L79.1919 56.61V51.138L77.3199 51.618V47.73L79.1919 47.25V39.762H80.3919ZM80.3919 50.85V56.322L82.9359 55.65V50.178L80.3919 50.85Z" fill="#1E1618"/>
<path d="M89.9919 54.162V61.362L92.5359 60.69V53.25H93.7359V60.45L95.5599 59.97V63.858L93.7359 64.29V69.81L95.5599 69.33V73.314L93.7359 73.794V80.898H92.5359V74.082L89.9919 74.706V82.146H88.7919V74.994L86.9199 75.426V71.49L88.7919 71.01V65.538L86.9199 66.018V62.13L88.7919 61.65V54.162H89.9919ZM89.9919 65.25V70.722L92.5359 70.05V64.578L89.9919 65.25Z" fill="#1E1618"/>
<path d="M99.5919 34.962V42.162L102.136 41.49V34.05H103.336V41.25L105.16 40.77V44.658L103.336 45.09V50.61L105.16 50.13V54.114L103.336 54.594V61.698H102.136V54.882L99.5919 55.506V62.946H98.3919V55.794L96.5199 56.226V52.29L98.3919 51.81V46.338L96.5199 46.818V42.93L98.3919 42.45V34.962H99.5919ZM99.5919 46.05V51.522L102.136 50.85V45.378L99.5919 46.05Z" fill="#1E1618"/>
<path d="M109.192 49.362V56.562L111.736 55.89V48.45H112.936V55.65L114.76 55.17V59.058L112.936 59.49V65.01L114.76 64.53V68.514L112.936 68.994V76.098H111.736V69.282L109.192 69.906V77.346H107.992V70.194L106.12 70.626V66.69L107.992 66.21V60.738L106.12 61.218V57.33L107.992 56.85V49.362H109.192ZM109.192 60.45V65.922L111.736 65.25V59.778L109.192 60.45Z" fill="#1E1618"/>
</svg>
