<svg width="128" height="128" viewBox="0 0 128 128" fill="none" xmlns="http://www.w3.org/2000/svg">
<path d="M94.96 82.05H34V83.01H94.96V82.05Z" fill="#1E1618"/>
<path d="M94.96 72.45H34V73.41H94.96V72.45Z" fill="#1E1618"/>
<path d="M94.96 62.85H34V63.81H94.96V62.85Z" fill="#1E1618"/>
<path d="M94.96 53.25H34V54.21H94.96V53.25Z" fill="#1E1618"/>
<path d="M94.96 43.65H34V44.61H94.96V43.65Z" fill="#1E1618"/>
<path d="M56.528 32.802C57.2 34.05 57.792 35.586 58.304 37.41C58.816 39.17 59.104 40.818 59.168 42.354C59.008 47.794 56.896 52.578 52.832 56.706L54.08 63.138L55.568 62.994C58.064 63.058 60.08 64.002 61.616 65.826C63.12 67.65 63.888 69.826 63.92 72.354C63.888 74.434 63.312 76.21 62.192 77.682C61.072 79.186 59.584 80.386 57.728 81.282L59.312 89.058L59.408 90.834C59.28 94.866 57.088 97.17 52.832 97.746C51.168 97.906 49.616 97.49 48.176 96.498C46.736 95.506 45.888 94.146 45.632 92.418C45.568 91.202 45.856 90.114 46.496 89.154C47.168 88.226 48.08 87.666 49.232 87.474C50.256 87.378 51.152 87.698 51.92 88.434C52.688 89.138 53.104 90.034 53.168 91.122C53.136 92.594 52.64 93.602 51.68 94.146C50.72 94.722 49.904 94.93 49.232 94.77C49.36 95.41 49.824 95.874 50.624 96.162L52.736 96.45C56.256 95.906 58.048 94.002 58.112 90.738C58.144 89.874 58.048 88.946 57.824 87.954L56.48 81.81L53.024 82.338C49.632 82.242 46.768 80.994 44.432 78.594C42.096 76.194 40.752 73.138 40.4 69.426C40.272 65.714 41.312 62.402 43.52 59.49C45.728 56.61 48.08 53.986 50.576 51.618C49.84 48.834 49.456 46.002 49.424 43.122C49.424 41.17 49.856 38.914 50.72 36.354C51.584 33.762 52.912 32.034 54.704 31.17C55.248 31.042 55.856 31.586 56.528 32.802ZM55.424 36.834C53.856 37.314 52.736 38.546 52.064 40.53C51.392 42.482 51.04 44.242 51.008 45.81C51.04 47.442 51.264 49.026 51.68 50.562C53.248 49.25 54.624 47.602 55.808 45.618C56.96 43.602 57.52 41.49 57.488 39.282C57.488 38.642 57.312 38.082 56.96 37.602C56.608 37.122 56.096 36.866 55.424 36.834ZM51.008 69.714C50.24 70.674 49.856 71.762 49.856 72.978C50.016 74.994 51.008 76.386 52.832 77.154L53.12 77.538L52.592 77.922C51.12 77.378 49.92 76.482 48.992 75.234C48.064 73.954 47.6 72.498 47.6 70.866C47.664 69.234 48.208 67.73 49.232 66.354C50.256 65.01 51.504 64.05 52.976 63.474L51.824 57.666C49.68 59.458 47.744 61.49 46.016 63.762C44.288 66.002 43.36 68.594 43.232 71.538C43.328 74.578 44.384 76.93 46.4 78.594C48.448 80.29 50.912 81.09 53.792 80.994L56.288 80.514L53.792 67.746C52.672 68.098 51.744 68.754 51.008 69.714ZM54.944 67.602L57.488 80.13C59.984 78.754 61.248 76.61 61.28 73.698C61.12 71.874 60.464 70.418 59.312 69.33C58.16 68.21 56.704 67.634 54.944 67.602Z" fill="#1E1618"/>
<path d="M76.592 30.162V37.362L79.136 36.69V29.25H80.336V36.45L82.16 35.97V39.858L80.336 40.29V45.81L82.16 45.33V49.314L80.336 49.794V56.898H79.136V50.082L76.592 50.706V58.146H75.392V50.994L73.52 51.426V47.49L75.392 47.01V41.538L73.52 42.018V38.13L75.392 37.65V30.162H76.592ZM76.592 41.25V46.722L79.136 46.05V40.578L76.592 41.25Z" fill="#1E1618"/>
<path d="M86.192 44.562V51.762L88.736 51.09V43.65H89.936V50.85L91.76 50.37V54.258L89.936 54.69V60.21L91.76 59.73V63.714L89.936 64.194V71.298H88.736V64.482L86.192 65.106V72.546H84.992V65.394L83.12 65.826V61.89L84.992 61.41V55.938L83.12 56.418V52.53L84.992 52.05V44.562H86.192ZM86.192 55.65V61.122L88.736 60.45V54.978L86.192 55.65Z" fill="#1E1618"/>
</svg>
