<svg width="128" height="128" viewBox="0 0 128 128" fill="none" xmlns="http://www.w3.org/2000/svg">
<path d="M107.704 82.05H19V83.01H107.704V82.05Z" fill="#1E1618"/>
<path d="M107.704 72.45H19V73.41H107.704V72.45Z" fill="#1E1618"/>
<path d="M107.704 62.85H19V63.81H107.704V62.85Z" fill="#1E1618"/>
<path d="M107.704 53.25H19V54.21H107.704V53.25Z" fill="#1E1618"/>
<path d="M107.704 43.65H19V44.61H107.704V43.65Z" fill="#1E1618"/>
<path d="M41.528 32.802C42.2 34.05 42.792 35.586 43.304 37.41C43.816 39.17 44.104 40.818 44.168 42.354C44.008 47.794 41.896 52.578 37.832 56.706L39.08 63.138L40.568 62.994C43.064 63.058 45.08 64.002 46.616 65.826C48.12 67.65 48.888 69.826 48.92 72.354C48.888 74.434 48.312 76.21 47.192 77.682C46.072 79.186 44.584 80.386 42.728 81.282L44.312 89.058L44.408 90.834C44.28 94.866 42.088 97.17 37.832 97.746C36.168 97.906 34.616 97.49 33.176 96.498C31.736 95.506 30.888 94.146 30.632 92.418C30.568 91.202 30.856 90.114 31.496 89.154C32.168 88.226 33.08 87.666 34.232 87.474C35.256 87.378 36.152 87.698 36.92 88.434C37.688 89.138 38.104 90.034 38.168 91.122C38.136 92.594 37.64 93.602 36.68 94.146C35.72 94.722 34.904 94.93 34.232 94.77C34.36 95.41 34.824 95.874 35.624 96.162L37.736 96.45C41.256 95.906 43.048 94.002 43.112 90.738C43.144 89.874 43.048 88.946 42.824 87.954L41.48 81.81L38.024 82.338C34.632 82.242 31.768 80.994 29.432 78.594C27.096 76.194 25.752 73.138 25.4 69.426C25.272 65.714 26.312 62.402 28.52 59.49C30.728 56.61 33.08 53.986 35.576 51.618C34.84 48.834 34.456 46.002 34.424 43.122C34.424 41.17 34.856 38.914 35.72 36.354C36.584 33.762 37.912 32.034 39.704 31.17C40.248 31.042 40.856 31.586 41.528 32.802ZM40.424 36.834C38.856 37.314 37.736 38.546 37.064 40.53C36.392 42.482 36.04 44.242 36.008 45.81C36.04 47.442 36.264 49.026 36.68 50.562C38.248 49.25 39.624 47.602 40.808 45.618C41.96 43.602 42.52 41.49 42.488 39.282C42.488 38.642 42.312 38.082 41.96 37.602C41.608 37.122 41.096 36.866 40.424 36.834ZM36.008 69.714C35.24 70.674 34.856 71.762 34.856 72.978C35.016 74.994 36.008 76.386 37.832 77.154L38.12 77.538L37.592 77.922C36.12 77.378 34.92 76.482 33.992 75.234C33.064 73.954 32.6 72.498 32.6 70.866C32.664 69.234 33.208 67.73 34.232 66.354C35.256 65.01 36.504 64.05 37.976 63.474L36.824 57.666C34.68 59.458 32.744 61.49 31.016 63.762C29.288 66.002 28.36 68.594 28.232 71.538C28.328 74.578 29.384 76.93 31.4 78.594C33.448 80.29 35.912 81.09 38.792 80.994L41.288 80.514L38.792 67.746C37.672 68.098 36.744 68.754 36.008 69.714ZM39.944 67.602L42.488 80.13C44.984 78.754 46.248 76.61 46.28 73.698C46.12 71.874 45.464 70.418 44.312 69.33C43.16 68.21 41.704 67.634 39.944 67.602Z" fill="#1E1618"/>
<path d="M59.672 58.674C60.664 57.81 61.8 57.33 63.08 57.234C63.88 57.234 64.584 57.554 65.192 58.194C65.8 58.802 66.104 59.554 66.104 60.45C66.008 61.602 65.56 62.61 64.76 63.474L62.264 65.73L58.52 69.378V43.65H59.672V58.674ZM61.784 58.722C61.304 58.69 60.84 58.882 60.392 59.298C59.944 59.746 59.704 60.114 59.672 60.402V66.882L61.928 64.05C62.76 62.962 63.208 61.874 63.272 60.786C63.176 59.57 62.68 58.882 61.784 58.722Z" fill="#1E1618"/>
<path d="M69.272 44.274C70.264 43.41 71.4 42.93 72.68 42.834C73.48 42.834 74.184 43.154 74.792 43.794C75.4 44.402 75.704 45.154 75.704 46.05C75.608 47.202 75.16 48.21 74.36 49.074L71.864 51.33L68.12 54.978V29.25H69.272V44.274ZM71.384 44.322C70.904 44.29 70.44 44.482 69.992 44.898C69.544 45.346 69.304 45.714 69.272 46.002V52.482L71.528 49.65C72.36 48.562 72.808 47.474 72.872 46.386C72.776 45.17 72.28 44.482 71.384 44.322Z" fill="#1E1618"/>
<path d="M78.872 63.474C79.864 62.61 81 62.13 82.28 62.034C83.08 62.034 83.784 62.354 84.392 62.994C85 63.602 85.304 64.354 85.304 65.25C85.208 66.402 84.76 67.41 83.96 68.274L81.464 70.53L77.72 74.178V48.45H78.872V63.474ZM80.984 63.522C80.504 63.49 80.04 63.682 79.592 64.098C79.144 64.546 78.904 64.914 78.872 65.202V71.682L81.128 68.85C81.96 67.762 82.408 66.674 82.472 65.586C82.376 64.37 81.88 63.682 80.984 63.522Z" fill="#1E1618"/>
<path d="M88.472 49.074C89.464 48.21 90.6 47.73 91.88 47.634C92.68 47.634 93.384 47.954 93.992 48.594C94.6 49.202 94.904 49.954 94.904 50.85C94.808 52.002 94.36 53.01 93.56 53.874L91.064 56.13L87.32 59.778V34.05H88.472V49.074ZM90.584 49.122C90.104 49.09 89.64 49.282 89.192 49.698C88.744 50.146 88.504 50.514 88.472 50.802V57.282L90.728 54.45C91.56 53.362 92.008 52.274 92.072 51.186C91.976 49.97 91.48 49.282 90.584 49.122Z" fill="#1E1618"/>
<path d="M98.072 68.274C99.064 67.41 100.2 66.93 101.48 66.834C102.28 66.834 102.984 67.154 103.592 67.794C104.2 68.402 104.504 69.154 104.504 70.05C104.408 71.202 103.96 72.21 103.16 73.074L100.664 75.33L96.92 78.978V53.25H98.072V68.274ZM100.184 68.322C99.704 68.29 99.24 68.482 98.792 68.898C98.344 69.346 98.104 69.714 98.072 70.002V76.482L100.328 73.65C101.16 72.562 101.608 71.474 101.672 70.386C101.576 69.17 101.08 68.482 100.184 68.322Z" fill="#1E1618"/>
</svg>
