<svg width="128" height="128" viewBox="0 0 128 128" fill="none" xmlns="http://www.w3.org/2000/svg">
<path d="M104.16 82.05H24V83.01H104.16V82.05Z" fill="#1E1618"/>
<path d="M104.16 72.45H24V73.41H104.16V72.45Z" fill="#1E1618"/>
<path d="M104.16 62.85H24V63.81H104.16V62.85Z" fill="#1E1618"/>
<path d="M104.16 53.25H24V54.21H104.16V53.25Z" fill="#1E1618"/>
<path d="M104.16 43.65H24V44.61H104.16V43.65Z" fill="#1E1618"/>
<path d="M46.528 32.802C47.2 34.05 47.792 35.586 48.304 37.41C48.816 39.17 49.104 40.818 49.168 42.354C49.008 47.794 46.896 52.578 42.832 56.706L44.08 63.138L45.568 62.994C48.064 63.058 50.08 64.002 51.616 65.826C53.12 67.65 53.888 69.826 53.92 72.354C53.888 74.434 53.312 76.21 52.192 77.682C51.072 79.186 49.584 80.386 47.728 81.282L49.312 89.058L49.408 90.834C49.28 94.866 47.088 97.17 42.832 97.746C41.168 97.906 39.616 97.49 38.176 96.498C36.736 95.506 35.888 94.146 35.632 92.418C35.568 91.202 35.856 90.114 36.496 89.154C37.168 88.226 38.08 87.666 39.232 87.474C40.256 87.378 41.152 87.698 41.92 88.434C42.688 89.138 43.104 90.034 43.168 91.122C43.136 92.594 42.64 93.602 41.68 94.146C40.72 94.722 39.904 94.93 39.232 94.77C39.36 95.41 39.824 95.874 40.624 96.162L42.736 96.45C46.256 95.906 48.048 94.002 48.112 90.738C48.144 89.874 48.048 88.946 47.824 87.954L46.48 81.81L43.024 82.338C39.632 82.242 36.768 80.994 34.432 78.594C32.096 76.194 30.752 73.138 30.4 69.426C30.272 65.714 31.312 62.402 33.52 59.49C35.728 56.61 38.08 53.986 40.576 51.618C39.84 48.834 39.456 46.002 39.424 43.122C39.424 41.17 39.856 38.914 40.72 36.354C41.584 33.762 42.912 32.034 44.704 31.17C45.248 31.042 45.856 31.586 46.528 32.802ZM45.424 36.834C43.856 37.314 42.736 38.546 42.064 40.53C41.392 42.482 41.04 44.242 41.008 45.81C41.04 47.442 41.264 49.026 41.68 50.562C43.248 49.25 44.624 47.602 45.808 45.618C46.96 43.602 47.52 41.49 47.488 39.282C47.488 38.642 47.312 38.082 46.96 37.602C46.608 37.122 46.096 36.866 45.424 36.834ZM41.008 69.714C40.24 70.674 39.856 71.762 39.856 72.978C40.016 74.994 41.008 76.386 42.832 77.154L43.12 77.538L42.592 77.922C41.12 77.378 39.92 76.482 38.992 75.234C38.064 73.954 37.6 72.498 37.6 70.866C37.664 69.234 38.208 67.73 39.232 66.354C40.256 65.01 41.504 64.05 42.976 63.474L41.824 57.666C39.68 59.458 37.744 61.49 36.016 63.762C34.288 66.002 33.36 68.594 33.232 71.538C33.328 74.578 34.384 76.93 36.4 78.594C38.448 80.29 40.912 81.09 43.792 80.994L46.288 80.514L43.792 67.746C42.672 68.098 41.744 68.754 41.008 69.714ZM44.944 67.602L47.488 80.13C49.984 78.754 51.248 76.61 51.28 73.698C51.12 71.874 50.464 70.418 49.312 69.33C48.16 68.21 46.704 67.634 44.944 67.602Z" fill="#1E1618"/>
<path d="M66.592 30.162V37.362L69.136 36.69V29.25H70.336V36.45L72.16 35.97V39.858L70.336 40.29V45.81L72.16 45.33V49.314L70.336 49.794V56.898H69.136V50.082L66.592 50.706V58.146H65.392V50.994L63.52 51.426V47.49L65.392 47.01V41.538L63.52 42.018V38.13L65.392 37.65V30.162H66.592ZM66.592 41.25V46.722L69.136 46.05V40.578L66.592 41.25Z" fill="#1E1618"/>
<path d="M76.192 44.562V51.762L78.736 51.09V43.65H79.936V50.85L81.76 50.37V54.258L79.936 54.69V60.21L81.76 59.73V63.714L79.936 64.194V71.298H78.736V64.482L76.192 65.106V72.546H74.992V65.394L73.12 65.826V61.89L74.992 61.41V55.938L73.12 56.418V52.53L74.992 52.05V44.562H76.192ZM76.192 55.65V61.122L78.736 60.45V54.978L76.192 55.65Z" fill="#1E1618"/>
<path d="M85.792 25.362V32.562L88.336 31.89V24.45H89.536V31.65L91.36 31.17V35.058L89.536 35.49V41.01L91.36 40.53V44.514L89.536 44.994V52.098H88.336V45.282L85.792 45.906V53.346H84.592V46.194L82.72 46.626V42.69L84.592 42.21V36.738L82.72 37.218V33.33L84.592 32.85V25.362H85.792ZM85.792 36.45V41.922L88.336 41.25V35.778L85.792 36.45Z" fill="#1E1618"/>
<path d="M95.392 39.762V46.962L97.936 46.29V38.85H99.136V46.05L100.96 45.57V49.458L99.136 49.89V55.41L100.96 54.93V58.914L99.136 59.394V66.498H97.936V59.682L95.392 60.306V67.746H94.192V60.594L92.32 61.026V57.09L94.192 56.61V51.138L92.32 51.618V47.73L94.192 47.25V39.762H95.392ZM95.392 50.85V56.322L97.936 55.65V50.178L95.392 50.85Z" fill="#1E1618"/>
</svg>
