<svg width="81" height="74" viewBox="0 0 81 74" fill="none" xmlns="http://www.w3.org/2000/svg">
<path d="M80.16 57.6H0V58.56H80.16V57.6Z" fill="#1E1618"/>
<path d="M80.16 48H0V48.96H80.16V48Z" fill="#1E1618"/>
<path d="M80.16 38.4H0V39.36H80.16V38.4Z" fill="#1E1618"/>
<path d="M80.16 28.8H0V29.76H80.16V28.8Z" fill="#1E1618"/>
<path d="M80.16 19.2H0V20.16H80.16V19.2Z" fill="#1E1618"/>
<path d="M22.528 8.35195C23.2 9.59995 23.792 11.1359 24.304 12.9599C24.816 14.7199 25.104 16.3679 25.168 17.9039C25.008 23.3439 22.896 28.1279 18.832 32.2559L20.08 38.6879L21.568 38.5439C24.064 38.6079 26.08 39.5519 27.616 41.3759C29.12 43.1999 29.888 45.3759 29.92 47.9039C29.888 49.9839 29.312 51.7599 28.192 53.2319C27.072 54.7359 25.584 55.9359 23.728 56.8319L25.312 64.6079L25.408 66.3839C25.28 70.4159 23.088 72.7199 18.832 73.2959C17.168 73.4559 15.616 73.0399 14.176 72.0479C12.736 71.0559 11.888 69.6959 11.632 67.9679C11.568 66.7519 11.856 65.6639 12.496 64.7039C13.168 63.7759 14.08 63.2159 15.232 63.0239C16.256 62.9279 17.152 63.2479 17.92 63.9839C18.688 64.6879 19.104 65.5839 19.168 66.6719C19.136 68.1439 18.64 69.1519 17.68 69.6959C16.72 70.2719 15.904 70.4799 15.232 70.3199C15.36 70.9599 15.824 71.4239 16.624 71.7119L18.736 71.9999C22.256 71.4559 24.048 69.5519 24.112 66.2879C24.144 65.4239 24.048 64.4959 23.824 63.5039L22.48 57.3599L19.024 57.8879C15.632 57.7919 12.768 56.5439 10.432 54.1439C8.09599 51.7439 6.75199 48.6879 6.39999 44.9759C6.27199 41.2639 7.31199 37.9519 9.51999 35.0399C11.728 32.1599 14.08 29.5359 16.576 27.1679C15.84 24.3839 15.456 21.5519 15.424 18.6719C15.424 16.7199 15.856 14.4639 16.72 11.9039C17.584 9.31195 18.912 7.58395 20.704 6.71995C21.248 6.59195 21.856 7.13595 22.528 8.35195ZM21.424 12.3839C19.856 12.8639 18.736 14.0959 18.064 16.0799C17.392 18.0319 17.04 19.7919 17.008 21.3599C17.04 22.9919 17.264 24.5759 17.68 26.1119C19.248 24.7999 20.624 23.1519 21.808 21.1679C22.96 19.1519 23.52 17.0399 23.488 14.8319C23.488 14.1919 23.312 13.6319 22.96 13.1519C22.608 12.6719 22.096 12.4159 21.424 12.3839ZM17.008 45.2639C16.24 46.2239 15.856 47.3119 15.856 48.5279C16.016 50.5439 17.008 51.9359 18.832 52.7039L19.12 53.0879L18.592 53.4719C17.12 52.9279 15.92 52.0319 14.992 50.7839C14.064 49.5039 13.6 48.0479 13.6 46.4159C13.664 44.7839 14.208 43.2799 15.232 41.9039C16.256 40.5599 17.504 39.5999 18.976 39.0239L17.824 33.2159C15.68 35.0079 13.744 37.0399 12.016 39.3119C10.288 41.5519 9.35999 44.1439 9.23199 47.0879C9.32799 50.1279 10.384 52.4799 12.4 54.1439C14.448 55.8399 16.912 56.6399 19.792 56.5439L22.288 56.0639L19.792 43.2959C18.672 43.6479 17.744 44.3039 17.008 45.2639ZM20.944 43.1519L23.488 55.6799C25.984 54.3039 27.248 52.1599 27.28 49.2479C27.12 47.4239 26.464 45.9679 25.312 44.8799C24.16 43.7599 22.704 43.1839 20.944 43.1519Z" fill="#1E1618"/>
<path d="M42.592 5.71199V12.912L45.136 12.24V4.79999H46.336V12L48.16 11.52V15.408L46.336 15.84V21.36L48.16 20.88V24.864L46.336 25.344V32.448H45.136V25.632L42.592 26.256V33.696H41.392V26.544L39.52 26.976V23.04L41.392 22.56V17.088L39.52 17.568V13.68L41.392 13.2V5.71199H42.592ZM42.592 16.8V22.272L45.136 21.6V16.128L42.592 16.8Z" fill="#1E1618"/>
<path d="M52.192 20.112V27.312L54.736 26.64V19.2H55.936V26.4L57.76 25.92V29.808L55.936 30.24V35.76L57.76 35.28V39.264L55.936 39.7439V46.8479H54.736V40.032L52.192 40.656V48.096H50.992V40.944L49.12 41.376V37.44L50.992 36.96V31.488L49.12 31.968V28.08L50.992 27.6V20.112H52.192ZM52.192 31.2V36.672L54.736 36V30.528L52.192 31.2Z" fill="#1E1618"/>
<path d="M61.792 0.912V8.112L64.336 7.44V0H65.536V7.2L67.36 6.72V10.608L65.536 11.04V16.56L67.36 16.08V20.064L65.536 20.544V27.648H64.336V20.832L61.792 21.456V28.896H60.592V21.744L58.72 22.176V18.24L60.592 17.76V12.288L58.72 12.768V8.88L60.592 8.4V0.912H61.792ZM61.792 12V17.472L64.336 16.8V11.328L61.792 12Z" fill="#1E1618"/>
<path d="M71.392 15.312V22.512L73.936 21.84V14.4H75.136V21.6L76.96 21.12V25.008L75.136 25.44V30.96L76.96 30.48V34.464L75.136 34.944V42.048H73.936V35.232L71.392 35.856V43.296H70.192V36.144L68.32 36.576V32.64L70.192 32.16V26.688L68.32 27.168V23.28L70.192 22.8V15.312H71.392ZM71.392 26.4V31.872L73.936 31.2V25.728L71.392 26.4Z" fill="#1E1618"/>
</svg>
