<svg width="72" height="69" viewBox="0 0 72 69" fill="none" xmlns="http://www.w3.org/2000/svg">
<path d="M69.504 52.8H0V53.76H69.504V52.8Z" fill="#1E1618"/>
<path d="M69.504 43.2H0V44.16H69.504V43.2Z" fill="#1E1618"/>
<path d="M69.504 33.6H0V34.56H69.504V33.6Z" fill="#1E1618"/>
<path d="M69.504 24H0V24.96H69.504V24Z" fill="#1E1618"/>
<path d="M69.504 14.4H0V15.36H69.504V14.4Z" fill="#1E1618"/>
<path d="M22.528 3.55202C23.2 4.80002 23.792 6.33602 24.304 8.16002C24.816 9.92002 25.104 11.568 25.168 13.104C25.008 18.544 22.896 23.328 18.832 27.456L20.08 33.888L21.568 33.744C24.064 33.808 26.08 34.752 27.616 36.576C29.12 38.4 29.888 40.576 29.92 43.104C29.888 45.184 29.312 46.96 28.192 48.432C27.072 49.936 25.584 51.136 23.728 52.032L25.312 59.808L25.408 61.584C25.28 65.616 23.088 67.92 18.832 68.496C17.168 68.656 15.616 68.24 14.176 67.248C12.736 66.256 11.888 64.896 11.632 63.168C11.568 61.952 11.856 60.864 12.496 59.904C13.168 58.976 14.08 58.416 15.232 58.224C16.256 58.128 17.152 58.448 17.92 59.184C18.688 59.888 19.104 60.784 19.168 61.872C19.136 63.344 18.64 64.352 17.68 64.896C16.72 65.472 15.904 65.68 15.232 65.52C15.36 66.16 15.824 66.624 16.624 66.912L18.736 67.2C22.256 66.656 24.048 64.752 24.112 61.488C24.144 60.624 24.048 59.696 23.824 58.704L22.48 52.56L19.024 53.088C15.632 52.992 12.768 51.744 10.432 49.344C8.09599 46.944 6.75199 43.888 6.39999 40.176C6.27199 36.464 7.31199 33.152 9.51999 30.24C11.728 27.36 14.08 24.736 16.576 22.368C15.84 19.584 15.456 16.752 15.424 13.872C15.424 11.92 15.856 9.66402 16.72 7.10402C17.584 4.51202 18.912 2.78402 20.704 1.92002C21.248 1.79202 21.856 2.33602 22.528 3.55202ZM21.424 7.58402C19.856 8.06402 18.736 9.29602 18.064 11.28C17.392 13.232 17.04 14.992 17.008 16.56C17.04 18.192 17.264 19.776 17.68 21.312C19.248 20 20.624 18.352 21.808 16.368C22.96 14.352 23.52 12.24 23.488 10.032C23.488 9.39202 23.312 8.83202 22.96 8.35202C22.608 7.87202 22.096 7.61602 21.424 7.58402ZM17.008 40.464C16.24 41.424 15.856 42.512 15.856 43.728C16.016 45.744 17.008 47.136 18.832 47.904L19.12 48.288L18.592 48.672C17.12 48.128 15.92 47.232 14.992 45.984C14.064 44.704 13.6 43.248 13.6 41.616C13.664 39.984 14.208 38.48 15.232 37.104C16.256 35.76 17.504 34.8 18.976 34.224L17.824 28.416C15.68 30.208 13.744 32.24 12.016 34.512C10.288 36.752 9.35999 39.344 9.23199 42.288C9.32799 45.328 10.384 47.68 12.4 49.344C14.448 51.04 16.912 51.84 19.792 51.744L22.288 51.264L19.792 38.496C18.672 38.848 17.744 39.504 17.008 40.464ZM20.944 38.352L23.488 50.88C25.984 49.504 27.248 47.36 27.28 44.448C27.12 42.624 26.464 41.168 25.312 40.08C24.16 38.96 22.704 38.384 20.944 38.352Z" fill="#1E1618"/>
<path d="M40.672 29.424C41.664 28.56 42.8 28.08 44.08 27.984C44.88 27.984 45.584 28.304 46.192 28.944C46.8 29.552 47.104 30.304 47.104 31.2C47.008 32.352 46.56 33.36 45.76 34.224L43.264 36.48L39.52 40.128V14.4H40.672V29.424ZM42.784 29.472C42.304 29.44 41.84 29.632 41.392 30.048C40.944 30.496 40.704 30.864 40.672 31.152V37.632L42.928 34.8C43.76 33.712 44.208 32.624 44.272 31.536C44.176 30.32 43.68 29.632 42.784 29.472Z" fill="#1E1618"/>
<path d="M50.272 15.024C51.264 14.16 52.4 13.68 53.68 13.584C54.48 13.584 55.184 13.904 55.792 14.544C56.4 15.152 56.704 15.904 56.704 16.8C56.608 17.952 56.16 18.96 55.36 19.824L52.864 22.08L49.12 25.728V0H50.272V15.024ZM52.384 15.072C51.904 15.04 51.44 15.232 50.992 15.648C50.544 16.096 50.304 16.464 50.272 16.752V23.232L52.528 20.4C53.36 19.312 53.808 18.224 53.872 17.136C53.776 15.92 53.28 15.232 52.384 15.072Z" fill="#1E1618"/>
<path d="M59.872 34.224C60.864 33.36 62 32.88 63.28 32.784C64.08 32.784 64.784 33.104 65.392 33.744C66 34.352 66.304 35.104 66.304 36C66.208 37.152 65.76 38.16 64.96 39.024L62.464 41.28L58.72 44.928V19.2H59.872V34.224ZM61.984 34.272C61.504 34.24 61.04 34.432 60.592 34.848C60.144 35.296 59.904 35.664 59.872 35.952V42.432L62.128 39.6C62.96 38.512 63.408 37.424 63.472 36.336C63.376 35.12 62.88 34.432 61.984 34.272Z" fill="#1E1618"/>
</svg>
