<svg width="128" height="128" viewBox="0 0 128 128" fill="none" xmlns="http://www.w3.org/2000/svg">
<path d="M97.504 82.05H28V83.01H97.504V82.05Z" fill="#1E1618"/>
<path d="M97.504 72.45H28V73.41H97.504V72.45Z" fill="#1E1618"/>
<path d="M97.504 62.85H28V63.81H97.504V62.85Z" fill="#1E1618"/>
<path d="M97.504 53.25H28V54.21H97.504V53.25Z" fill="#1E1618"/>
<path d="M97.504 43.65H28V44.61H97.504V43.65Z" fill="#1E1618"/>
<path d="M50.528 32.802C51.2 34.05 51.792 35.586 52.304 37.41C52.816 39.17 53.104 40.818 53.168 42.354C53.008 47.794 50.896 52.578 46.832 56.706L48.08 63.138L49.568 62.994C52.064 63.058 54.08 64.002 55.616 65.826C57.12 67.65 57.888 69.826 57.92 72.354C57.888 74.434 57.312 76.21 56.192 77.682C55.072 79.186 53.584 80.386 51.728 81.282L53.312 89.058L53.408 90.834C53.28 94.866 51.088 97.17 46.832 97.746C45.168 97.906 43.616 97.49 42.176 96.498C40.736 95.506 39.888 94.146 39.632 92.418C39.568 91.202 39.856 90.114 40.496 89.154C41.168 88.226 42.08 87.666 43.232 87.474C44.256 87.378 45.152 87.698 45.92 88.434C46.688 89.138 47.104 90.034 47.168 91.122C47.136 92.594 46.64 93.602 45.68 94.146C44.72 94.722 43.904 94.93 43.232 94.77C43.36 95.41 43.824 95.874 44.624 96.162L46.736 96.45C50.256 95.906 52.048 94.002 52.112 90.738C52.144 89.874 52.048 88.946 51.824 87.954L50.48 81.81L47.024 82.338C43.632 82.242 40.768 80.994 38.432 78.594C36.096 76.194 34.752 73.138 34.4 69.426C34.272 65.714 35.312 62.402 37.52 59.49C39.728 56.61 42.08 53.986 44.576 51.618C43.84 48.834 43.456 46.002 43.424 43.122C43.424 41.17 43.856 38.914 44.72 36.354C45.584 33.762 46.912 32.034 48.704 31.17C49.248 31.042 49.856 31.586 50.528 32.802ZM49.424 36.834C47.856 37.314 46.736 38.546 46.064 40.53C45.392 42.482 45.04 44.242 45.008 45.81C45.04 47.442 45.264 49.026 45.68 50.562C47.248 49.25 48.624 47.602 49.808 45.618C50.96 43.602 51.52 41.49 51.488 39.282C51.488 38.642 51.312 38.082 50.96 37.602C50.608 37.122 50.096 36.866 49.424 36.834ZM45.008 69.714C44.24 70.674 43.856 71.762 43.856 72.978C44.016 74.994 45.008 76.386 46.832 77.154L47.12 77.538L46.592 77.922C45.12 77.378 43.92 76.482 42.992 75.234C42.064 73.954 41.6 72.498 41.6 70.866C41.664 69.234 42.208 67.73 43.232 66.354C44.256 65.01 45.504 64.05 46.976 63.474L45.824 57.666C43.68 59.458 41.744 61.49 40.016 63.762C38.288 66.002 37.36 68.594 37.232 71.538C37.328 74.578 38.384 76.93 40.4 78.594C42.448 80.29 44.912 81.09 47.792 80.994L50.288 80.514L47.792 67.746C46.672 68.098 45.744 68.754 45.008 69.714ZM48.944 67.602L51.488 80.13C53.984 78.754 55.248 76.61 55.28 73.698C55.12 71.874 54.464 70.418 53.312 69.33C52.16 68.21 50.704 67.634 48.944 67.602Z" fill="#1E1618"/>
<path d="M68.672 58.674C69.664 57.81 70.8 57.33 72.08 57.234C72.88 57.234 73.584 57.554 74.192 58.194C74.8 58.802 75.104 59.554 75.104 60.45C75.008 61.602 74.56 62.61 73.76 63.474L71.264 65.73L67.52 69.378V43.65H68.672V58.674ZM70.784 58.722C70.304 58.69 69.84 58.882 69.392 59.298C68.944 59.746 68.704 60.114 68.672 60.402V66.882L70.928 64.05C71.76 62.962 72.208 61.874 72.272 60.786C72.176 59.57 71.68 58.882 70.784 58.722Z" fill="#1E1618"/>
<path d="M78.272 44.274C79.264 43.41 80.4 42.93 81.68 42.834C82.48 42.834 83.184 43.154 83.792 43.794C84.4 44.402 84.704 45.154 84.704 46.05C84.608 47.202 84.16 48.21 83.36 49.074L80.864 51.33L77.12 54.978V29.25H78.272V44.274ZM80.384 44.322C79.904 44.29 79.44 44.482 78.992 44.898C78.544 45.346 78.304 45.714 78.272 46.002V52.482L80.528 49.65C81.36 48.562 81.808 47.474 81.872 46.386C81.776 45.17 81.28 44.482 80.384 44.322Z" fill="#1E1618"/>
<path d="M87.872 63.474C88.864 62.61 90 62.13 91.28 62.034C92.08 62.034 92.784 62.354 93.392 62.994C94 63.602 94.304 64.354 94.304 65.25C94.208 66.402 93.76 67.41 92.96 68.274L90.464 70.53L86.72 74.178V48.45H87.872V63.474ZM89.984 63.522C89.504 63.49 89.04 63.682 88.592 64.098C88.144 64.546 87.904 64.914 87.872 65.202V71.682L90.128 68.85C90.96 67.762 91.408 66.674 91.472 65.586C91.376 64.37 90.88 63.682 89.984 63.522Z" fill="#1E1618"/>
</svg>
