<svg width="128" height="128" viewBox="0 0 128 128" fill="none" xmlns="http://www.w3.org/2000/svg">
<path d="M88.304 82.05H38V83.01H88.304V82.05Z" fill="#1E1618"/>
<path d="M88.304 72.45H38V73.41H88.304V72.45Z" fill="#1E1618"/>
<path d="M88.304 62.85H38V63.81H88.304V62.85Z" fill="#1E1618"/>
<path d="M88.304 53.25H38V54.21H88.304V53.25Z" fill="#1E1618"/>
<path d="M88.304 43.65H38V44.61H88.304V43.65Z" fill="#1E1618"/>
<path d="M60.528 32.802C61.2 34.05 61.792 35.586 62.304 37.41C62.816 39.17 63.104 40.818 63.168 42.354C63.008 47.794 60.896 52.578 56.832 56.706L58.08 63.138L59.568 62.994C62.064 63.058 64.08 64.002 65.616 65.826C67.12 67.65 67.888 69.826 67.92 72.354C67.888 74.434 67.312 76.21 66.192 77.682C65.072 79.186 63.584 80.386 61.728 81.282L63.312 89.058L63.408 90.834C63.28 94.866 61.088 97.17 56.832 97.746C55.168 97.906 53.616 97.49 52.176 96.498C50.736 95.506 49.888 94.146 49.632 92.418C49.568 91.202 49.856 90.114 50.496 89.154C51.168 88.226 52.08 87.666 53.232 87.474C54.256 87.378 55.152 87.698 55.92 88.434C56.688 89.138 57.104 90.034 57.168 91.122C57.136 92.594 56.64 93.602 55.68 94.146C54.72 94.722 53.904 94.93 53.232 94.77C53.36 95.41 53.824 95.874 54.624 96.162L56.736 96.45C60.256 95.906 62.048 94.002 62.112 90.738C62.144 89.874 62.048 88.946 61.824 87.954L60.48 81.81L57.024 82.338C53.632 82.242 50.768 80.994 48.432 78.594C46.096 76.194 44.752 73.138 44.4 69.426C44.272 65.714 45.312 62.402 47.52 59.49C49.728 56.61 52.08 53.986 54.576 51.618C53.84 48.834 53.456 46.002 53.424 43.122C53.424 41.17 53.856 38.914 54.72 36.354C55.584 33.762 56.912 32.034 58.704 31.17C59.248 31.042 59.856 31.586 60.528 32.802ZM59.424 36.834C57.856 37.314 56.736 38.546 56.064 40.53C55.392 42.482 55.04 44.242 55.008 45.81C55.04 47.442 55.264 49.026 55.68 50.562C57.248 49.25 58.624 47.602 59.808 45.618C60.96 43.602 61.52 41.49 61.488 39.282C61.488 38.642 61.312 38.082 60.96 37.602C60.608 37.122 60.096 36.866 59.424 36.834ZM55.008 69.714C54.24 70.674 53.856 71.762 53.856 72.978C54.016 74.994 55.008 76.386 56.832 77.154L57.12 77.538L56.592 77.922C55.12 77.378 53.92 76.482 52.992 75.234C52.064 73.954 51.6 72.498 51.6 70.866C51.664 69.234 52.208 67.73 53.232 66.354C54.256 65.01 55.504 64.05 56.976 63.474L55.824 57.666C53.68 59.458 51.744 61.49 50.016 63.762C48.288 66.002 47.36 68.594 47.232 71.538C47.328 74.578 48.384 76.93 50.4 78.594C52.448 80.29 54.912 81.09 57.792 80.994L60.288 80.514L57.792 67.746C56.672 68.098 55.744 68.754 55.008 69.714ZM58.944 67.602L61.488 80.13C63.984 78.754 65.248 76.61 65.28 73.698C65.12 71.874 64.464 70.418 63.312 69.33C62.16 68.21 60.704 67.634 58.944 67.602Z" fill="#1E1618"/>
<path d="M78.672 58.674C79.664 57.81 80.8 57.33 82.08 57.234C82.88 57.234 83.584 57.554 84.192 58.194C84.8 58.802 85.104 59.554 85.104 60.45C85.008 61.602 84.56 62.61 83.76 63.474L81.264 65.73L77.52 69.378V43.65H78.672V58.674ZM80.784 58.722C80.304 58.69 79.84 58.882 79.392 59.298C78.944 59.746 78.704 60.114 78.672 60.402V66.882L80.928 64.05C81.76 62.962 82.208 61.874 82.272 60.786C82.176 59.57 81.68 58.882 80.784 58.722Z" fill="#1E1618"/>
</svg>
