<svg width="100" height="74" viewBox="0 0 100 74" fill="none" xmlns="http://www.w3.org/2000/svg">
<path d="M99.36 57.6H0V58.56H99.36V57.6Z" fill="#1E1618"/>
<path d="M99.36 48H0V48.96H99.36V48Z" fill="#1E1618"/>
<path d="M99.36 38.4H0V39.36H99.36V38.4Z" fill="#1E1618"/>
<path d="M99.36 28.8H0V29.76H99.36V28.8Z" fill="#1E1618"/>
<path d="M99.36 19.2H0V20.16H99.36V19.2Z" fill="#1E1618"/>
<path d="M22.528 8.35201C23.2 9.60001 23.792 11.136 24.304 12.96C24.816 14.72 25.104 16.368 25.168 17.904C25.008 23.344 22.896 28.128 18.832 32.256L20.08 38.688L21.568 38.544C24.064 38.608 26.08 39.552 27.616 41.376C29.12 43.2 29.888 45.376 29.92 47.904C29.888 49.984 29.312 51.76 28.192 53.232C27.072 54.736 25.584 55.936 23.728 56.832L25.312 64.608L25.408 66.384C25.28 70.416 23.088 72.72 18.832 73.296C17.168 73.456 15.616 73.04 14.176 72.048C12.736 71.056 11.888 69.696 11.632 67.968C11.568 66.752 11.856 65.664 12.496 64.704C13.168 63.776 14.08 63.216 15.232 63.024C16.256 62.928 17.152 63.248 17.92 63.984C18.688 64.688 19.104 65.584 19.168 66.672C19.136 68.144 18.64 69.152 17.68 69.696C16.72 70.272 15.904 70.48 15.232 70.32C15.36 70.96 15.824 71.424 16.624 71.712L18.736 72C22.256 71.456 24.048 69.552 24.112 66.288C24.144 65.424 24.048 64.496 23.824 63.504L22.48 57.36L19.024 57.888C15.632 57.792 12.768 56.544 10.432 54.144C8.09599 51.744 6.75199 48.688 6.39999 44.976C6.27199 41.264 7.31199 37.952 9.51999 35.04C11.728 32.16 14.08 29.536 16.576 27.168C15.84 24.384 15.456 21.552 15.424 18.672C15.424 16.72 15.856 14.464 16.72 11.904C17.584 9.31201 18.912 7.58401 20.704 6.72001C21.248 6.59201 21.856 7.13601 22.528 8.35201ZM21.424 12.384C19.856 12.864 18.736 14.096 18.064 16.08C17.392 18.032 17.04 19.792 17.008 21.36C17.04 22.992 17.264 24.576 17.68 26.112C19.248 24.8 20.624 23.152 21.808 21.168C22.96 19.152 23.52 17.04 23.488 14.832C23.488 14.192 23.312 13.632 22.96 13.152C22.608 12.672 22.096 12.416 21.424 12.384ZM17.008 45.264C16.24 46.224 15.856 47.312 15.856 48.528C16.016 50.544 17.008 51.936 18.832 52.704L19.12 53.088L18.592 53.472C17.12 52.928 15.92 52.032 14.992 50.784C14.064 49.504 13.6 48.048 13.6 46.416C13.664 44.784 14.208 43.28 15.232 41.904C16.256 40.56 17.504 39.6 18.976 39.024L17.824 33.216C15.68 35.008 13.744 37.04 12.016 39.312C10.288 41.552 9.35999 44.144 9.23199 47.088C9.32799 50.128 10.384 52.48 12.4 54.144C14.448 55.84 16.912 56.64 19.792 56.544L22.288 56.064L19.792 43.296C18.672 43.648 17.744 44.304 17.008 45.264ZM20.944 43.152L23.488 55.68C25.984 54.304 27.248 52.16 27.28 49.248C27.12 47.424 26.464 45.968 25.312 44.88C24.16 43.76 22.704 43.184 20.944 43.152Z" fill="#1E1618"/>
<path d="M42.592 5.71199V12.912L45.136 12.24V4.79999H46.336V12L48.16 11.52V15.408L46.336 15.84V21.36L48.16 20.88V24.864L46.336 25.344V32.448H45.136V25.632L42.592 26.256V33.696H41.392V26.544L39.52 26.976V23.04L41.392 22.56V17.088L39.52 17.568V13.68L41.392 13.2V5.71199H42.592ZM42.592 16.8V22.272L45.136 21.6V16.128L42.592 16.8Z" fill="#1E1618"/>
<path d="M52.192 20.112V27.312L54.736 26.64V19.2H55.936V26.4L57.76 25.92V29.808L55.936 30.24V35.76L57.76 35.28V39.264L55.936 39.744V46.848H54.736V40.032L52.192 40.656V48.096H50.992V40.944L49.12 41.376V37.44L50.992 36.96V31.488L49.12 31.968V28.08L50.992 27.6V20.112H52.192ZM52.192 31.2V36.672L54.736 36V30.528L52.192 31.2Z" fill="#1E1618"/>
<path d="M61.792 0.912V8.112L64.336 7.44V0H65.536V7.2L67.36 6.72V10.608L65.536 11.04V16.56L67.36 16.08V20.064L65.536 20.544V27.648H64.336V20.832L61.792 21.456V28.896H60.592V21.744L58.72 22.176V18.24L60.592 17.76V12.288L58.72 12.768V8.88L60.592 8.4V0.912H61.792ZM61.792 12V17.472L64.336 16.8V11.328L61.792 12Z" fill="#1E1618"/>
<path d="M71.392 15.312V22.512L73.936 21.84V14.4H75.136V21.6L76.96 21.12V25.008L75.136 25.44V30.96L76.96 30.48V34.464L75.136 34.944V42.048H73.936V35.232L71.392 35.856V43.296H70.192V36.144L68.32 36.576V32.64L70.192 32.16V26.688L68.32 27.168V23.28L70.192 22.8V15.312H71.392ZM71.392 26.4V31.872L73.936 31.2V25.728L71.392 26.4Z" fill="#1E1618"/>
<path d="M80.992 29.712V36.912L83.536 36.24V28.8H84.736V36L86.56 35.52V39.408L84.736 39.84V45.36L86.56 44.88V48.864L84.736 49.344V56.448H83.536V49.632L80.992 50.256V57.696H79.792V50.544L77.92 50.976V47.04L79.792 46.56V41.088L77.92 41.568V37.68L79.792 37.2V29.712H80.992ZM80.992 40.8V46.272L83.536 45.6V40.128L80.992 40.8Z" fill="#1E1618"/>
<path d="M90.592 10.512V17.712L93.136 17.04V9.59998H94.336V16.8L96.16 16.32V20.208L94.336 20.64V26.16L96.16 25.68V29.664L94.336 30.144V37.248H93.136V30.432L90.592 31.056V38.496H89.392V31.344L87.52 31.776V27.84L89.392 27.36V21.888L87.52 22.368V18.48L89.392 18V10.512H90.592ZM90.592 21.6V27.072L93.136 26.4V20.928L90.592 21.6Z" fill="#1E1618"/>
</svg>
