<svg width="128" height="128" viewBox="0 0 128 128" fill="none" xmlns="http://www.w3.org/2000/svg">
<path d="M113.36 82.05H14V83.01H113.36V82.05Z" fill="#1E1618"/>
<path d="M113.36 72.45H14V73.41H113.36V72.45Z" fill="#1E1618"/>
<path d="M113.36 62.85H14V63.81H113.36V62.85Z" fill="#1E1618"/>
<path d="M113.36 53.25H14V54.21H113.36V53.25Z" fill="#1E1618"/>
<path d="M113.36 43.65H14V44.61H113.36V43.65Z" fill="#1E1618"/>
<path d="M36.528 32.802C37.2 34.05 37.792 35.586 38.304 37.41C38.816 39.17 39.104 40.818 39.168 42.354C39.008 47.794 36.896 52.578 32.832 56.706L34.08 63.138L35.568 62.994C38.064 63.058 40.08 64.002 41.616 65.826C43.12 67.65 43.888 69.826 43.92 72.354C43.888 74.434 43.312 76.21 42.192 77.682C41.072 79.186 39.584 80.386 37.728 81.282L39.312 89.058L39.408 90.834C39.28 94.866 37.088 97.17 32.832 97.746C31.168 97.906 29.616 97.49 28.176 96.498C26.736 95.506 25.888 94.146 25.632 92.418C25.568 91.202 25.856 90.114 26.496 89.154C27.168 88.226 28.08 87.666 29.232 87.474C30.256 87.378 31.152 87.698 31.92 88.434C32.688 89.138 33.104 90.034 33.168 91.122C33.136 92.594 32.64 93.602 31.68 94.146C30.72 94.722 29.904 94.93 29.232 94.77C29.36 95.41 29.824 95.874 30.624 96.162L32.736 96.45C36.256 95.906 38.048 94.002 38.112 90.738C38.144 89.874 38.048 88.946 37.824 87.954L36.48 81.81L33.024 82.338C29.632 82.242 26.768 80.994 24.432 78.594C22.096 76.194 20.752 73.138 20.4 69.426C20.272 65.714 21.312 62.402 23.52 59.49C25.728 56.61 28.08 53.986 30.576 51.618C29.84 48.834 29.456 46.002 29.424 43.122C29.424 41.17 29.856 38.914 30.72 36.354C31.584 33.762 32.912 32.034 34.704 31.17C35.248 31.042 35.856 31.586 36.528 32.802ZM35.424 36.834C33.856 37.314 32.736 38.546 32.064 40.53C31.392 42.482 31.04 44.242 31.008 45.81C31.04 47.442 31.264 49.026 31.68 50.562C33.248 49.25 34.624 47.602 35.808 45.618C36.96 43.602 37.52 41.49 37.488 39.282C37.488 38.642 37.312 38.082 36.96 37.602C36.608 37.122 36.096 36.866 35.424 36.834ZM31.008 69.714C30.24 70.674 29.856 71.762 29.856 72.978C30.016 74.994 31.008 76.386 32.832 77.154L33.12 77.538L32.592 77.922C31.12 77.378 29.92 76.482 28.992 75.234C28.064 73.954 27.6 72.498 27.6 70.866C27.664 69.234 28.208 67.73 29.232 66.354C30.256 65.01 31.504 64.05 32.976 63.474L31.824 57.666C29.68 59.458 27.744 61.49 26.016 63.762C24.288 66.002 23.36 68.594 23.232 71.538C23.328 74.578 24.384 76.93 26.4 78.594C28.448 80.29 30.912 81.09 33.792 80.994L36.288 80.514L33.792 67.746C32.672 68.098 31.744 68.754 31.008 69.714ZM34.944 67.602L37.488 80.13C39.984 78.754 41.248 76.61 41.28 73.698C41.12 71.874 40.464 70.418 39.312 69.33C38.16 68.21 36.704 67.634 34.944 67.602Z" fill="#1E1618"/>
<path d="M56.592 30.162V37.362L59.136 36.69V29.25H60.336V36.45L62.16 35.97V39.858L60.336 40.29V45.81L62.16 45.33V49.314L60.336 49.794V56.898H59.136V50.082L56.592 50.706V58.146H55.392V50.994L53.52 51.426V47.49L55.392 47.01V41.538L53.52 42.018V38.13L55.392 37.65V30.162H56.592ZM56.592 41.25V46.722L59.136 46.05V40.578L56.592 41.25Z" fill="#1E1618"/>
<path d="M66.192 44.562V51.762L68.736 51.09V43.65H69.936V50.85L71.76 50.37V54.258L69.936 54.69V60.21L71.76 59.73V63.714L69.936 64.194V71.298H68.736V64.482L66.192 65.106V72.546H64.992V65.394L63.12 65.826V61.89L64.992 61.41V55.938L63.12 56.418V52.53L64.992 52.05V44.562H66.192ZM66.192 55.65V61.122L68.736 60.45V54.978L66.192 55.65Z" fill="#1E1618"/>
<path d="M75.792 25.362V32.562L78.336 31.89V24.45H79.536V31.65L81.36 31.17V35.058L79.536 35.49V41.01L81.36 40.53V44.514L79.536 44.994V52.098H78.336V45.282L75.792 45.906V53.346H74.592V46.194L72.72 46.626V42.69L74.592 42.21V36.738L72.72 37.218V33.33L74.592 32.85V25.362H75.792ZM75.792 36.45V41.922L78.336 41.25V35.778L75.792 36.45Z" fill="#1E1618"/>
<path d="M85.392 39.762V46.962L87.936 46.29V38.85H89.136V46.05L90.96 45.57V49.458L89.136 49.89V55.41L90.96 54.93V58.914L89.136 59.394V66.498H87.936V59.682L85.392 60.306V67.746H84.192V60.594L82.32 61.026V57.09L84.192 56.61V51.138L82.32 51.618V47.73L84.192 47.25V39.762H85.392ZM85.392 50.85V56.322L87.936 55.65V50.178L85.392 50.85Z" fill="#1E1618"/>
<path d="M94.992 54.162V61.362L97.536 60.69V53.25H98.736V60.45L100.56 59.97V63.858L98.736 64.29V69.81L100.56 69.33V73.314L98.736 73.794V80.898H97.536V74.082L94.992 74.706V82.146H93.792V74.994L91.92 75.426V71.49L93.792 71.01V65.538L91.92 66.018V62.13L93.792 61.65V54.162H94.992ZM94.992 65.25V70.722L97.536 70.05V64.578L94.992 65.25Z" fill="#1E1618"/>
<path d="M104.592 34.962V42.162L107.136 41.49V34.05H108.336V41.25L110.16 40.77V44.658L108.336 45.09V50.61L110.16 50.13V54.114L108.336 54.594V61.698H107.136V54.882L104.592 55.506V62.946H103.392V55.794L101.52 56.226V52.29L103.392 51.81V46.338L101.52 46.818V42.93L103.392 42.45V34.962H104.592ZM104.592 46.05V51.522L107.136 50.85V45.378L104.592 46.05Z" fill="#1E1618"/>
</svg>
