<svg width="128" height="128" viewBox="0 0 128 128" fill="none" xmlns="http://www.w3.org/2000/svg">
<path d="M112.304 82.05H14V83.01H112.304V82.05Z" fill="#1E1618"/>
<path d="M112.304 72.45H14V73.41H112.304V72.45Z" fill="#1E1618"/>
<path d="M112.304 62.85H14V63.81H112.304V62.85Z" fill="#1E1618"/>
<path d="M112.304 53.25H14V54.21H112.304V53.25Z" fill="#1E1618"/>
<path d="M112.304 43.65H14V44.61H112.304V43.65Z" fill="#1E1618"/>
<path d="M36.528 32.802C37.2 34.05 37.792 35.586 38.304 37.41C38.816 39.17 39.104 40.818 39.168 42.354C39.008 47.794 36.896 52.578 32.832 56.706L34.08 63.138L35.568 62.994C38.064 63.058 40.08 64.002 41.616 65.826C43.12 67.65 43.888 69.826 43.92 72.354C43.888 74.434 43.312 76.21 42.192 77.682C41.072 79.186 39.584 80.386 37.728 81.282L39.312 89.058L39.408 90.834C39.28 94.866 37.088 97.17 32.832 97.746C31.168 97.906 29.616 97.49 28.176 96.498C26.736 95.506 25.888 94.146 25.632 92.418C25.568 91.202 25.856 90.114 26.496 89.154C27.168 88.226 28.08 87.666 29.232 87.474C30.256 87.378 31.152 87.698 31.92 88.434C32.688 89.138 33.104 90.034 33.168 91.122C33.136 92.594 32.64 93.602 31.68 94.146C30.72 94.722 29.904 94.93 29.232 94.77C29.36 95.41 29.824 95.874 30.624 96.162L32.736 96.45C36.256 95.906 38.048 94.002 38.112 90.738C38.144 89.874 38.048 88.946 37.824 87.954L36.48 81.81L33.024 82.338C29.632 82.242 26.768 80.994 24.432 78.594C22.096 76.194 20.752 73.138 20.4 69.426C20.272 65.714 21.312 62.402 23.52 59.49C25.728 56.61 28.08 53.986 30.576 51.618C29.84 48.834 29.456 46.002 29.424 43.122C29.424 41.17 29.856 38.914 30.72 36.354C31.584 33.762 32.912 32.034 34.704 31.17C35.248 31.042 35.856 31.586 36.528 32.802ZM35.424 36.834C33.856 37.314 32.736 38.546 32.064 40.53C31.392 42.482 31.04 44.242 31.008 45.81C31.04 47.442 31.264 49.026 31.68 50.562C33.248 49.25 34.624 47.602 35.808 45.618C36.96 43.602 37.52 41.49 37.488 39.282C37.488 38.642 37.312 38.082 36.96 37.602C36.608 37.122 36.096 36.866 35.424 36.834ZM31.008 69.714C30.24 70.674 29.856 71.762 29.856 72.978C30.016 74.994 31.008 76.386 32.832 77.154L33.12 77.538L32.592 77.922C31.12 77.378 29.92 76.482 28.992 75.234C28.064 73.954 27.6 72.498 27.6 70.866C27.664 69.234 28.208 67.73 29.232 66.354C30.256 65.01 31.504 64.05 32.976 63.474L31.824 57.666C29.68 59.458 27.744 61.49 26.016 63.762C24.288 66.002 23.36 68.594 23.232 71.538C23.328 74.578 24.384 76.93 26.4 78.594C28.448 80.29 30.912 81.09 33.792 80.994L36.288 80.514L33.792 67.746C32.672 68.098 31.744 68.754 31.008 69.714ZM34.944 67.602L37.488 80.13C39.984 78.754 41.248 76.61 41.28 73.698C41.12 71.874 40.464 70.418 39.312 69.33C38.16 68.21 36.704 67.634 34.944 67.602Z" fill="#1E1618"/>
<path d="M54.672 58.674C55.664 57.81 56.8 57.33 58.08 57.234C58.88 57.234 59.584 57.554 60.192 58.194C60.8 58.802 61.104 59.554 61.104 60.45C61.008 61.602 60.56 62.61 59.76 63.474L57.264 65.73L53.52 69.378V43.65H54.672V58.674ZM56.784 58.722C56.304 58.69 55.84 58.882 55.392 59.298C54.944 59.746 54.704 60.114 54.672 60.402V66.882L56.928 64.05C57.76 62.962 58.208 61.874 58.272 60.786C58.176 59.57 57.68 58.882 56.784 58.722Z" fill="#1E1618"/>
<path d="M64.272 44.274C65.264 43.41 66.4 42.93 67.68 42.834C68.48 42.834 69.184 43.154 69.792 43.794C70.4 44.402 70.704 45.154 70.704 46.05C70.608 47.202 70.16 48.21 69.36 49.074L66.864 51.33L63.12 54.978V29.25H64.272V44.274ZM66.384 44.322C65.904 44.29 65.44 44.482 64.992 44.898C64.544 45.346 64.304 45.714 64.272 46.002V52.482L66.528 49.65C67.36 48.562 67.808 47.474 67.872 46.386C67.776 45.17 67.28 44.482 66.384 44.322Z" fill="#1E1618"/>
<path d="M73.872 63.474C74.864 62.61 76 62.13 77.28 62.034C78.08 62.034 78.784 62.354 79.392 62.994C80 63.602 80.304 64.354 80.304 65.25C80.208 66.402 79.76 67.41 78.96 68.274L76.464 70.53L72.72 74.178V48.45H73.872V63.474ZM75.984 63.522C75.504 63.49 75.04 63.682 74.592 64.098C74.144 64.546 73.904 64.914 73.872 65.202V71.682L76.128 68.85C76.96 67.762 77.408 66.674 77.472 65.586C77.376 64.37 76.88 63.682 75.984 63.522Z" fill="#1E1618"/>
<path d="M83.472 49.074C84.464 48.21 85.6 47.73 86.88 47.634C87.68 47.634 88.384 47.954 88.992 48.594C89.6 49.202 89.904 49.954 89.904 50.85C89.808 52.002 89.36 53.01 88.56 53.874L86.064 56.13L82.32 59.778V34.05H83.472V49.074ZM85.584 49.122C85.104 49.09 84.64 49.282 84.192 49.698C83.744 50.146 83.504 50.514 83.472 50.802V57.282L85.728 54.45C86.56 53.362 87.008 52.274 87.072 51.186C86.976 49.97 86.48 49.282 85.584 49.122Z" fill="#1E1618"/>
<path d="M93.072 68.274C94.064 67.41 95.2 66.93 96.48 66.834C97.28 66.834 97.984 67.154 98.592 67.794C99.2 68.402 99.504 69.154 99.504 70.05C99.408 71.202 98.96 72.21 98.16 73.074L95.664 75.33L91.92 78.978V53.25H93.072V68.274ZM95.184 68.322C94.704 68.29 94.24 68.482 93.792 68.898C93.344 69.346 93.104 69.714 93.072 70.002V76.482L95.328 73.65C96.16 72.562 96.608 71.474 96.672 70.386C96.576 69.17 96.08 68.482 95.184 68.322Z" fill="#1E1618"/>
<path d="M102.672 53.874C103.664 53.01 104.8 52.53 106.08 52.434C106.88 52.434 107.584 52.754 108.192 53.394C108.8 54.002 109.104 54.754 109.104 55.65C109.008 56.802 108.56 57.81 107.76 58.674L105.264 60.93L101.52 64.578V38.85H102.672V53.874ZM104.784 53.922C104.304 53.89 103.84 54.082 103.392 54.498C102.944 54.946 102.704 55.314 102.672 55.602V62.082L104.928 59.25C105.76 58.162 106.208 57.074 106.272 55.986C106.176 54.77 105.68 54.082 104.784 53.922Z" fill="#1E1618"/>
</svg>
