<svg width="128" height="128" viewBox="0 0 128 128" fill="none" xmlns="http://www.w3.org/2000/svg">
<path d="M57.1379 14.5705C58.1846 16.5145 59.1067 18.907 59.9042 21.7481C60.7017 24.4895 61.1503 27.0565 61.25 29.449C61.0008 37.9226 57.7111 45.3743 51.3809 51.8042L53.3248 61.8229L55.6426 61.5986C59.5304 61.6983 62.6706 63.1687 65.0631 66.0098C67.4058 68.8509 68.6021 72.2403 68.6519 76.178C68.6021 79.4179 67.7049 82.1843 65.9603 84.4771C64.2158 86.8198 61.898 88.6889 59.007 90.0846L61.4743 102.197L61.6239 104.963C61.4245 111.243 58.0102 114.832 51.3809 115.729C48.789 115.979 46.3715 115.331 44.1285 113.785C41.8855 112.24 40.5647 110.122 40.1659 107.43C40.0662 105.536 40.5148 103.842 41.5117 102.346C42.5584 100.901 43.979 100.028 45.7734 99.7294C47.3684 99.5799 48.7641 100.078 49.9603 101.225C51.1566 102.321 51.8046 103.717 51.9042 105.412C51.8544 107.705 51.0818 109.275 49.5865 110.122C48.0912 111.019 46.8201 111.343 45.7734 111.094C45.9728 112.091 46.6955 112.814 47.9416 113.262L51.2313 113.711C56.7142 112.863 59.5055 109.898 59.6052 104.814C59.655 103.468 59.5055 102.022 59.1566 100.477L57.0631 90.907L51.6799 91.7294C46.3964 91.5799 41.9354 89.636 38.2968 85.8976C34.6581 82.1593 32.5647 77.3992 32.0164 71.6173C31.817 65.8353 33.4369 60.6765 36.8762 56.1406C40.3155 51.6547 43.979 47.5674 47.8669 43.879C46.7204 39.5425 46.1223 35.1313 46.0725 30.6453C46.0725 27.6048 46.7454 24.0908 48.0912 20.1033C49.4369 16.0659 51.5055 13.3743 54.2968 12.0285C55.1441 11.8291 56.0912 12.6765 57.1379 14.5705ZM55.4183 20.8509C52.9759 21.5986 51.2313 23.5176 50.1846 26.6079C49.1379 29.6484 48.5896 32.3899 48.5398 34.8322C48.5896 37.3743 48.9385 39.8416 49.5865 42.2341C52.0288 40.1905 54.1722 37.6235 56.0164 34.5332C57.8108 31.393 58.6831 28.1033 58.6332 24.664C58.6332 23.6671 58.3591 22.7948 57.8108 22.0472C57.2625 21.2995 56.465 20.9008 55.4183 20.8509ZM48.5398 72.0659C47.3435 73.5612 46.7454 75.2559 46.7454 77.15C46.9946 80.2902 48.5398 82.4584 51.3809 83.6547L51.8295 84.2528L51.007 84.8509C48.7142 84.0036 46.845 82.6079 45.3996 80.664C43.9541 78.6702 43.2313 76.4023 43.2313 73.8603C43.331 71.3182 44.1784 68.9755 45.7734 66.8322C47.3684 64.7388 49.3123 63.2434 51.6052 62.3462L49.8108 53.2995C46.4712 56.0908 43.4556 59.2559 40.7641 62.7948C38.0725 66.2839 36.627 70.3213 36.4276 74.907C36.5771 79.6422 38.222 83.3057 41.3622 85.8976C44.5522 88.5394 48.3902 89.7855 52.8762 89.636L56.7641 88.8883L52.8762 69.0005C51.1317 69.5487 49.6862 70.5705 48.5398 72.0659ZM54.6706 68.7762L58.6332 88.2902C62.5211 86.1469 64.4899 82.8073 64.5398 78.2715C64.2905 75.4304 63.2687 73.1624 61.4743 71.4677C59.6799 69.7232 57.412 68.826 54.6706 68.7762Z" fill="white"/>
<path d="M91.2667 18.2625V28.2292L94.8 27.299V17H96.4667V26.9668L99 26.3023V31.6844L96.4667 32.2824V39.9236L99 39.2591V44.7741L96.4667 45.4385V55.2724H94.8V45.8372L91.2667 46.701V57H89.6V47.0997L87 47.6977V42.2492L89.6 41.5847V34.01L87 34.6744V29.2924L89.6 28.6279V18.2625H91.2667ZM91.2667 33.6113V41.186L94.8 40.2558V32.6811L91.2667 33.6113Z" fill="white"/>
<path d="M89.6709 97.4384C91.1097 96.2631 92.7574 95.6101 94.6139 95.4795C95.7743 95.4795 96.7954 95.9148 97.6772 96.7854C98.5591 97.6126 99 98.6356 99 99.8545C98.8608 101.422 98.211 102.793 97.0506 103.968L93.4304 107.037L88 112V77H89.6709V97.4384ZM92.7342 97.5037C92.038 97.4602 91.365 97.7214 90.7152 98.2873C90.0654 98.8968 89.7173 99.3974 89.6709 99.7892V108.604L92.943 104.752C94.1498 103.272 94.7996 101.792 94.8924 100.312C94.7532 98.6573 94.0338 97.7214 92.7342 97.5037Z" fill="white"/>
</svg>
