<svg width="128" height="128" viewBox="0 0 128 128" fill="none" xmlns="http://www.w3.org/2000/svg">
<path d="M33.994 28.9734H31.6203V91.2808H33.994V28.9734Z" fill="white"/>
<path d="M34.1892 88.6098C33.9834 91.439 32.5173 93.8568 29.7909 95.863C26.9617 97.8692 24.0038 98.9237 20.9174 99.0266C18.9626 98.9752 17.3679 98.4607 16.1333 97.4834C14.8473 96.4031 14.1786 94.9885 14.1271 93.2395C14.3329 90.5645 15.799 88.224 18.5254 86.2178C21.2003 84.1601 23.9781 83.0799 26.8588 82.977C29.1222 82.9256 30.8712 83.3885 32.1058 84.3659C33.4433 85.2404 34.1377 86.655 34.1892 88.6098Z" fill="white"/>
<path d="M80.7521 29H77.7521V74H80.7521V29Z" fill="white"/>
<path d="M80.8728 72.5879C80.6671 75.4171 79.201 77.8349 76.4746 79.8411C73.6454 81.8473 70.6875 82.9018 67.6011 83.0047C65.6463 82.9533 64.0516 82.4388 62.817 81.4615C61.531 80.3812 60.8623 78.9666 60.8108 77.2176C61.0166 74.5426 62.4827 72.2021 65.209 70.1959C67.884 68.1382 70.6618 67.058 73.5425 66.9551C75.8059 66.9036 77.5549 67.3666 78.7895 68.344C80.1269 69.2185 80.8214 70.6331 80.8728 72.5879Z" fill="white"/>
<path d="M31.7521 29V37.099H80.7521V29H31.7521Z" fill="white"/>
<path d="M60.5045 41.1484V49.2474H80.7521V41.1484H60.5045Z" fill="white"/>
<path d="M113.873 51.8501C109.786 56.2982 107.552 60.3619 107.171 64.0412C107.225 66.3476 107.934 68.5442 109.296 70.631L113.546 76.3147L112.565 77.6326C110.985 76.754 109.459 76.2597 107.988 76.1499C106.572 76.095 105.4 76.754 104.474 78.1269C103.33 80.1587 103.193 82.0533 104.065 83.8105C104.882 85.5678 105.809 86.8583 106.844 87.682L105.945 89L100.06 83.8105C98.2078 81.8885 97.1453 79.637 96.8728 77.056C97.2543 73.3218 99.352 71.4272 103.166 71.3723C104.637 71.3723 106.326 71.894 108.233 72.9374V72.7727L97.9353 59.2636C99.8424 57.6161 101.45 55.6667 102.757 53.4152C104.065 51.1636 104.61 48.7474 104.392 46.1664C103.738 43.5305 102.458 41.1417 100.551 39H103.33L113.873 51.8501Z" fill="white"/>
</svg>
