<svg width="64" height="64" viewBox="0 0 64 64" fill="none" xmlns="http://www.w3.org/2000/svg">
<path d="M32.144 26.7152L32.048 27.1472C32.24 27.5632 32.56 27.6592 33.008 27.4352C34.544 26.7312 35.664 25.6432 36.368 24.1712H36.992L32.432 40.8752H31.088L34.784 27.7712C33.472 28.6032 32.08 29.0832 30.608 29.2112C29.648 29.1792 28.816 28.8752 28.112 28.2992C27.44 27.7232 27.072 26.9712 27.008 26.0432C27.04 24.5072 27.824 23.5472 29.36 23.1632C30.16 23.0352 30.848 23.2272 31.424 23.7392C32 24.2512 32.304 24.9232 32.336 25.7552L32.144 26.7152Z" fill="#1E1618"/>
</svg>
