<svg width="11" height="19" viewBox="0 0 11 19" fill="none" xmlns="http://www.w3.org/2000/svg">
<path d="M6.12001 3.86249L6.02401 4.29449C6.21601 4.71049 6.53601 4.80649 6.98401 4.58249C8.52001 3.87849 9.64001 2.7905 10.344 1.3185H10.968L6.40801 18.0225H5.06401L8.76001 4.91849C7.44801 5.75049 6.05601 6.23049 4.58401 6.35849C3.62401 6.32649 2.79201 6.02249 2.08801 5.44649C1.41601 4.87049 1.04801 4.11849 0.984009 3.19049C1.01601 1.65449 1.80001 0.694495 3.33601 0.310495C4.13601 0.182495 4.82401 0.374494 5.40001 0.886494C5.97601 1.39849 6.28001 2.07049 6.31201 2.90249L6.12001 3.86249Z" fill="white"/>
</svg>
