<svg width="64" height="64" viewBox="0 0 64 64" fill="none" xmlns="http://www.w3.org/2000/svg">
<path d="M36.2066 12.16H34.5266V43.84H36.2066V12.16Z" fill="white"/>
<path d="M27.8066 44.848C26.0786 46.096 25.1826 47.28 25.1186 48.4C25.0866 48.912 25.4066 49.2 26.0786 49.264C26.7506 49.296 27.5666 49.12 28.5266 48.736C29.4866 48.352 30.4466 47.824 31.4066 47.152L33.9506 44.944C34.6226 44.144 34.9586 43.44 34.9586 42.832C34.8626 42.448 34.5746 42.224 34.0946 42.16C33.1346 42.064 32.0146 42.336 30.7346 42.976C29.4866 43.648 28.5106 44.272 27.8066 44.848ZM34.7666 41.104C35.8866 42.032 36.3826 43.232 36.2546 44.704C36.0946 46.4 35.1666 47.84 33.4706 49.024C31.7746 50.208 30.0146 50.832 28.1906 50.896C27.1346 50.992 26.1746 50.8 25.3106 50.32C24.1586 49.392 23.6626 48.192 23.8226 46.72C23.9826 44.992 24.8946 43.552 26.5586 42.4C28.2226 41.216 29.9826 40.592 31.8386 40.528C32.9266 40.432 33.9026 40.624 34.7666 41.104Z" fill="white"/>
</svg>
