<svg width="18" height="40" viewBox="0 0 18 40" fill="none" xmlns="http://www.w3.org/2000/svg">
<path d="M13.1573 0H11.4773V31.68H13.1573V0Z" fill="white"/>
<path d="M4.75726 32.688C3.02926 33.936 2.13326 35.12 2.06926 36.24C2.03726 36.752 2.35726 37.04 3.02926 37.104C3.70126 37.136 4.51726 36.96 5.47726 36.576C6.43726 36.192 7.39726 35.664 8.35726 34.992L10.9013 32.784C11.5733 31.984 11.9093 31.28 11.9093 30.672C11.8133 30.288 11.5253 30.064 11.0453 30C10.0853 29.904 8.96526 30.176 7.68526 30.816C6.43726 31.488 5.46126 32.112 4.75726 32.688ZM11.7173 28.944C12.8373 29.872 13.3333 31.072 13.2053 32.544C13.0453 34.24 12.1173 35.68 10.4213 36.864C8.72526 38.048 6.96526 38.672 5.14126 38.736C4.08526 38.832 3.12526 38.64 2.26126 38.16C1.10926 37.232 0.613256 36.032 0.773256 34.56C0.933256 32.832 1.84526 31.392 3.50926 30.24C5.17326 29.056 6.93326 28.432 8.78926 28.368C9.87726 28.272 10.8533 28.464 11.7173 28.944Z" fill="white"/>
</svg>
