<svg width="10" height="30" viewBox="0 0 10 30" fill="none" xmlns="http://www.w3.org/2000/svg">
<path d="M9.984 7.7601C7.584 10.3521 6.272 12.7201 6.048 14.8641C6.08 16.2081 6.496 17.4881 7.296 18.7041L9.792 22.0161L9.216 22.7841C8.288 22.2721 7.392 21.9841 6.528 21.9201C5.696 21.8881 5.008 22.2721 4.464 23.0721C3.792 24.2561 3.712 25.3601 4.224 26.3841C4.704 27.4081 5.248 28.1601 5.856 28.6401L5.328 29.4081L1.872 26.3841C0.784 25.2641 0.16 23.9521 0 22.4481C0.224 20.2721 1.456 19.1681 3.696 19.1361C4.56 19.1361 5.552 19.4401 6.672 20.0481V19.9521L0.624 12.0801C1.744 11.1201 2.688 9.9841 3.456 8.6721C4.224 7.3601 4.544 5.9521 4.416 4.4481C4.032 2.9121 3.28 1.52009 2.16 0.272095H3.792L9.984 7.7601Z" fill="white"/>
</svg>
