<svg width="64" height="64" viewBox="0 0 64 64" fill="none" xmlns="http://www.w3.org/2000/svg">
<path d="M36.992 24.92C34.592 27.512 33.28 29.88 33.056 32.024C33.088 33.368 33.504 34.648 34.304 35.864L36.8 39.176L36.224 39.944C35.296 39.432 34.4 39.144 33.536 39.08C32.704 39.048 32.016 39.432 31.472 40.232C30.8 41.416 30.72 42.52 31.232 43.544C31.712 44.568 32.256 45.32 32.864 45.8L32.336 46.568L28.88 43.544C27.792 42.424 27.168 41.112 27.008 39.608C27.232 37.432 28.464 36.328 30.704 36.296C31.568 36.296 32.56 36.6 33.68 37.208V37.112L27.632 29.24C28.752 28.28 29.696 27.144 30.464 25.832C31.232 24.52 31.552 23.112 31.424 21.608C31.04 20.072 30.288 18.68 29.168 17.432H30.8L36.992 24.92Z" fill="white"/>
</svg>
