<svg width="43" height="39" viewBox="0 0 43 39" fill="none" xmlns="http://www.w3.org/2000/svg">
<path d="M13.0778 0H11.3978V31.68H13.0778V0Z" fill="white"/>
<path d="M13.1258 32.1119C12.9978 33.8719 12.0858 35.3759 10.3898 36.6239C8.62981 37.8719 6.78981 38.5279 4.86981 38.5919C3.65381 38.5599 2.66181 38.2399 1.89381 37.6319C1.09381 36.9599 0.677813 36.0799 0.645813 34.9919C0.773813 33.3279 1.68581 31.8719 3.38181 30.6239C5.04581 29.3439 6.77381 28.6719 8.56581 28.6079C9.97381 28.5759 11.0618 28.8639 11.8298 29.4719C12.6618 30.0159 13.0938 30.8959 13.1258 32.1119Z" fill="white"/>
<path d="M42.1184 0H40.4384V31.68H42.1184V0Z" fill="white"/>
<path d="M42.1664 32.1119C42.0384 33.8719 41.1264 35.3759 39.4304 36.6239C37.6704 37.8719 35.8304 38.5279 33.9104 38.5919C32.6944 38.5599 31.7024 38.2399 30.9344 37.6319C30.1344 36.9599 29.7184 36.0799 29.6864 34.9919C29.8144 33.3279 30.7264 31.8719 32.4224 30.6239C34.0864 29.3439 35.8144 28.6719 37.6064 28.6079C39.0144 28.5759 40.1024 28.8639 40.8704 29.4719C41.7024 30.0159 42.1344 30.8959 42.1664 32.1119Z" fill="white"/>
<path d="M13.0779 0V4.8H42.1184V0H13.0779Z" fill="white"/>
<path d="M30.1184 7.19995V12H42.1184V7.19995H30.1184Z" fill="white"/>
</svg>
