<svg width="144" height="64" viewBox="0 0 144 64" fill="none" xmlns="http://www.w3.org/2000/svg">
<path d="M40.0053 12.704H38.3253V44.384H40.0053V12.704Z" fill="white"/>
<path d="M40.0532 44.816C39.9252 46.576 39.0132 48.08 37.3172 49.328C35.5572 50.576 33.7172 51.232 31.7972 51.296C30.5812 51.264 29.5892 50.944 28.8212 50.336C28.0212 49.664 27.6052 48.784 27.5732 47.696C27.7012 46.032 28.6132 44.576 30.3092 43.328C31.9732 42.048 33.7012 41.376 35.4932 41.312C36.9012 41.28 37.9892 41.568 38.7572 42.176C39.5892 42.72 40.0212 43.6 40.0532 44.816Z" fill="white"/>
<path d="M67.7674 12.704H66.0874V44.384H67.7674V12.704Z" fill="white"/>
<path d="M67.8153 44.816C67.6873 46.576 66.7753 48.08 65.0793 49.328C63.3193 50.576 61.4793 51.232 59.5593 51.296C58.3433 51.264 57.3513 50.944 56.5833 50.336C55.7833 49.664 55.3673 48.784 55.3353 47.696C55.4633 46.032 56.3753 44.576 58.0713 43.328C59.7353 42.048 61.4633 41.376 63.2553 41.312C64.6633 41.28 65.7513 41.568 66.5193 42.176C67.3513 42.72 67.7833 43.6 67.8153 44.816Z" fill="white"/>
<path d="M95.5295 12.704H93.8495V44.384H95.5295V12.704Z" fill="white"/>
<path d="M95.5774 44.816C95.4494 46.576 94.5374 48.08 92.8414 49.328C91.0814 50.576 89.2414 51.232 87.3214 51.296C86.1054 51.264 85.1134 50.944 84.3454 50.336C83.5454 49.664 83.1294 48.784 83.0974 47.696C83.2254 46.032 84.1374 44.576 85.8334 43.328C87.4974 42.048 89.2254 41.376 91.0174 41.312C92.4254 41.28 93.5134 41.568 94.2814 42.176C95.1134 42.72 95.5454 43.6 95.5774 44.816Z" fill="white"/>
<path d="M116.379 12.704H114.699V44.384H116.379V12.704Z" fill="white"/>
<path d="M116.427 44.816C116.299 46.576 115.387 48.08 113.691 49.328C111.931 50.576 110.091 51.232 108.171 51.296C106.955 51.264 105.963 50.944 105.195 50.336C104.395 49.664 103.979 48.784 103.947 47.696C104.075 46.032 104.987 44.576 106.683 43.328C108.347 42.048 110.075 41.376 111.867 41.312C113.275 41.28 114.363 41.568 115.131 42.176C115.963 42.72 116.395 43.6 116.427 44.816Z" fill="white"/>
<path d="M40.0052 12.704V17.504H116.379V12.704H40.0052Z" fill="white"/>
<path d="M95.5295 19.904V24.704H116.379V19.904H95.5295Z" fill="white"/>
</svg>
