<svg width="64" height="64" viewBox="0 0 64 64" fill="none" xmlns="http://www.w3.org/2000/svg">
<path d="M21.4219 12.7038H19.7419V44.3838H21.4219V12.7038Z" fill="white"/>
<path d="M21.4699 44.8159C21.3419 46.5759 20.4299 48.0799 18.7339 49.3279C16.9739 50.5759 15.1339 51.2319 13.2139 51.2959C11.9979 51.2639 11.0059 50.9439 10.2379 50.3359C9.43794 49.6639 9.02194 48.7839 8.98994 47.6959C9.11794 46.0319 10.0299 44.5759 11.7259 43.3279C13.3899 42.0479 15.1179 41.3759 16.9099 41.3119C18.3179 41.2799 19.4059 41.5679 20.1739 42.1759C21.0059 42.7199 21.4379 43.5999 21.4699 44.8159Z" fill="white"/>
<path d="M48.9141 12.7038H47.2341V44.3838H48.9141V12.7038Z" fill="white"/>
<path d="M48.9621 44.8162C48.8341 46.5762 47.9221 48.0802 46.2261 49.3282C44.4661 50.5762 42.6261 51.2322 40.7061 51.2962C39.4901 51.2642 38.4981 50.9442 37.7301 50.3362C36.9301 49.6642 36.5141 48.7842 36.4821 47.6962C36.6101 46.0322 37.5221 44.5762 39.2181 43.3282C40.8821 42.0482 42.6101 41.3762 44.4021 41.3122C45.8101 41.2802 46.8981 41.5682 47.6661 42.1762C48.4981 42.7202 48.9301 43.6002 48.9621 44.8162Z" fill="white"/>
<path d="M55.0101 41.3602C54.8821 42.4482 54.2741 43.0722 53.1861 43.2322C52.0661 43.0722 51.4581 42.4482 51.3621 41.3602C51.4581 40.2722 52.0661 39.6802 53.1861 39.5842C54.2741 39.6802 54.8821 40.2722 55.0101 41.3602Z" fill="white"/>
<path d="M21.4219 12.7038V17.5038H48.9141V12.7038H21.4219Z" fill="white"/>
<path d="M36.9141 19.9037V24.7037H48.9141V19.9037H36.9141Z" fill="white"/>
</svg>
