<svg width="65" height="39" viewBox="0 0 65 39" fill="none" xmlns="http://www.w3.org/2000/svg">
<path d="M12.7034 0H11.0234V31.68H12.7034V0Z" fill="white"/>
<path d="M12.7514 32.1119C12.6234 33.8719 11.7114 35.3759 10.0154 36.6239C8.25536 37.8719 6.41536 38.5279 4.49536 38.5919C3.27936 38.5599 2.28736 38.2399 1.51936 37.6319C0.719362 36.9599 0.303362 36.0799 0.271362 34.9919C0.399362 33.3279 1.31136 31.8719 3.00736 30.6239C4.67136 29.3439 6.39936 28.6719 8.19136 28.6079C9.59936 28.5759 10.6874 28.8639 11.4554 29.4719C12.2874 30.0159 12.7194 30.8959 12.7514 32.1119Z" fill="white"/>
<path d="M41.7439 0H40.0639V31.68H41.7439V0Z" fill="white"/>
<path d="M41.7919 32.1119C41.6639 33.8719 40.7519 35.3759 39.0559 36.6239C37.2959 37.8719 35.4559 38.5279 33.5359 38.5919C32.3199 38.5599 31.3279 38.2399 30.5599 37.6319C29.7599 36.9599 29.3439 36.0799 29.3119 34.9919C29.4399 33.3279 30.3519 31.8719 32.0479 30.6239C33.7119 29.3439 35.4399 28.6719 37.2319 28.6079C38.6399 28.5759 39.7279 28.8639 40.4959 29.4719C41.3279 30.0159 41.7599 30.8959 41.7919 32.1119Z" fill="white"/>
<path d="M64.2795 0H62.5995V31.68H64.2795V0Z" fill="white"/>
<path d="M64.3275 32.1119C64.1995 33.8719 63.2875 35.3759 61.5915 36.6239C59.8315 37.8719 57.9915 38.5279 56.0715 38.5919C54.8555 38.5599 53.8635 38.2399 53.0955 37.6319C52.2955 36.9599 51.8795 36.0799 51.8475 34.9919C51.9755 33.3279 52.8875 31.8719 54.5835 30.6239C56.2475 29.3439 57.9755 28.6719 59.7675 28.6079C61.1755 28.5759 62.2635 28.8639 63.0315 29.4719C63.8635 30.0159 64.2955 30.8959 64.3275 32.1119Z" fill="white"/>
<path d="M12.7034 0V4.8H64.2795V0H12.7034Z" fill="white"/>
<path d="M41.744 7.19995V12H64.2795V7.19995H41.744Z" fill="white"/>
</svg>
