<svg width="27" height="40" viewBox="0 0 27 40" fill="none" xmlns="http://www.w3.org/2000/svg">
<path d="M13.0212 0H11.3412V31.68H13.0212V0Z" fill="white"/>
<path d="M22.2852 18.672C22.2532 20.688 21.8692 22.608 21.1332 24.432L18.9732 28.8H18.3972L20.0772 24.816C20.6852 23.216 20.9892 21.504 20.9892 19.68C20.8932 17.504 20.1732 15.552 18.8292 13.824C18.0932 12.864 17.1812 12.064 16.0932 11.424C15.0052 10.784 13.9172 10.4 12.8292 10.272V11.04H11.8212V0H12.8292L13.3572 3.168C13.5812 4.352 14.1732 5.552 15.1332 6.768L19.5492 11.76C21.2452 13.808 22.1572 16.112 22.2852 18.672Z" fill="white"/>
<path d="M13.0692 32.1119C12.9412 33.8719 12.0292 35.3759 10.3332 36.6239C8.57323 37.8719 6.73323 38.5279 4.81323 38.5919C3.59723 38.5599 2.60523 38.2399 1.83723 37.6319C1.03723 36.9599 0.621233 36.0799 0.589233 34.9919C0.717233 33.3279 1.62923 31.8719 3.32523 30.6239C4.98923 29.3439 6.71723 28.6719 8.50923 28.6079C9.91723 28.5759 11.0052 28.8639 11.7732 29.4719C12.6052 30.0159 13.0372 30.8959 13.0692 32.1119Z" fill="white"/>
</svg>
