<svg width="89" height="40" viewBox="0 0 89 40" fill="none" xmlns="http://www.w3.org/2000/svg">
<path d="M12.4669 0.679993H10.7869V32.36H12.4669V0.679993Z" fill="white"/>
<path d="M12.5149 32.792C12.3869 34.552 11.4749 36.056 9.77885 37.304C8.01885 38.552 6.17885 39.208 4.25885 39.272C3.04285 39.24 2.05085 38.92 1.28285 38.312C0.482851 37.64 0.0668511 36.76 0.0348511 35.672C0.162851 34.008 1.07485 32.552 2.77085 31.304C4.43485 30.024 6.16285 29.352 7.95485 29.288C9.36285 29.256 10.4509 29.544 11.2189 30.152C12.0509 30.696 12.4829 31.576 12.5149 32.792Z" fill="white"/>
<path d="M40.229 0.679993H38.549V32.36H40.229V0.679993Z" fill="white"/>
<path d="M40.2769 32.792C40.1489 34.552 39.2369 36.056 37.5409 37.304C35.7809 38.552 33.9409 39.208 32.0209 39.272C30.8049 39.24 29.8129 38.92 29.0449 38.312C28.2449 37.64 27.8289 36.76 27.7969 35.672C27.9249 34.008 28.8369 32.552 30.5329 31.304C32.1969 30.024 33.9249 29.352 35.7169 29.288C37.1249 29.256 38.2129 29.544 38.9809 30.152C39.8129 30.696 40.2449 31.576 40.2769 32.792Z" fill="white"/>
<path d="M67.9911 0.679993H66.3111V32.36H67.9911V0.679993Z" fill="white"/>
<path d="M68.039 32.792C67.911 34.552 66.999 36.056 65.303 37.304C63.543 38.552 61.703 39.208 59.783 39.272C58.567 39.24 57.575 38.92 56.807 38.312C56.007 37.64 55.591 36.76 55.559 35.672C55.687 34.008 56.599 32.552 58.295 31.304C59.959 30.024 61.687 29.352 63.479 29.288C64.887 29.256 65.975 29.544 66.743 30.152C67.575 30.696 68.007 31.576 68.039 32.792Z" fill="white"/>
<path d="M88.8405 0.679993H87.1605V32.36H88.8405V0.679993Z" fill="white"/>
<path d="M88.8884 32.792C88.7604 34.552 87.8484 36.056 86.1524 37.304C84.3924 38.552 82.5524 39.208 80.6324 39.272C79.4164 39.24 78.4244 38.92 77.6564 38.312C76.8564 37.64 76.4404 36.76 76.4084 35.672C76.5364 34.008 77.4484 32.552 79.1444 31.304C80.8084 30.024 82.5364 29.352 84.3284 29.288C85.7364 29.256 86.8244 29.544 87.5924 30.152C88.4244 30.696 88.8564 31.576 88.8884 32.792Z" fill="white"/>
<path d="M12.4669 0.679993V5.47999H88.8404V0.679993H12.4669Z" fill="white"/>
<path d="M67.9911 7.88V12.68H88.8405V7.88H67.9911Z" fill="white"/>
</svg>
