<svg width="144" height="64" viewBox="0 0 144 64" fill="none" xmlns="http://www.w3.org/2000/svg">
<path d="M28.2787 12.704H26.5987V44.384H28.2787V12.704Z" fill="#1E1618"/>
<path d="M28.3266 44.816C28.1986 46.576 27.2866 48.08 25.5906 49.328C23.8306 50.576 21.9906 51.232 20.0706 51.296C18.8546 51.264 17.8626 50.944 17.0946 50.336C16.2946 49.664 15.8786 48.784 15.8466 47.696C15.9746 46.032 16.8866 44.576 18.5826 43.328C20.2466 42.048 21.9746 41.376 23.7666 41.312C25.1746 41.28 26.2626 41.568 27.0306 42.176C27.8626 42.72 28.2946 43.6 28.3266 44.816Z" fill="#1E1618"/>
<path d="M68.1775 12.704H66.4975V44.384H68.1775V12.704Z" fill="#1E1618"/>
<path d="M68.2254 44.816C68.0974 46.576 67.1854 48.08 65.4894 49.328C63.7294 50.576 61.8894 51.232 59.9694 51.296C58.7534 51.264 57.7614 50.944 56.9934 50.336C56.1934 49.664 55.7774 48.784 55.7454 47.696C55.8734 46.032 56.7854 44.576 58.4814 43.328C60.1454 42.048 61.8734 41.376 63.6654 41.312C65.0734 41.28 66.1614 41.568 66.9294 42.176C67.7614 42.72 68.1934 43.6 68.2254 44.816Z" fill="#1E1618"/>
<path d="M98.1415 12.704H96.4615V44.384H98.1415V12.704Z" fill="#1E1618"/>
<path d="M98.1894 44.816C98.0614 46.576 97.1494 48.08 95.4534 49.328C93.6934 50.576 91.8534 51.232 89.9334 51.296C88.7174 51.264 87.7254 50.944 86.9574 50.336C86.1574 49.664 85.7414 48.784 85.7094 47.696C85.8374 46.032 86.7494 44.576 88.4454 43.328C90.1094 42.048 91.8374 41.376 93.6294 41.312C95.0374 41.28 96.1254 41.568 96.8934 42.176C97.7254 42.72 98.1574 43.6 98.1894 44.816Z" fill="#1E1618"/>
<path d="M128.105 12.704H126.425V44.384H128.105V12.704Z" fill="#1E1618"/>
<path d="M128.153 44.816C128.025 46.576 127.113 48.08 125.417 49.328C123.657 50.576 121.817 51.232 119.897 51.296C118.681 51.264 117.689 50.944 116.921 50.336C116.121 49.664 115.705 48.784 115.673 47.696C115.801 46.032 116.713 44.576 118.409 43.328C120.073 42.048 121.801 41.376 123.593 41.312C125.001 41.28 126.089 41.568 126.857 42.176C127.689 42.72 128.121 43.6 128.153 44.816Z" fill="#1E1618"/>
<path d="M28.2787 12.704V17.504H128.105V12.704H28.2787Z" fill="#1E1618"/>
<path d="M68.1776 19.904V24.704H98.1415V19.904H68.1776Z" fill="#1E1618"/>
</svg>
