<svg width="64" height="64" viewBox="0 0 64 64" fill="none" xmlns="http://www.w3.org/2000/svg">
<path d="M19.8973 12.7039H18.2173V44.3839H19.8973V12.7039Z" fill="#1E1618"/>
<path d="M19.9453 44.816C19.8173 46.576 18.9053 48.08 17.2093 49.328C15.4493 50.576 13.6093 51.232 11.6893 51.296C10.4733 51.264 9.48132 50.944 8.71332 50.336C7.91332 49.664 7.49732 48.784 7.46532 47.696C7.59332 46.032 8.50532 44.576 10.2013 43.328C11.8653 42.048 13.5933 41.376 15.3853 41.312C16.7933 41.28 17.8813 41.568 18.6493 42.176C19.4813 42.72 19.9133 43.6 19.9453 44.816Z" fill="#1E1618"/>
<path d="M25.9933 41.3599C25.8653 42.4479 25.2573 43.0719 24.1693 43.2319C23.0493 43.0719 22.4413 42.4479 22.3453 41.3599C22.4413 40.2719 23.0493 39.6799 24.1693 39.5839C25.2573 39.6799 25.8653 40.2719 25.9933 41.3599Z" fill="#1E1618"/>
<path d="M56.4868 12.7039H54.8068V44.3839H56.4868V12.7039Z" fill="#1E1618"/>
<path d="M56.5347 44.8159C56.4067 46.5759 55.4947 48.0799 53.7987 49.3279C52.0387 50.5759 50.1987 51.2319 48.2787 51.2959C47.0627 51.2639 46.0707 50.9439 45.3027 50.3359C44.5027 49.6639 44.0867 48.7839 44.0547 47.6959C44.1827 46.0319 45.0947 44.5759 46.7907 43.3279C48.4547 42.0479 50.1827 41.3759 51.9747 41.3119C53.3827 41.2799 54.4707 41.5679 55.2387 42.1759C56.0707 42.7199 56.5027 43.5999 56.5347 44.8159Z" fill="#1E1618"/>
<path d="M19.8973 12.7039V17.5039H56.4868V12.7039H19.8973Z" fill="#1E1618"/>
<path d="M44.4867 19.9039V24.7039H56.4867V19.9039H44.4867Z" fill="#1E1618"/>
</svg>
