<svg width="50" height="39" viewBox="0 0 50 39" fill="none" xmlns="http://www.w3.org/2000/svg">
<path d="M12.6185 0H10.9385V31.68H12.6185V0Z" fill="white"/>
<path d="M12.6665 32.1121C12.5385 33.8721 11.6265 35.3761 9.93052 36.6241C8.17052 37.8721 6.33052 38.5281 4.41052 38.5921C3.19452 38.5601 2.20252 38.2401 1.43452 37.6321C0.634523 36.9601 0.218523 36.0801 0.186523 34.9921C0.314523 33.3281 1.22652 31.8721 2.92252 30.6241C4.58652 29.3441 6.31452 28.6721 8.10652 28.6081C9.51452 28.5761 10.6025 28.8641 11.3705 29.4721C12.2025 30.0161 12.6345 30.8961 12.6665 32.1121Z" fill="white"/>
<path d="M18.7145 28.656C18.5865 29.744 17.9785 30.368 16.8905 30.528C15.7705 30.368 15.1625 29.744 15.0665 28.656C15.1625 27.568 15.7705 26.976 16.8905 26.88C17.9785 26.976 18.5865 27.568 18.7145 28.656Z" fill="white"/>
<path d="M49.208 0H47.528V31.68H49.208V0Z" fill="white"/>
<path d="M49.2559 32.112C49.1279 33.872 48.2159 35.376 46.5199 36.624C44.7599 37.872 42.9199 38.528 40.9999 38.592C39.7839 38.56 38.7919 38.24 38.0239 37.632C37.2239 36.96 36.8079 36.08 36.7759 34.992C36.9039 33.328 37.8159 31.872 39.5119 30.624C41.1759 29.344 42.9039 28.672 44.6959 28.608C46.1039 28.576 47.1919 28.864 47.9599 29.472C48.7919 30.016 49.2239 30.896 49.2559 32.112Z" fill="white"/>
<path d="M12.6185 0V4.8H49.208V0H12.6185Z" fill="white"/>
<path d="M37.2079 7.19995V12H49.2079V7.19995H37.2079Z" fill="white"/>
</svg>
