<svg width="42" height="39" viewBox="0 0 42 39" fill="none" xmlns="http://www.w3.org/2000/svg">
<path d="M12.5573 0H10.8773V31.68H12.5573V0Z" fill="white"/>
<path d="M12.6052 32.1121C12.4772 33.8721 11.5652 35.3761 9.86924 36.6241C8.10924 37.8721 6.26924 38.5281 4.34924 38.5921C3.13324 38.5601 2.14124 38.2401 1.37324 37.6321C0.573244 36.9601 0.157244 36.0801 0.125244 34.9921C0.253244 33.3281 1.16524 31.8721 2.86124 30.6241C4.52524 29.3441 6.25324 28.6721 8.04524 28.6081C9.45324 28.5761 10.5412 28.8641 11.3092 29.4721C12.1412 30.0161 12.5732 30.8961 12.6052 32.1121Z" fill="white"/>
<path d="M41.5978 0H39.9178V31.68H41.5978V0Z" fill="white"/>
<path d="M41.6458 32.1121C41.5178 33.8721 40.6058 35.3761 38.9098 36.6241C37.1498 37.8721 35.3098 38.5281 33.3898 38.5921C32.1738 38.5601 31.1818 38.2401 30.4138 37.6321C29.6138 36.9601 29.1978 36.0801 29.1658 34.9921C29.2938 33.3281 30.2058 31.8721 31.9018 30.6241C33.5658 29.3441 35.2938 28.6721 37.0858 28.6081C38.4938 28.5761 39.5818 28.8641 40.3498 29.4721C41.1818 30.0161 41.6138 30.8961 41.6458 32.1121Z" fill="white"/>
<path d="M12.5572 0V4.8H41.5978V0H12.5572Z" fill="white"/>
</svg>
