<svg width="64" height="64" viewBox="0 0 64 64" fill="none" xmlns="http://www.w3.org/2000/svg">
<path d="M23.6717 12.704H21.9917V44.384H23.6717V12.704Z" fill="#1E1618"/>
<path d="M23.7197 44.8159C23.5917 46.5759 22.6797 48.0799 20.9837 49.3279C19.2237 50.5759 17.3837 51.2319 15.4637 51.2959C14.2477 51.2639 13.2557 50.9439 12.4877 50.3359C11.6877 49.6639 11.2717 48.7839 11.2397 47.6959C11.3677 46.0319 12.2797 44.5759 13.9757 43.3279C15.6397 42.0479 17.3677 41.3759 19.1597 41.3119C20.5677 41.2799 21.6557 41.5679 22.4237 42.1759C23.2557 42.7199 23.6877 43.5999 23.7197 44.8159Z" fill="#1E1618"/>
<path d="M52.7123 12.704H51.0323V44.384H52.7123V12.704Z" fill="#1E1618"/>
<path d="M52.7603 44.8159C52.6323 46.5759 51.7203 48.0799 50.0243 49.3279C48.2643 50.5759 46.4243 51.2319 44.5043 51.2959C43.2883 51.2639 42.2963 50.9439 41.5283 50.3359C40.7283 49.6639 40.3123 48.7839 40.2803 47.6959C40.4083 46.0319 41.3203 44.5759 43.0163 43.3279C44.6803 42.0479 46.4083 41.3759 48.2003 41.3119C49.6083 41.2799 50.6963 41.5679 51.4643 42.1759C52.2963 42.7199 52.7283 43.5999 52.7603 44.8159Z" fill="#1E1618"/>
<path d="M23.6717 12.704V17.504H52.7123V12.704H23.6717Z" fill="#1E1618"/>
<path d="M40.7123 19.904V24.704H52.7123V19.904H40.7123Z" fill="#1E1618"/>
</svg>
