<svg width="64" height="64" viewBox="0 0 64 64" fill="none" xmlns="http://www.w3.org/2000/svg">
<path d="M23.6717 12.7039H21.9917V44.3839H23.6717V12.7039Z" fill="#1E1618"/>
<path d="M23.7197 44.816C23.5917 46.576 22.6797 48.08 20.9837 49.328C19.2237 50.576 17.3837 51.232 15.4637 51.296C14.2477 51.264 13.2557 50.944 12.4877 50.336C11.6877 49.664 11.2717 48.784 11.2397 47.696C11.3677 46.032 12.2797 44.576 13.9757 43.328C15.6397 42.048 17.3677 41.376 19.1597 41.312C20.5677 41.28 21.6557 41.568 22.4237 42.176C23.2557 42.72 23.6877 43.6 23.7197 44.816Z" fill="#1E1618"/>
<path d="M52.7123 12.7039H51.0323V44.3839H52.7123V12.7039Z" fill="#1E1618"/>
<path d="M52.7603 44.816C52.6323 46.576 51.7203 48.08 50.0243 49.328C48.2643 50.576 46.4243 51.232 44.5043 51.296C43.2883 51.264 42.2963 50.944 41.5283 50.336C40.7283 49.664 40.3123 48.784 40.2803 47.696C40.4083 46.032 41.3203 44.576 43.0163 43.328C44.6803 42.048 46.4083 41.376 48.2003 41.312C49.6083 41.28 50.6963 41.568 51.4643 42.176C52.2963 42.72 52.7283 43.6 52.7603 44.816Z" fill="#1E1618"/>
<path d="M23.6717 12.7039V17.5039H52.7123V12.7039H23.6717Z" fill="#1E1618"/>
</svg>
