<svg width="114" height="40" viewBox="0 0 114 40" fill="none" xmlns="http://www.w3.org/2000/svg">
<path d="M13.2193 0.679993H11.5393V32.36H13.2193V0.679993Z" fill="white"/>
<path d="M13.2672 32.792C13.1392 34.552 12.2272 36.056 10.5312 37.304C8.77123 38.552 6.93123 39.208 5.01123 39.272C3.79523 39.24 2.80323 38.92 2.03523 38.312C1.23523 37.64 0.819231 36.76 0.787231 35.672C0.915231 34.008 1.82723 32.552 3.52323 31.304C5.18723 30.024 6.91523 29.352 8.70723 29.288C10.1152 29.256 11.2032 29.544 11.9712 30.152C12.8032 30.696 13.2352 31.576 13.2672 32.792Z" fill="white"/>
<path d="M53.1181 0.679993H51.4381V32.36H53.1181V0.679993Z" fill="white"/>
<path d="M53.166 32.792C53.038 34.552 52.126 36.056 50.43 37.304C48.67 38.552 46.83 39.208 44.91 39.272C43.694 39.24 42.702 38.92 41.934 38.312C41.134 37.64 40.718 36.76 40.686 35.672C40.814 34.008 41.726 32.552 43.422 31.304C45.086 30.024 46.814 29.352 48.606 29.288C50.014 29.256 51.102 29.544 51.87 30.152C52.702 30.696 53.134 31.576 53.166 32.792Z" fill="white"/>
<path d="M83.0821 0.679993H81.4021V32.36H83.0821V0.679993Z" fill="white"/>
<path d="M83.13 32.792C83.002 34.552 82.09 36.056 80.394 37.304C78.634 38.552 76.794 39.208 74.874 39.272C73.658 39.24 72.666 38.92 71.898 38.312C71.098 37.64 70.682 36.76 70.65 35.672C70.778 34.008 71.69 32.552 73.386 31.304C75.05 30.024 76.778 29.352 78.57 29.288C79.978 29.256 81.066 29.544 81.834 30.152C82.666 30.696 83.098 31.576 83.13 32.792Z" fill="white"/>
<path d="M113.046 0.679993H111.366V32.36H113.046V0.679993Z" fill="white"/>
<path d="M113.094 32.792C112.966 34.552 112.054 36.056 110.358 37.304C108.598 38.552 106.758 39.208 104.838 39.272C103.622 39.24 102.63 38.92 101.862 38.312C101.062 37.64 100.646 36.76 100.614 35.672C100.742 34.008 101.654 32.552 103.35 31.304C105.014 30.024 106.742 29.352 108.534 29.288C109.942 29.256 111.03 29.544 111.798 30.152C112.63 30.696 113.062 31.576 113.094 32.792Z" fill="white"/>
<path d="M13.2194 0.679993V5.47999H113.046V0.679993H13.2194Z" fill="white"/>
<path d="M53.1182 7.88V12.68H83.0821V7.88H53.1182Z" fill="white"/>
</svg>
