<svg width="36" height="39" viewBox="0 0 36 39" fill="none" xmlns="http://www.w3.org/2000/svg">
<path d="M12.6879 0H11.0079V31.68H12.6879V0Z" fill="white"/>
<path d="M12.7359 32.1119C12.6079 33.8719 11.6959 35.3759 9.99992 36.6239C8.23992 37.8719 6.39992 38.5279 4.47992 38.5919C3.26392 38.5599 2.27192 38.2399 1.50392 37.6319C0.70392 36.9599 0.28792 36.0799 0.25592 34.9919C0.38392 33.3279 1.29592 31.8719 2.99192 30.6239C4.65592 29.3439 6.38392 28.6719 8.17592 28.6079C9.58392 28.5759 10.6719 28.8639 11.4399 29.4719C12.2719 30.0159 12.7039 30.8959 12.7359 32.1119Z" fill="white"/>
<path d="M35.2234 0H33.5434V31.68H35.2234V0Z" fill="white"/>
<path d="M35.2714 32.1119C35.1434 33.8719 34.2314 35.3759 32.5354 36.6239C30.7754 37.8719 28.9354 38.5279 27.0154 38.5919C25.7994 38.5599 24.8074 38.2399 24.0394 37.6319C23.2394 36.9599 22.8234 36.0799 22.7914 34.9919C22.9194 33.3279 23.8314 31.8719 25.5274 30.6239C27.1914 29.3439 28.9194 28.6719 30.7114 28.6079C32.1194 28.5759 33.2074 28.8639 33.9754 29.4719C34.8074 30.0159 35.2394 30.8959 35.2714 32.1119Z" fill="white"/>
<path d="M12.6879 0V4.8H35.2234V0H12.6879Z" fill="white"/>
<path d="M12.6879 7.19995V12H35.2234V7.19995H12.6879Z" fill="white"/>
</svg>
