<svg width="62" height="40" viewBox="0 0 62 40" fill="none" xmlns="http://www.w3.org/2000/svg">
<path d="M12.8325 0.679993H11.1525V32.36H12.8325V0.679993Z" fill="white"/>
<path d="M12.8806 32.7921C12.7526 34.5521 11.8406 36.0561 10.1446 37.3041C8.38457 38.5521 6.54457 39.2081 4.62457 39.2721C3.40857 39.2401 2.41657 38.9201 1.64857 38.3121C0.848574 37.6401 0.432574 36.7601 0.400574 35.6721C0.528574 34.0081 1.44057 32.5521 3.13657 31.3041C4.80057 30.0241 6.52857 29.3521 8.32057 29.2881C9.72857 29.2561 10.8166 29.5441 11.5846 30.1521C12.4166 30.6961 12.8486 31.5761 12.8806 32.7921Z" fill="white"/>
<path d="M37.0507 0.679993H35.3707V32.36H37.0507V0.679993Z" fill="white"/>
<path d="M37.0987 32.7921C36.9707 34.5521 36.0587 36.0561 34.3627 37.3041C32.6027 38.5521 30.7627 39.2081 28.8427 39.2721C27.6267 39.2401 26.6347 38.9201 25.8667 38.3121C25.0667 37.6401 24.6507 36.7601 24.6187 35.6721C24.7467 34.0081 25.6587 32.5521 27.3547 31.3041C29.0187 30.0241 30.7467 29.3521 32.5387 29.2881C33.9467 29.2561 35.0347 29.5441 35.8027 30.1521C36.6347 30.6961 37.0667 31.5761 37.0987 32.7921Z" fill="white"/>
<path d="M61.2688 0.679993H59.5888V32.36H61.2688V0.679993Z" fill="white"/>
<path d="M61.3168 32.7921C61.1888 34.5521 60.2768 36.0561 58.5808 37.3041C56.8208 38.5521 54.9808 39.2081 53.0608 39.2721C51.8448 39.2401 50.8528 38.9201 50.0848 38.3121C49.2848 37.6401 48.8688 36.7601 48.8368 35.6721C48.9648 34.0081 49.8768 32.5521 51.5728 31.3041C53.2368 30.0241 54.9648 29.3521 56.7568 29.2881C58.1648 29.2561 59.2528 29.5441 60.0208 30.1521C60.8528 30.6961 61.2848 31.5761 61.3168 32.7921Z" fill="white"/>
<path d="M12.8326 0.679993V5.47999H61.2688V0.679993H12.8326Z" fill="white"/>
</svg>
