<svg width="47" height="39" viewBox="0 0 47 39" fill="none" xmlns="http://www.w3.org/2000/svg">
<path d="M12.5984 0H10.9184V31.68H12.5984V0Z" fill="white"/>
<path d="M12.6464 32.1121C12.5184 33.8721 11.6064 35.3761 9.91044 36.6241C8.15044 37.8721 6.31044 38.5281 4.39044 38.5921C3.17444 38.5601 2.18244 38.2401 1.41444 37.6321C0.614443 36.9601 0.198443 36.0801 0.166443 34.9921C0.294443 33.3281 1.20644 31.8721 2.90244 30.6241C4.56644 29.3441 6.29444 28.6721 8.08644 28.6081C9.49444 28.5761 10.5824 28.8641 11.3504 29.4721C12.1824 30.0161 12.6144 30.8961 12.6464 32.1121Z" fill="white"/>
<path d="M40.0906 0H38.4106V31.68H40.0906V0Z" fill="white"/>
<path d="M40.1386 32.1124C40.0106 33.8724 39.0986 35.3764 37.4026 36.6244C35.6426 37.8724 33.8026 38.5284 31.8826 38.5924C30.6666 38.5604 29.6746 38.2404 28.9066 37.6324C28.1066 36.9604 27.6906 36.0804 27.6586 34.9924C27.7866 33.3284 28.6986 31.8724 30.3946 30.6244C32.0586 29.3444 33.7866 28.6724 35.5786 28.6084C36.9866 28.5764 38.0746 28.8644 38.8426 29.4724C39.6746 30.0164 40.1066 30.8964 40.1386 32.1124Z" fill="white"/>
<path d="M46.1866 28.6564C46.0586 29.7444 45.4506 30.3684 44.3626 30.5284C43.2426 30.3684 42.6346 29.7444 42.5386 28.6564C42.6346 27.5684 43.2426 26.9764 44.3626 26.8804C45.4506 26.9764 46.0586 27.5684 46.1866 28.6564Z" fill="white"/>
<path d="M12.5984 0V4.8H40.0906V0H12.5984Z" fill="white"/>
<path d="M28.0906 7.19995V12H40.0906V7.19995H28.0906Z" fill="white"/>
</svg>
