<svg width="144" height="64" viewBox="0 0 144 64" fill="none" xmlns="http://www.w3.org/2000/svg">
<path d="M52.404 12.704H50.724V44.384H52.404V12.704Z" fill="white"/>
<path d="M52.4519 44.8159C52.3239 46.5759 51.4119 48.0799 49.7159 49.3279C47.9559 50.5759 46.1159 51.2319 44.1959 51.2959C42.9799 51.2639 41.9879 50.9439 41.2199 50.3359C40.4199 49.6639 40.0039 48.7839 39.9719 47.6959C40.0999 46.0319 41.0119 44.5759 42.7079 43.3279C44.3719 42.0479 46.0999 41.3759 47.8919 41.3119C49.2999 41.2799 50.3879 41.5679 51.1559 42.1759C51.9879 42.7199 52.4199 43.5999 52.4519 44.8159Z" fill="white"/>
<path d="M81.4445 12.704H79.7645V44.384H81.4445V12.704Z" fill="white"/>
<path d="M81.4925 44.8159C81.3645 46.5759 80.4525 48.0799 78.7565 49.3279C76.9965 50.5759 75.1565 51.2319 73.2365 51.2959C72.0205 51.2639 71.0285 50.9439 70.2605 50.3359C69.4605 49.6639 69.0445 48.7839 69.0125 47.6959C69.1405 46.0319 70.0525 44.5759 71.7485 43.3279C73.4125 42.0479 75.1405 41.3759 76.9325 41.3119C78.3405 41.2799 79.4285 41.5679 80.1965 42.1759C81.0285 42.7199 81.4605 43.5999 81.4925 44.8159Z" fill="white"/>
<path d="M103.98 12.704H102.3V44.384H103.98V12.704Z" fill="white"/>
<path d="M104.028 44.8159C103.9 46.5759 102.988 48.0799 101.292 49.3279C99.532 50.5759 97.6921 51.2319 95.7721 51.2959C94.5561 51.2639 93.564 50.9439 92.796 50.3359C91.996 49.6639 91.58 48.7839 91.548 47.6959C91.676 46.0319 92.588 44.5759 94.284 43.3279C95.9481 42.0479 97.6761 41.3759 99.4681 41.3119C100.876 41.2799 101.964 41.5679 102.732 42.1759C103.564 42.7199 103.996 43.5999 104.028 44.8159Z" fill="white"/>
<path d="M52.4039 12.704V17.504H103.98V12.704H52.4039Z" fill="white"/>
<path d="M81.4445 19.904V24.704H103.98V19.904H81.4445Z" fill="white"/>
</svg>
