<svg width="144" height="64" viewBox="0 0 144 64" fill="none" xmlns="http://www.w3.org/2000/svg">
<path d="M53.9738 12.7039H52.2938V44.3839H53.9738V12.7039Z" fill="white"/>
<path d="M54.0219 44.816C53.8939 46.576 52.9819 48.08 51.2859 49.328C49.5259 50.576 47.6859 51.232 45.7659 51.296C44.5499 51.264 43.5579 50.944 42.7899 50.336C41.9899 49.664 41.5739 48.784 41.5419 47.696C41.6699 46.032 42.5819 44.576 44.2779 43.328C45.9419 42.048 47.6699 41.376 49.4619 41.312C50.8699 41.28 51.9579 41.568 52.7259 42.176C53.5579 42.72 53.9899 43.6 54.0219 44.816Z" fill="white"/>
<path d="M78.192 12.7039H76.512V44.3839H78.192V12.7039Z" fill="white"/>
<path d="M78.24 44.816C78.112 46.576 77.2 48.08 75.504 49.328C73.744 50.576 71.904 51.232 69.984 51.296C68.768 51.264 67.776 50.944 67.008 50.336C66.208 49.664 65.792 48.784 65.76 47.696C65.888 46.032 66.8 44.576 68.496 43.328C70.16 42.048 71.888 41.376 73.68 41.312C75.088 41.28 76.176 41.568 76.944 42.176C77.776 42.72 78.208 43.6 78.24 44.816Z" fill="white"/>
<path d="M102.41 12.7039H100.73V44.3839H102.41V12.7039Z" fill="white"/>
<path d="M102.458 44.816C102.33 46.576 101.418 48.08 99.7221 49.328C97.9621 50.576 96.1221 51.232 94.2021 51.296C92.9861 51.264 91.9941 50.944 91.2261 50.336C90.4261 49.664 90.0101 48.784 89.9781 47.696C90.1061 46.032 91.0181 44.576 92.7141 43.328C94.3781 42.048 96.1061 41.376 97.8981 41.312C99.3061 41.28 100.394 41.568 101.162 42.176C101.994 42.72 102.426 43.6 102.458 44.816Z" fill="white"/>
<path d="M53.9739 12.7039V17.5039H102.41V12.7039H53.9739Z" fill="white"/>
</svg>
