<svg width="64" height="64" viewBox="0 0 64 64" fill="none" xmlns="http://www.w3.org/2000/svg">
<path d="M31.664 12.16H29.984V43.84H31.664V12.16Z" fill="white"/>
<path d="M40.928 30.832C40.896 32.848 40.512 34.768 39.776 36.592L37.616 40.96H37.04L38.72 36.976C39.328 35.376 39.632 33.664 39.632 31.84C39.536 29.664 38.816 27.712 37.472 25.984C36.736 25.024 35.824 24.224 34.736 23.584C33.648 22.944 32.56 22.56 31.472 22.432V23.2H30.464V12.16H31.472L32 15.328C32.224 16.512 32.816 17.712 33.776 18.928L38.192 23.92C39.888 25.968 40.8 28.272 40.928 30.832Z" fill="white"/>
<path d="M31.712 44.2718C31.584 46.0318 30.672 47.5358 28.976 48.7838C27.216 50.0318 25.376 50.6878 23.456 50.7518C22.24 50.7198 21.248 50.3998 20.48 49.7918C19.68 49.1198 19.264 48.2398 19.232 47.1518C19.36 45.4878 20.272 44.0318 21.968 42.7838C23.632 41.5038 25.36 40.8318 27.152 40.7678C28.56 40.7358 29.648 41.0238 30.416 41.6318C31.248 42.1758 31.68 43.0558 31.712 44.2718Z" fill="white"/>
</svg>
