<svg width="58" height="39" viewBox="0 0 58 39" fill="none" xmlns="http://www.w3.org/2000/svg">
<path d="M12.7595 0H11.0795V31.68H12.7595V0Z" fill="white"/>
<path d="M12.8075 32.1119C12.6795 33.8719 11.7675 35.3759 10.0715 36.6239C8.31151 37.8719 6.47152 38.5279 4.55152 38.5919C3.33551 38.5599 2.34351 38.2399 1.57551 37.6319C0.775515 36.9599 0.359515 36.0799 0.327515 34.9919C0.455515 33.3279 1.36751 31.8719 3.06351 30.6239C4.72751 29.3439 6.45551 28.6719 8.24751 28.6079C9.65551 28.5759 10.7435 28.8639 11.5115 29.4719C12.3435 30.0159 12.7755 30.8959 12.8075 32.1119Z" fill="white"/>
<path d="M35.2951 0H33.6151V31.68H35.2951V0Z" fill="white"/>
<path d="M35.343 32.1119C35.215 33.8719 34.303 35.3759 32.607 36.6239C30.847 37.8719 29.007 38.5279 27.087 38.5919C25.871 38.5599 24.879 38.2399 24.111 37.6319C23.311 36.9599 22.895 36.0799 22.863 34.9919C22.991 33.3279 23.903 31.8719 25.599 30.6239C27.263 29.3439 28.991 28.6719 30.783 28.6079C32.191 28.5759 33.279 28.8639 34.047 29.4719C34.879 30.0159 35.311 30.8959 35.343 32.1119Z" fill="white"/>
<path d="M57.8305 0H56.1505V31.68H57.8305V0Z" fill="white"/>
<path d="M57.8785 32.1119C57.7505 33.8719 56.8385 35.3759 55.1425 36.6239C53.3825 37.8719 51.5425 38.5279 49.6225 38.5919C48.4065 38.5599 47.4145 38.2399 46.6465 37.6319C45.8465 36.9599 45.4305 36.0799 45.3985 34.9919C45.5265 33.3279 46.4385 31.8719 48.1345 30.6239C49.7985 29.3439 51.5265 28.6719 53.3185 28.6079C54.7265 28.5759 55.8145 28.8639 56.5825 29.4719C57.4145 30.0159 57.8465 30.8959 57.8785 32.1119Z" fill="white"/>
<path d="M12.7595 0V4.8H57.8305V0H12.7595Z" fill="white"/>
<path d="M12.7595 7.19995V12H35.295V7.19995H12.7595Z" fill="white"/>
</svg>
