<svg width="144" height="64" viewBox="0 0 144 64" fill="none" xmlns="http://www.w3.org/2000/svg">
<path d="M50.7317 12.7039H49.0517V44.3839H50.7317V12.7039Z" fill="white"/>
<path d="M50.7797 44.816C50.6517 46.576 49.7397 48.08 48.0437 49.328C46.2837 50.576 44.4437 51.232 42.5237 51.296C41.3077 51.264 40.3157 50.944 39.5477 50.336C38.7477 49.664 38.3317 48.784 38.2997 47.696C38.4277 46.032 39.3397 44.576 41.0357 43.328C42.6997 42.048 44.4277 41.376 46.2197 41.312C47.6277 41.28 48.7157 41.568 49.4837 42.176C50.3157 42.72 50.7477 43.6 50.7797 44.816Z" fill="white"/>
<path d="M74.7285 12.7039H73.0485V44.3839H74.7285V12.7039Z" fill="white"/>
<path d="M74.7765 44.816C74.6485 46.576 73.7365 48.08 72.0405 49.328C70.2805 50.576 68.4405 51.232 66.5205 51.296C65.3045 51.264 64.3125 50.944 63.5445 50.336C62.7445 49.664 62.3285 48.784 62.2965 47.696C62.4245 46.032 63.3365 44.576 65.0325 43.328C66.6965 42.048 68.4245 41.376 70.2165 41.312C71.6245 41.28 72.7125 41.568 73.4805 42.176C74.3125 42.72 74.7445 43.6 74.7765 44.816Z" fill="white"/>
<path d="M105.652 12.7039H103.972V44.3839H105.652V12.7039Z" fill="white"/>
<path d="M105.7 44.816C105.572 46.576 104.66 48.08 102.964 49.328C101.204 50.576 99.3643 51.232 97.4443 51.296C96.2283 51.264 95.2363 50.944 94.4683 50.336C93.6683 49.664 93.2523 48.784 93.2203 47.696C93.3483 46.032 94.2603 44.576 95.9563 43.328C97.6203 42.048 99.3483 41.376 101.14 41.312C102.548 41.28 103.636 41.568 104.404 42.176C105.236 42.72 105.668 43.6 105.7 44.816Z" fill="white"/>
<path d="M50.7317 12.7039V17.5039H105.652V12.7039H50.7317Z" fill="white"/>
<path d="M50.7317 19.9039V24.7039H62.7317V19.9039H50.7317Z" fill="white"/>
<path d="M93.6523 19.9039V24.7039H105.652V19.9039H93.6523Z" fill="white"/>
</svg>
