<svg width="83" height="40" viewBox="0 0 83 40" fill="none" xmlns="http://www.w3.org/2000/svg">
<path d="M12.5261 0.679993H10.8461V32.36H12.5261V0.679993Z" fill="white"/>
<path d="M12.574 32.792C12.446 34.552 11.534 36.056 9.83799 37.304C8.07799 38.552 6.23799 39.208 4.31799 39.272C3.10199 39.24 2.10999 38.92 1.34199 38.312C0.541994 37.64 0.125994 36.76 0.0939941 35.672C0.221994 34.008 1.13399 32.552 2.82999 31.304C4.49399 30.024 6.22199 29.352 8.01399 29.288C9.42199 29.256 10.51 29.544 11.278 30.152C12.11 30.696 12.542 31.576 12.574 32.792Z" fill="white"/>
<path d="M33.3754 0.679993H31.6954V32.36H33.3754V0.679993Z" fill="white"/>
<path d="M33.4234 32.792C33.2954 34.552 32.3834 36.056 30.6874 37.304C28.9274 38.552 27.0874 39.208 25.1674 39.272C23.9514 39.24 22.9594 38.92 22.1914 38.312C21.3914 37.64 20.9754 36.76 20.9434 35.672C21.0714 34.008 21.9834 32.552 23.6794 31.304C25.3434 30.024 27.0714 29.352 28.8634 29.288C30.2714 29.256 31.3594 29.544 32.1274 30.152C32.9594 30.696 33.3914 31.576 33.4234 32.792Z" fill="white"/>
<path d="M54.2248 0.679993H52.5448V32.36H54.2248V0.679993Z" fill="white"/>
<path d="M54.2727 32.792C54.1447 34.552 53.2327 36.056 51.5367 37.304C49.7767 38.552 47.9367 39.208 46.0167 39.272C44.8007 39.24 43.8087 38.92 43.0407 38.312C42.2407 37.64 41.8247 36.76 41.7927 35.672C41.9207 34.008 42.8327 32.552 44.5287 31.304C46.1927 30.024 47.9207 29.352 49.7127 29.288C51.1207 29.256 52.2087 29.544 52.9767 30.152C53.8087 30.696 54.2407 31.576 54.2727 32.792Z" fill="white"/>
<path d="M81.9869 0.679993H80.3069V32.36H81.9869V0.679993Z" fill="white"/>
<path d="M82.0348 32.792C81.9068 34.552 80.9948 36.056 79.2988 37.304C77.5388 38.552 75.6988 39.208 73.7788 39.272C72.5628 39.24 71.5708 38.92 70.8028 38.312C70.0028 37.64 69.5868 36.76 69.5548 35.672C69.6828 34.008 70.5948 32.552 72.2908 31.304C73.9548 30.024 75.6828 29.352 77.4748 29.288C78.8828 29.256 79.9708 29.544 80.7388 30.152C81.5708 30.696 82.0028 31.576 82.0348 32.792Z" fill="white"/>
<path d="M12.5261 0.679993V5.47999H81.9869V0.679993H12.5261Z" fill="white"/>
<path d="M12.5261 7.88V12.68H33.3755V7.88H12.5261Z" fill="white"/>
</svg>
