<svg width="144" height="64" viewBox="0 0 144 64" fill="none" xmlns="http://www.w3.org/2000/svg">
<path d="M42.1968 12.704H40.5168V44.384H42.1968V12.704Z" fill="#1E1618"/>
<path d="M42.2448 44.816C42.1168 46.576 41.2048 48.08 39.5088 49.328C37.7488 50.576 35.9088 51.232 33.9888 51.296C32.7728 51.264 31.7808 50.944 31.0128 50.336C30.2128 49.664 29.7968 48.784 29.7648 47.696C29.8928 46.032 30.8048 44.576 32.5008 43.328C34.1648 42.048 35.8928 41.376 37.6848 41.312C39.0928 41.28 40.1808 41.568 40.9488 42.176C41.7808 42.72 42.2128 43.6 42.2448 44.816Z" fill="#1E1618"/>
<path d="M66.1936 12.704H64.5136V44.384H66.1936V12.704Z" fill="#1E1618"/>
<path d="M66.2416 44.816C66.1136 46.576 65.2016 48.08 63.5056 49.328C61.7456 50.576 59.9056 51.232 57.9856 51.296C56.7696 51.264 55.7776 50.944 55.0096 50.336C54.2096 49.664 53.7936 48.784 53.7616 47.696C53.8896 46.032 54.8016 44.576 56.4976 43.328C58.1616 42.048 59.8896 41.376 61.6816 41.312C63.0896 41.28 64.1776 41.568 64.9456 42.176C65.7776 42.72 66.2096 43.6 66.2416 44.816Z" fill="#1E1618"/>
<path d="M90.1904 12.704H88.5104V44.384H90.1904V12.704Z" fill="#1E1618"/>
<path d="M90.2384 44.816C90.1104 46.576 89.1984 48.08 87.5024 49.328C85.7424 50.576 83.9024 51.232 81.9824 51.296C80.7664 51.264 79.7744 50.944 79.0064 50.336C78.2064 49.664 77.7904 48.784 77.7584 47.696C77.8864 46.032 78.7984 44.576 80.4944 43.328C82.1584 42.048 83.8864 41.376 85.6784 41.312C87.0864 41.28 88.1744 41.568 88.9424 42.176C89.7744 42.72 90.2064 43.6 90.2384 44.816Z" fill="#1E1618"/>
<path d="M114.187 12.704H112.507V44.384H114.187V12.704Z" fill="#1E1618"/>
<path d="M114.235 44.816C114.107 46.576 113.195 48.08 111.499 49.328C109.739 50.576 107.899 51.232 105.979 51.296C104.763 51.264 103.771 50.944 103.003 50.336C102.203 49.664 101.787 48.784 101.755 47.696C101.883 46.032 102.795 44.576 104.491 43.328C106.155 42.048 107.883 41.376 109.675 41.312C111.083 41.28 112.171 41.568 112.939 42.176C113.771 42.72 114.203 43.6 114.235 44.816Z" fill="#1E1618"/>
<path d="M42.1967 12.704V17.504H114.187V12.704H42.1967Z" fill="#1E1618"/>
<path d="M42.1967 19.9039V24.7039H114.187V19.9039H42.1967Z" fill="#1E1618"/>
</svg>
