<svg width="16" height="10" viewBox="0 0 16 10" fill="none" xmlns="http://www.w3.org/2000/svg">
<path d="M4.8 3.944C4.928 5.48 5.376 6.728 6.144 7.688C6.912 8.584 7.808 8.968 8.832 8.84C10.368 8.776 11.072 7.72 10.944 5.672C10.816 4.072 10.368 2.824 9.6 1.928C8.832 1.032 7.936 0.648 6.912 0.776C6.144 0.904 5.568 1.192 5.184 1.64C4.864 2.088 4.736 2.856 4.8 3.944ZM12.672 0.968C14.528 1.672 15.552 2.952 15.744 4.808C15.616 6.664 14.656 7.944 12.864 8.648C11.136 9.352 9.504 9.672 7.968 9.608C6.432 9.672 4.768 9.352 2.976 8.648C1.184 7.944 0.192 6.664 0 4.808C0.128 2.952 1.056 1.672 2.784 0.968C4.576 0.264 6.208 -0.056 7.68 0.008C9.216 -0.056 10.88 0.264 12.672 0.968Z" fill="white"/>
</svg>
