<svg width="64" height="64" viewBox="0 0 64 64" fill="none" xmlns="http://www.w3.org/2000/svg">
<path d="M26.9243 12.704H25.2443V44.384H26.9243V12.704Z" fill="white"/>
<path d="M26.9723 44.8159C26.8443 46.5759 25.9323 48.0799 24.2363 49.3279C22.4763 50.5759 20.6363 51.2319 18.7163 51.2959C17.5003 51.2639 16.5083 50.9439 15.7403 50.3359C14.9403 49.6639 14.5243 48.7839 14.4923 47.6959C14.6203 46.0319 15.5323 44.5759 17.2283 43.3279C18.8923 42.0479 20.6203 41.3759 22.4123 41.3119C23.8203 41.2799 24.9083 41.5679 25.6763 42.1759C26.5083 42.7199 26.9403 43.5999 26.9723 44.8159Z" fill="white"/>
<path d="M49.4597 12.704H47.7797V44.384H49.4597V12.704Z" fill="white"/>
<path d="M49.5077 44.8159C49.3797 46.5759 48.4677 48.0799 46.7717 49.3279C45.0117 50.5759 43.1717 51.2319 41.2517 51.2959C40.0357 51.2639 39.0437 50.9439 38.2757 50.3359C37.4757 49.6639 37.0597 48.7839 37.0277 47.6959C37.1557 46.0319 38.0677 44.5759 39.7637 43.3279C41.4277 42.0479 43.1557 41.3759 44.9477 41.3119C46.3557 41.2799 47.4437 41.5679 48.2117 42.1759C49.0437 42.7199 49.4757 43.5999 49.5077 44.8159Z" fill="white"/>
<path d="M26.9242 12.704V17.504H49.4597V12.704H26.9242Z" fill="white"/>
<path d="M26.9242 19.904V24.704H49.4597V19.904H26.9242Z" fill="white"/>
</svg>
