<svg width="144" height="64" viewBox="0 0 144 64" fill="none" xmlns="http://www.w3.org/2000/svg">
<path d="M55.6565 12.704H53.9765V44.384H55.6565V12.704Z" fill="white"/>
<path d="M55.7045 44.8159C55.5765 46.5759 54.6645 48.0799 52.9685 49.3279C51.2085 50.5759 49.3685 51.2319 47.4485 51.2959C46.2325 51.2639 45.2405 50.9439 44.4725 50.3359C43.6725 49.6639 43.2565 48.7839 43.2245 47.6959C43.3525 46.0319 44.2645 44.5759 45.9605 43.3279C47.6245 42.0479 49.3525 41.3759 51.1445 41.3119C52.5525 41.2799 53.6405 41.5679 54.4085 42.1759C55.2405 42.7199 55.6725 43.5999 55.7045 44.8159Z" fill="white"/>
<path d="M78.192 12.704H76.512V44.384H78.192V12.704Z" fill="white"/>
<path d="M78.24 44.8159C78.112 46.5759 77.2 48.0799 75.504 49.3279C73.744 50.5759 71.904 51.2319 69.984 51.2959C68.768 51.2639 67.776 50.9439 67.008 50.3359C66.208 49.6639 65.792 48.7839 65.76 47.6959C65.888 46.0319 66.8 44.5759 68.496 43.3279C70.16 42.0479 71.888 41.3759 73.68 41.3119C75.088 41.2799 76.176 41.5679 76.944 42.1759C77.776 42.7199 78.208 43.5999 78.24 44.8159Z" fill="white"/>
<path d="M100.728 12.704H99.0475V44.384H100.728V12.704Z" fill="white"/>
<path d="M100.775 44.8159C100.647 46.5759 99.7355 48.0799 98.0395 49.3279C96.2795 50.5759 94.4395 51.2319 92.5195 51.2959C91.3035 51.2639 90.3115 50.9439 89.5435 50.3359C88.7435 49.6639 88.3275 48.7839 88.2955 47.6959C88.4235 46.0319 89.3355 44.5759 91.0315 43.3279C92.6955 42.0479 94.4235 41.3759 96.2155 41.3119C97.6235 41.2799 98.7115 41.5679 99.4795 42.1759C100.311 42.7199 100.743 43.5999 100.775 44.8159Z" fill="white"/>
<path d="M55.6565 12.704V17.504H100.728V12.704H55.6565Z" fill="white"/>
<path d="M55.6565 19.904V24.704H78.192V19.904H55.6565Z" fill="white"/>
</svg>
