<svg width="144" height="64" viewBox="0 0 144 64" fill="none" xmlns="http://www.w3.org/2000/svg">
<path d="M43.4617 12.704H41.7817V44.384H43.4617V12.704Z" fill="#1E1618"/>
<path d="M43.5096 44.816C43.3816 46.576 42.4696 48.08 40.7736 49.328C39.0136 50.576 37.1736 51.232 35.2536 51.296C34.0376 51.264 33.0456 50.944 32.2776 50.336C31.4776 49.664 31.0616 48.784 31.0296 47.696C31.1576 46.032 32.0696 44.576 33.7656 43.328C35.4296 42.048 37.1576 41.376 38.9496 41.312C40.3576 41.28 41.4456 41.568 42.2136 42.176C43.0456 42.72 43.4776 43.6 43.5096 44.816Z" fill="#1E1618"/>
<path d="M64.311 12.704H62.631V44.384H64.311V12.704Z" fill="#1E1618"/>
<path d="M64.359 44.816C64.231 46.576 63.319 48.08 61.623 49.328C59.863 50.576 58.023 51.232 56.103 51.296C54.887 51.264 53.895 50.944 53.127 50.336C52.327 49.664 51.911 48.784 51.879 47.696C52.007 46.032 52.919 44.576 54.615 43.328C56.279 42.048 58.007 41.376 59.799 41.312C61.207 41.28 62.295 41.568 63.063 42.176C63.895 42.72 64.327 43.6 64.359 44.816Z" fill="#1E1618"/>
<path d="M85.1604 12.704H83.4804V44.384H85.1604V12.704Z" fill="#1E1618"/>
<path d="M85.2083 44.816C85.0803 46.576 84.1683 48.08 82.4723 49.328C80.7123 50.576 78.8723 51.232 76.9523 51.296C75.7363 51.264 74.7443 50.944 73.9763 50.336C73.1763 49.664 72.7603 48.784 72.7283 47.696C72.8563 46.032 73.7683 44.576 75.4643 43.328C77.1283 42.048 78.8563 41.376 80.6483 41.312C82.0563 41.28 83.1443 41.568 83.9123 42.176C84.7443 42.72 85.1763 43.6 85.2083 44.816Z" fill="#1E1618"/>
<path d="M112.922 12.704H111.242V44.384H112.922V12.704Z" fill="#1E1618"/>
<path d="M112.97 44.816C112.842 46.576 111.93 48.08 110.234 49.328C108.474 50.576 106.634 51.232 104.714 51.296C103.498 51.264 102.506 50.944 101.738 50.336C100.938 49.664 100.522 48.784 100.49 47.696C100.618 46.032 101.53 44.576 103.226 43.328C104.89 42.048 106.618 41.376 108.41 41.312C109.818 41.28 110.906 41.568 111.674 42.176C112.506 42.72 112.938 43.6 112.97 44.816Z" fill="#1E1618"/>
<path d="M43.4617 12.704V17.504H112.922V12.704H43.4617Z" fill="#1E1618"/>
<path d="M43.4617 19.904V24.704H64.311V19.904H43.4617Z" fill="#1E1618"/>
</svg>
