<svg width="68" height="40" viewBox="0 0 68 40" fill="none" xmlns="http://www.w3.org/2000/svg">
<path d="M12.432 0.679993H10.752V32.36H12.432V0.679993Z" fill="white"/>
<path d="M12.48 32.7921C12.352 34.5521 11.44 36.0561 9.744 37.3041C7.984 38.5521 6.144 39.2081 4.224 39.2721C3.008 39.2401 2.016 38.9201 1.248 38.3121C0.448 37.6401 0.032 36.7601 0 35.6721C0.128 34.0081 1.04 32.5521 2.736 31.3041C4.4 30.0241 6.128 29.3521 7.92 29.2881C9.328 29.2561 10.416 29.5441 11.184 30.1521C12.016 30.6961 12.448 31.5761 12.48 32.7921Z" fill="white"/>
<path d="M36.4288 0.679993H34.7488V32.36H36.4288V0.679993Z" fill="white"/>
<path d="M36.4768 32.7921C36.3488 34.5521 35.4368 36.0561 33.7408 37.3041C31.9808 38.5521 30.1408 39.2081 28.2208 39.2721C27.0048 39.2401 26.0128 38.9201 25.2448 38.3121C24.4448 37.6401 24.0288 36.7601 23.9968 35.6721C24.1248 34.0081 25.0368 32.5521 26.7328 31.3041C28.3968 30.0241 30.1248 29.3521 31.9168 29.2881C33.3248 29.2561 34.4128 29.5441 35.1808 30.1521C36.0128 30.6961 36.4448 31.5761 36.4768 32.7921Z" fill="white"/>
<path d="M67.3526 0.679993H65.6726V32.36H67.3526V0.679993Z" fill="white"/>
<path d="M67.4006 32.7921C67.2726 34.5521 66.3606 36.0561 64.6646 37.3041C62.9046 38.5521 61.0646 39.2081 59.1446 39.2721C57.9286 39.2401 56.9366 38.9201 56.1686 38.3121C55.3686 37.6401 54.9526 36.7601 54.9206 35.6721C55.0486 34.0081 55.9606 32.5521 57.6566 31.3041C59.3206 30.0241 61.0486 29.3521 62.8406 29.2881C64.2486 29.2561 65.3366 29.5441 66.1046 30.1521C66.9366 30.6961 67.3686 31.5761 67.4006 32.7921Z" fill="white"/>
<path d="M12.432 0.679993V5.47999H67.3525V0.679993H12.432Z" fill="white"/>
<path d="M12.432 7.87994V12.6799H24.432V7.87994H12.432Z" fill="white"/>
<path d="M55.3525 7.87994V12.6799H67.3525V7.87994H55.3525Z" fill="white"/>
</svg>
