<svg width="85" height="40" viewBox="0 0 85 40" fill="none" xmlns="http://www.w3.org/2000/svg">
<path d="M12.7488 0.679993H11.0688V32.36H12.7488V0.679993Z" fill="white"/>
<path d="M12.7968 32.792C12.6688 34.552 11.7568 36.056 10.0608 37.304C8.30077 38.552 6.46077 39.208 4.54077 39.272C3.32477 39.24 2.33277 38.92 1.56477 38.312C0.764772 37.64 0.348772 36.76 0.316772 35.672C0.444772 34.008 1.35677 32.552 3.05277 31.304C4.71677 30.024 6.44477 29.352 8.23677 29.288C9.64477 29.256 10.7328 29.544 11.5008 30.152C12.3328 30.696 12.7648 31.576 12.7968 32.792Z" fill="white"/>
<path d="M36.7456 0.679993H35.0656V32.36H36.7456V0.679993Z" fill="white"/>
<path d="M36.7936 32.792C36.6656 34.552 35.7536 36.056 34.0576 37.304C32.2976 38.552 30.4576 39.208 28.5376 39.272C27.3216 39.24 26.3296 38.92 25.5616 38.312C24.7616 37.64 24.3456 36.76 24.3136 35.672C24.4416 34.008 25.3536 32.552 27.0496 31.304C28.7136 30.024 30.4416 29.352 32.2336 29.288C33.6416 29.256 34.7296 29.544 35.4976 30.152C36.3296 30.696 36.7616 31.576 36.7936 32.792Z" fill="white"/>
<path d="M60.7424 0.679993H59.0624V32.36H60.7424V0.679993Z" fill="white"/>
<path d="M60.7904 32.792C60.6624 34.552 59.7504 36.056 58.0544 37.304C56.2944 38.552 54.4544 39.208 52.5344 39.272C51.3184 39.24 50.3264 38.92 49.5584 38.312C48.7584 37.64 48.3424 36.76 48.3104 35.672C48.4384 34.008 49.3504 32.552 51.0464 31.304C52.7104 30.024 54.4384 29.352 56.2304 29.288C57.6384 29.256 58.7264 29.544 59.4944 30.152C60.3264 30.696 60.7584 31.576 60.7904 32.792Z" fill="white"/>
<path d="M84.7392 0.679993H83.0592V32.36H84.7392V0.679993Z" fill="white"/>
<path d="M84.7872 32.792C84.6592 34.552 83.7472 36.056 82.0512 37.304C80.2912 38.552 78.4512 39.208 76.5312 39.272C75.3152 39.24 74.3232 38.92 73.5552 38.312C72.7552 37.64 72.3392 36.76 72.3072 35.672C72.4352 34.008 73.3472 32.552 75.0432 31.304C76.7072 30.024 78.4352 29.352 80.2272 29.288C81.6352 29.256 82.7232 29.544 83.4912 30.152C84.3232 30.696 84.7552 31.576 84.7872 32.792Z" fill="white"/>
<path d="M12.7487 0.679993V5.47999H84.7392V0.679993H12.7487Z" fill="white"/>
<path d="M12.7487 7.87994V12.6799H84.7392V7.87994H12.7487Z" fill="white"/>
</svg>
