<svg width="64" height="64" viewBox="0 0 64 64" fill="none" xmlns="http://www.w3.org/2000/svg">
<path d="M28.928 31.136C29.056 32.672 29.504 33.92 30.272 34.88C31.04 35.776 31.936 36.16 32.96 36.032C34.496 35.968 35.2 34.912 35.072 32.864C34.944 31.264 34.496 30.016 33.728 29.12C32.96 28.224 32.064 27.84 31.04 27.968C30.272 28.096 29.696 28.384 29.312 28.832C28.992 29.28 28.864 30.048 28.928 31.136ZM36.8 28.16C38.656 28.864 39.68 30.144 39.872 32C39.744 33.856 38.784 35.136 36.992 35.84C35.264 36.544 33.632 36.864 32.096 36.8C30.56 36.864 28.896 36.544 27.104 35.84C25.312 35.136 24.32 33.856 24.128 32C24.256 30.144 25.184 28.864 26.912 28.16C28.704 27.456 30.336 27.136 31.808 27.2C33.344 27.136 35.008 27.456 36.8 28.16Z" fill="#1E1618"/>
</svg>
