<svg width="64" height="64" viewBox="0 0 64 64" fill="none" xmlns="http://www.w3.org/2000/svg">
<path d="M29.312 23.5943C28.608 23.0183 28.24 22.2663 28.208 21.3383C28.208 19.8023 28.992 18.8263 30.56 18.4103C31.328 18.2823 32 18.4903 32.576 19.0343C33.152 19.5463 33.456 20.2183 33.488 21.0503L33.296 22.0583L33.2 22.4903C33.392 22.8743 33.712 22.9543 34.16 22.7303C35.664 22.0583 36.832 20.9703 37.664 19.4663H38.384L31.088 45.6263H29.744L33.392 32.5223C32.112 33.3543 30.736 33.8343 29.264 33.9623C28.304 33.9303 27.472 33.6263 26.768 33.0503C26.064 32.4743 25.68 31.7223 25.616 30.7943C25.712 29.0023 26.656 28.0103 28.448 27.8183C29.248 27.8503 29.872 28.1543 30.32 28.7303C30.8 29.3063 31.024 29.9783 30.992 30.7463L30.704 32.0423C30.8 32.2343 30.96 32.3143 31.184 32.2823C31.632 32.2823 32.128 32.0743 32.672 31.6583L33.92 30.6503L35.936 23.0663C34.624 23.8983 33.232 24.3783 31.76 24.5063C30.864 24.4743 30.048 24.1703 29.312 23.5943Z" fill="white"/>
</svg>
