<svg width="14" height="28" viewBox="0 0 14 28" fill="none" xmlns="http://www.w3.org/2000/svg">
<path d="M4.66402 5.49267C3.96002 4.91667 3.59202 4.16467 3.56002 3.23667C3.56002 1.70067 4.34402 0.724666 5.91202 0.308666C6.68002 0.180666 7.35202 0.388666 7.92802 0.932666C8.50402 1.44467 8.80802 2.11667 8.84002 2.94867L8.64802 3.95667L8.55202 4.38867C8.74402 4.77267 9.06402 4.85267 9.51202 4.62867C11.016 3.95667 12.184 2.86867 13.016 1.36467H13.736L6.44002 27.5247H5.09602L8.74402 14.4207C7.46402 15.2527 6.08802 15.7327 4.61602 15.8607C3.65602 15.8287 2.82402 15.5247 2.12002 14.9487C1.41602 14.3727 1.03202 13.6207 0.968018 12.6927C1.06402 10.9007 2.00802 9.90867 3.80002 9.71667C4.60002 9.74867 5.22402 10.0527 5.67202 10.6287C6.15202 11.2047 6.37602 11.8767 6.34402 12.6447L6.05602 13.9407C6.15202 14.1327 6.31202 14.2127 6.53602 14.1807C6.98402 14.1807 7.48002 13.9727 8.02402 13.5567L9.27202 12.5487L11.288 4.96467C9.97602 5.79667 8.58402 6.27667 7.11202 6.40467C6.21602 6.37267 5.40002 6.06867 4.66402 5.49267Z" fill="white"/>
</svg>
