<svg width="17" height="38" viewBox="0 0 17 38" fill="none" xmlns="http://www.w3.org/2000/svg">
<path d="M11.2 3.90867L11.056 4.34067C11.248 4.75667 11.568 4.85267 12.016 4.62867C13.52 3.92467 14.688 2.83667 15.52 1.36467H16.192L6.25602 37.2207H4.91202L8.56002 24.1167C7.24802 24.9487 5.85602 25.4287 4.38402 25.5567C3.42402 25.5247 2.59202 25.2207 1.88802 24.6447C1.18402 24.0687 0.800023 23.3167 0.736023 22.3887C0.832023 20.5967 1.77602 19.6047 3.56802 19.4127C5.16802 19.6367 6.01602 20.5487 6.11202 22.1487L5.82402 23.6367C5.92002 23.8287 6.08002 23.9087 6.30402 23.8767C6.78402 23.8767 7.29602 23.6687 7.84002 23.2527L9.13602 22.1007L11.104 14.5647C9.79202 15.3967 8.40002 15.8767 6.92802 16.0047C6.00002 15.9727 5.16802 15.6687 4.43202 15.0927C3.72802 14.5167 3.36002 13.7807 3.32802 12.8847C3.39202 11.0927 4.33602 10.1007 6.16002 9.90867C6.92802 9.97267 7.55202 10.2927 8.03202 10.8687C8.48002 11.4447 8.68802 12.1007 8.65602 12.8367L8.36802 14.0847C8.46402 14.2767 8.62402 14.3567 8.84802 14.3247C9.32802 14.3567 9.84002 14.1487 10.384 13.7007L11.68 12.4047L13.792 4.96467C12.48 5.79667 11.088 6.27667 9.61602 6.40467C8.68802 6.37267 7.85602 6.06867 7.12002 5.49267C6.41602 4.91667 6.04802 4.16467 6.01602 3.23667C6.04802 1.70067 6.83202 0.724666 8.36802 0.308666C9.16802 0.180666 9.85602 0.388668 10.432 0.932667C11.04 1.44467 11.344 2.11667 11.344 2.94867C11.408 3.30067 11.36 3.62067 11.2 3.90867Z" style="fill: currentColor"/>
</svg>
